<svg xmlns="http://www.w3.org/2000/svg" width="460.359" height="408.975" viewBox="0 0 460.359 408.975"><defs><style>.a{fill:#454545;}.a,.au,.av,.b,.c,.d,.e,.f,.g,.h,.i,.u{fill-rule:evenodd;}.b{fill:#989898;}.c,.k{fill:#717171;}.as,.at,.d,.y{fill:#fff;}.e{fill:#20318d;}.ao,.f{fill:#ffc8af;}.g{fill:#c4c4c4;}.h{fill:#f4ae92;}.ad,.i{fill:#112b46;}.j{fill:#83c9ff;}.l{isolation:isolate;}.m{fill:#91772f;}.n{fill:#ffda76;}.o{fill:#c1a354;}.p{fill:#dbba61;}.q{fill:#715c23;}.r{fill:#866f2f;}.s{fill:#6f5b21;}.t{fill:#ffdc85;}.u{fill:#ffc9af;}.v{fill:#a5b7c6;}.w{fill:#b6c7d3;}.x{fill:none;}.z{fill:#606bf1;}.aa{fill:#ec827d;}.ab{fill:#fbd15b;}.ac{fill:#56548c;}.ae{fill:#ccd9e2;}.af{fill:#bee1f4;}.ag{fill:#eee;}.ah{fill:#879faf;}.ai{fill:#878cf0;}.aj{fill:#495dea;}.ak{fill:#d34c4c;}.al{fill:#00c3b6;}.am{fill:#ceccff;}.an{fill:#eaeeef;}.ap{fill:#efbc3f;}.aq{fill:#d86868;}.ar{fill:#f49898;}.as{font-size:7px;}.as,.at{font-family:OpenSans-Semibold, Open Sans;font-weight:600;}.at{font-size:8px;}.av{fill:#5d5d5d;}</style></defs><g transform="translate(-309.877 -145.177)"><g transform="translate(309.877 145.177)"><g transform="translate(26.087 57.448)"><path class="a" d="M351.62,307.9s11.183,13.066,14.166,13.943.291,3.949-2,4.185-9.569-.077-11.691-2.162-8.12-4.316-8.12-4.316a33.8,33.8,0,0,1,1.621-11.033Z" transform="translate(-316.256 -124.326)"/><path class="b" d="M357.029,239.027s1.449,28.917.92,38.4-2.842,56.553-2.842,56.553c-6.122,1.316-10.015,0-10.015,0-2.013-36.093-1.955-46.473-2.533-51.855s-1.29-20.943-1.29-20.943c-4.316-8.932.2-20.556,2.327-23.354S357.029,239.027,357.029,239.027Z" transform="translate(-317.744 -147.76)"/><path class="a" d="M338.42,317.412c.375,5.286,2.285,11.513,2.767,14.681a7.509,7.509,0,0,1-1.384,5.984c-.73,1.017-9.668-1.937-10.89-5.38s1.282-6.459,1.475-12.916C333.277,314.614,338.42,317.412,338.42,317.412Z" transform="translate(-321.334 -121.437)"/><path class="b" d="M351.59,240.728s-1.539,26.319-3.964,35.087-4.605,34.477-5.638,38.961-2.294,32.185-2.294,32.185a19.74,19.74,0,0,1-9.931,0c.116-25.941-.512-47.025,0-54.14s-.2-28.2-.2-28.2c-2.3-9.815-2.439-11.068,0-17.589S342.485,235.346,351.59,240.728Z" transform="translate(-321.597 -147.216)"/><path class="c" d="M350.49,193.2c9.084,2.557,13.961,25.387,16.507,30.514s23.754,6.406,23.754,6.406c1.273,4.448-2.334,9.114-2.334,9.114-20.427-.848-27.633-2.545-31.419-10.6S339.921,195.943,350.49,193.2Z" transform="translate(-315.428 -162.15)"/><path class="d" d="M358.193,193.2c-8.069-.356-26.772,3.839-32.932,11.694s2.782,21.738,4.924,30.1-.989,29.369-.984,31.384c9.56,6.339,32.583,7.141,35.167-2.312,1.068-10.288-1.289-22.5-1.415-28.522C363.264,222.621,368.874,197.031,358.193,193.2Z" transform="translate(-323.131 -162.155)"/><path class="b" d="M344.5,195.117c5.2,18.239,6.416,38.706,5.912,46.446s-.717,32.767-.717,32.767c6.045-3.181,8.7-9.013,8.7-11.665s-2.275-25.3-2.2-27.122,3.051-22.611,2.2-31.943-6.963-10.4-6.963-10.4H343.65Z" transform="translate(-316.364 -162.15)"/><path class="e" d="M348.055,178.082c3.553,1.121,0,9.2,0,9.2Z" transform="translate(-314.912 -167.135)"/><path class="f" d="M353.333,180.683a24.875,24.875,0,0,1,.835,8.406c-.5,3.677-.838,11-4.094,13.34s-7.927-.376-11.018-3a18.368,18.368,0,0,1-6.444-13.326c-.073-5.858,2.218-13.033,10.665-12.667S353.333,180.683,353.333,180.683Z" transform="translate(-320.005 -168.672)"/><path class="f" d="M336.188,189.068s.66,7.543-1.318,10.324c-.141,1.855,5.177,9.721,10.471,8.347,3.084-.8,2.713-4.392,2.713-4.392a84.918,84.918,0,0,1,0-9.372Z" transform="translate(-319.261 -163.512)"/><path class="c" d="M356.233,175.546c1.2,4.343-.169,5.9-3.831,7.149s-13.4-1.578-13.4-1.578c.66,4.652-.8,7.061-.8,7.061-1.612-4.569-3.076-2.243-3.222,1.412s1.9,3.572,1.9,3.572c-.146,3.073-1.134,4.12-1.134,4.12-3.918-2.707-9.249-20.807-2.19-21.227C333.659,169.737,353.656,166.245,356.233,175.546Z" transform="translate(-320.831 -169.85)"/><path class="b" d="M338.162,195.928c6.279,13.241,9.566,25.33,9.354,36.252s-2.468,42.734-2.468,42.734c-10.892-2.65-18.316-5.726-20.437-9.437,4.666-12.3,6.363-20.572,5.408-24.072s-9.183-30.178-4.91-38.1C329.17,198.883,338.162,195.928,338.162,195.928Z" transform="translate(-322.882 -161.25)"/><path class="g" d="M328.9,201.363c7.509,3.737,13.475,24.44,19.2,29.992,3.246,3.148,19.275,7.254,23.729,7.366,1.725,3.929-1.379,8.3-1.379,8.3-27.359-2.566-28.568-4.073-36.984-14.81C323.016,218.88,318.843,198.791,328.9,201.363Z" transform="translate(-323.124 -159.531)"/><path class="h" d="M347.152,196.739c-2.274.871-5.61-.495-9.943-3.979,0,0,1.281,5.082,9.943,6.944Z" transform="translate(-318.488 -162.294)"/><path class="d" d="M336.021,194.6a15.369,15.369,0,0,1-1.4,1.766s2.723,5.952,3.7,8.58a13.934,13.934,0,0,0,3.564,4.82l3.531-3.851C340.556,203.339,336.021,194.6,336.021,194.6Z" transform="translate(-319.341 -161.688)"/><path class="d" d="M345.013,196.033c-.323-.4-1.1,7.431-2.27,9.415a14.382,14.382,0,0,0,3.608,2.7S347.7,199.382,345.013,196.033Z" transform="translate(-316.663 -161.22)"/></g><g transform="translate(250.387 0)"><g transform="translate(27.436 75.981)"><g transform="translate(0 39.246)"><path class="i" d="M525.631,257.153c-.274,3.915-.636,7.827-.636,7.827h-.87s0-5.919-.925-4.673C523.329,257.083,525.631,257.153,525.631,257.153Z" transform="translate(-508.889 -198.838)"/><path class="f" d="M516.311,278.282c-.418,0-.985-.455-1.487-1.142.888-1.06,1.77-2.1,2.355-2.91,1.884-2.613,4.927-8.409,5.072-11.017s-1.448-29.848-1.883-33.181-1.683-15.939-1.566-16.663,11.71,4.477,11.71,4.477c-.146,1.029-1.713,7.549-1.075,11.751s1.654,6.977,1.075,13.848-3.914,17.883-2.754,23.1c.021.094.037.176.057.267C524.405,271.487,523.206,280.58,516.311,278.282Z" transform="translate(-511.651 -213.3)"/><path class="i" d="M515.611,263.869c.5.688,1.069,1.142,1.487,1.142,6.895,2.3,8.094-6.8,11.5-11.469,1.08,4.959.6,5.541-.3,6.253-.916.725-4.1,4.637-4.684,7.39s-9.272,2.464-10.867,1.884C511.653,268.67,513.647,266.213,515.611,263.869Z" transform="translate(-512.438 -200.029)"/><path class="f" d="M534.891,240.2c.336,3.049,2.121,26.522,1.831,30.44-.174,2.388-1.31,6.144-2.017,9.157-.452,1.914-.718,3.536-.452,4.312.7,2.005.73,7.975,3.964,6.63s5.391-5.505,4.73-10.108.128-6.816-.057-9.562,1.657-19.858,1.947-25.931c.29-6.1-1.739-9-1.89-13.053s1.078-12.519,1.078-12.519-13.968-7.326-12.82,1.508S534.554,237.165,534.891,240.2Z" transform="translate(-506.271 -212.173)"/><path class="i" d="M533.05,268.685c.217,4.08,1.3,7.757,4.537,6.412s5.391-5.505,4.73-10.108c-1.739,5.077-8.38,4.856-8.242-.835A28.621,28.621,0,0,0,533.05,268.685Z" transform="translate(-505.642 -196.53)"/></g><path class="b" d="M517.105,191.458s.027,28.3,0,37.59,2.407,40.591,2.407,40.591a12.858,12.858,0,0,0,9.336-.434c.682-8.085,3.052-21.391,3.456-28.381s-2.778-8.161-1.451-13.272,4.912-32.451,4.912-32.451Z" transform="translate(-510.899 -181.257)"/><path class="b" d="M528.779,199.949s2.415,30.388,3.461,34.243,1.778,18.7,2.54,23.814.835,19.835.835,19.835c1.85,6.015,9.471.932,9.471.932,3.173-18.831.975-28.194.882-33.712s2.6-19.964,2.056-25.967-1.194-18.475-.043-20.794,2.48-6.165,2.912-13.1c-8.992-3.415-23.1.422-23.1.422Z" transform="translate(-507.375 -183.786)"/></g><path class="a" d="M519.265,146.2c7.961-.395,21.479,9.023,27.6,16.742s2.334,16.093.265,24.36,1.133,28.98,1.138,30.968c-9.4,6.307-26.973,7.1-29.574-2.218-1.108-10.148,1.164-20.729,1.257-26.669C519.575,176.625,508.743,150.035,519.265,146.2Z" transform="translate(-484.263 -120.205)"/><path class="a" d="M526.074,148.061c-4.138,18-2.839,37.452-1.922,45.078s1.093,33.013,1.093,33.013c-6.138-3.1-9.072-8.838-9.215-11.449s2.234-24.622,2.062-26.417-3.293-18.8-2.961-28,3.791-10.6,3.791-10.6l7.884-3.521Z" transform="translate(-484.122 -120.213)"/><path class="a" d="M532.978,149.01c-6.126,13.1-3.175,25.113-2.908,35.892s5.856,41.046,5.856,41.046c10.737-2.675,12.02-9.871,14.093-13.545,4.955-25.2-1.3-45.679-5.956-53.244C540.412,153.227,532.978,149.01,532.978,149.01Z" transform="translate(-479.499 -119.274)"/><g transform="translate(9.183 66.728)"><path class="j" d="M499.823,180.6a5.973,5.973,0,0,0,5.4-.011c1.5-.864,1.505-2.261.017-3.12a5.972,5.972,0,0,0-5.4.009C498.343,178.344,498.335,179.741,499.823,180.6Z" transform="translate(-498.712 -176.829)"/></g><g transform="translate(25.308 39.885)"><path class="c" d="M545.784,156.826c-7.431,3.649-8.128,25.5-13.808,30.952-3.221,3.089-16.109.624-20.5.71-1.723,3.868.612,8.553.612,8.553,24.554,1.2,27.506,1.957,33.746-9.973C550.7,177.751,555.721,154.341,545.784,156.826Z" transform="translate(-510.838 -156.642)"/></g><g transform="translate(0 29.296)"><path class="a" d="M523.995,148.857c-4.754,2.487-7.011,22.385-12.689,27.367-3.219,2.823-4.646,5.4-11.2,8.674-1.722,3.539,2.951,5.746,2.951,5.746,13.082-4.953,16.073-9.217,20.444-15.82C528.916,166.641,533.931,146.59,523.995,148.857Z" transform="translate(-489.195 -148.68)"/><path class="a" d="M505.4,180.733a24.386,24.386,0,0,1-2.57,3.118c-1.133,1.29-2.94,3.505-3.5,2.957s.516-2.742.516-2.742a37.931,37.931,0,0,0-3.959,4.258c-.6,1.076-.258-2.021.6-3.441-2.15,3.27-2.662,4-2.836,3.183s1.609-5.249,1.363-4.818c-2.484,3.742-3.431,4.259-3.173,2.537s2.667-4.646,4.13-5.464c-4.3,2.8-4.6,2.5-3.528,1.249a18.591,18.591,0,0,1,10.383-5.035C506.217,179.721,505.4,180.733,505.4,180.733Z" transform="translate(-491.806 -139.493)"/></g><path class="f" d="M499.973,186.241c1.4-2.16,3.41-4.63,5.987-5.338a9.728,9.728,0,0,1,5.477.459,46,46,0,0,1,4.827,1.285,12.193,12.193,0,0,1,.988,4.581,4.386,4.386,0,0,1-.949.211,33.161,33.161,0,0,1-4.515.66,17.713,17.713,0,0,1-3.52.016c.376.108.819.29.875.677a.7.7,0,0,1-.552.7c-2.193.574-4.128-2.1-5.477-3.342C503.249,186.279,498.164,189.037,499.973,186.241Z" transform="translate(-489.242 -108.831)"/><path class="c" d="M518.14,132.833a4.093,4.093,0,0,0-.293.672c-.4,1.184-.122,2.6-.41,3.83-.456,1.963-1.844,3.5-2.5,5.4-2.408,6.959,4.509,10.852,10.505,10.347a5.676,5.676,0,0,0,3.039-.985c2.907-2.246-.376-5.781-1.75-7.854-.956-1.441-2.3-3.376-2.414-5.164-.1-1.662.785-3.112.448-4.895A3.578,3.578,0,0,0,518.14,132.833Z" transform="translate(-484.341 -125.192)"/><path class="f" d="M533.4,142.984s-1.968,6.846,2.544,9.709c.136,1.661-4.594,8.741-9.347,7.535-2.769-.7-4.186-4.66-4.186-4.66A76.713,76.713,0,0,1,524.1,147.9Z" transform="translate(-481.713 -121.261)"/><g transform="translate(34.8 1.169)"><path class="f" d="M518.846,134.182a22.793,22.793,0,0,0-.766,7.7c.463,3.368.767,10.077,3.753,12.225s7.263-.346,10.1-2.751a16.831,16.831,0,0,0,5.9-12.211c.068-5.367-2.032-11.943-9.771-11.606S518.846,134.182,518.846,134.182Z" transform="translate(-517.976 -127.528)"/></g><path class="c" d="M522.973,131.084c-2,2.452-1.055,5.456,1.422,7.266,1.71,1.249,3.211,2.04,4.344,3.96a13,13,0,0,1,1.742,5.9c.086,1.713.1,3.4.186,5.106.039.79.086,1.871.931,2.09.993.257,2.973-.483,3.856-.987a14.105,14.105,0,0,0,3.713-3.2,14.736,14.736,0,0,0,3.493-8.831c.215-5.991-3.2-9.864-7.55-13.347C530.675,125.493,526.53,126.731,522.973,131.084Z" transform="translate(-481.886 -126.541)"/><path class="c" d="M522.23,128.19l.049-.033c1.509-1.016,7.646-2.919,7.675.211s-4.569,6.263-7,7.656a25.828,25.828,0,0,0-3.149,1.85c-1.265.985-1.372,2.859-2.489,3.71-1.7-1.636-1.266-5.668-.584-7.681C517.641,131.24,519.988,129.718,522.23,128.19Z" transform="translate(-483.783 -126.649)"/><path class="h" d="M523.412,148.931c3.164-.267,6.62-3.334,6.62-3.334s-.723,3.682-7.023,5Z" transform="translate(-481.516 -120.4)"/></g><path class="k" d="M591.561,287.032c-3.057,4.755-2.344,8.133-1.48,8.511,18.129,8.077,29.408,5.613,32.171,4.681-3-4.18-5.843-8.207-9.23-12.777C604.142,289.084,591.561,287.032,591.561,287.032Z" transform="translate(-209.257 -73.758)"/><g transform="translate(0 26.377)"><g class="l" transform="translate(129.801)"><g transform="translate(163.542 57.875)"><path class="m" d="M560.465,190.006,560.409,210l-36.3,21.094.057-19.993Z" transform="translate(-524.11 -190.006)"/></g><g transform="translate(0 57.881)"><path class="n" d="M437.718,211.1l-.057,19.994L401.125,210l.057-19.993Z" transform="translate(-401.125 -190.011)"/></g><g transform="translate(130.892 75.722)"><path class="m" d="M499.557,234.464l.057-19.993c.008-2.823,1.862-5.642,5.569-7.8,7.448-4.328,19.584-4.328,27.081,0l-.057,19.993c-7.5-4.328-19.633-4.328-27.081,0C501.42,228.821,499.565,231.642,499.557,234.464Z" transform="translate(-499.557 -203.428)"/></g><g transform="translate(36.535 75.721)"><path class="o" d="M461.4,214.579l-.057,19.993c.008-2.859-1.878-5.722-5.656-7.9-7.507-4.335-19.633-4.328-27.091.005l.057-19.993c7.457-4.335,19.584-4.34,27.09-.005C459.525,208.856,461.412,211.719,461.4,214.579Z" transform="translate(-428.6 -203.427)"/></g><g transform="translate(63.715 94.667)"><path class="n" d="M485.622,238.763l-.057,19.993-36.526-21.088.057-19.993Z" transform="translate(-449.039 -217.674)"/></g><g transform="translate(100.241 94.661)"><path class="m" d="M512.862,217.67l-.057,19.993-36.3,21.094.057-19.993Z" transform="translate(-476.507 -217.67)"/></g><g transform="translate(0.057)"><path class="p" d="M601.008,204.358l-36.3,21.094c-7.5-4.328-19.633-4.328-27.081,0s-7.419,11.364.077,15.693l-36.3,21.094-36.526-21.089c7.459-4.334,7.419-11.363-.089-15.7s-19.633-4.33-27.09.005l-36.536-21.094,99.6-57.881Z" transform="translate(-401.168 -146.484)"/></g></g><g class="l" transform="translate(0 75.438)"><g transform="translate(163.305 28.992)"><path class="m" d="M431.945,225.016l-.057,19.993c-.008,2.823-1.863,5.641-5.568,7.8l.057-19.994C430.082,230.657,431.937,227.839,431.945,225.016Z" transform="translate(-426.32 -225.016)"/></g><g transform="translate(163.542 57.874)"><path class="m" d="M462.844,246.736l-.057,19.994L426.5,287.818l.057-19.993Z" transform="translate(-426.499 -246.736)"/></g><g transform="translate(130.888 75.718)"><path class="q" d="M401.942,291.187,402,271.194c.008-2.82,1.86-5.636,5.565-7.788,7.457-4.334,19.593-4.334,27.09-.005l-.056,19.993c-7.5-4.328-19.633-4.328-27.091.005C403.8,285.551,401.95,288.368,401.942,291.187Z" transform="translate(-401.942 -260.154)"/></g><g transform="translate(100.241 94.655)"><path class="m" d="M415.251,274.4l-.057,19.994-36.3,21.094.057-19.993Z" transform="translate(-378.896 -274.395)"/></g><g transform="translate(0 57.875)"><path class="n" d="M403.811,304.611l-.057,19.993L303.514,266.73l.057-19.993Z" transform="translate(-303.514 -246.737)"/></g><g transform="translate(0.056)"><path class="p" d="M466.773,224.3c7.508,4.334,7.547,11.363.089,15.7l36.526,21.089L467.1,282.177c-7.5-4.328-19.633-4.328-27.09.005s-7.41,11.358.088,15.686l-36.3,21.1L303.556,261.09l99.589-57.876,36.537,21.094C447.14,219.973,459.266,219.968,466.773,224.3Z" transform="translate(-303.556 -203.214)"/></g></g><g class="l" transform="translate(260.452 75.431)"><g transform="translate(30.647 28.891)"><path class="m" d="M522.422,244.928l.057-19.993c-.008,2.856,1.876,5.717,5.652,7.9l-.057,19.993C524.3,250.645,522.414,247.785,522.422,244.928Z" transform="translate(-522.422 -224.935)"/></g><g transform="translate(0 57.881)"><path class="r" d="M535.968,267.83l-.057,19.993-36.536-21.094.057-19.993Z" transform="translate(-499.375 -246.736)"/></g><g transform="translate(36.535 75.724)"><path class="s" d="M559.656,271.3l-.057,19.994c.008-2.858-1.876-5.719-5.648-7.9-7.507-4.335-19.642-4.335-27.1,0l.057-19.993c7.459-4.335,19.594-4.335,27.1,0C557.779,265.582,559.664,268.443,559.656,271.3Z" transform="translate(-526.85 -260.154)"/></g><g transform="translate(63.715 94.667)"><path class="r" d="M583.882,295.493l-.057,19.993L547.29,294.392l.057-19.993Z" transform="translate(-547.29 -274.399)"/></g><g transform="translate(100.251 57.88)"><path class="m" d="M674.421,246.735l-.057,19.993-99.6,57.881.057-19.993Z" transform="translate(-574.765 -246.735)"/></g><g transform="translate(0.057)"><path class="p" d="M699.269,261.089l-99.6,57.881-36.536-21.094c7.459-4.334,7.419-11.364-.078-15.693s-19.642-4.334-27.1,0L499.418,261.09,535.717,240c-7.508-4.335-7.537-11.359-.08-15.693s19.574-4.334,27.082,0l36.3-21.094Z" transform="translate(-499.418 -203.209)"/></g></g><g class="l" transform="translate(130.65 150.87)"><g transform="translate(163.305 28.989)"><path class="n" d="M530.2,281.739l-.057,19.993c-.008,2.823-1.863,5.642-5.569,7.8l.057-19.993C528.333,287.381,530.188,284.562,530.2,281.739Z" transform="translate(-524.57 -281.739)"/></g><g transform="translate(30.643 28.883)"><path class="t" d="M424.807,301.652l.057-19.993c-.009,2.856,1.878,5.717,5.656,7.9l-.057,19.993C426.685,307.369,424.8,304.509,424.807,301.652Z" transform="translate(-424.807 -281.659)"/></g><g transform="translate(0 57.875)"><path class="u" d="M450.314,353.479s.979.336,3.283,1.3,7.274,1.291,10.368.8,7.363-1.186,6.541-2.318-16.417-5.032-17.073-4.723S450.314,353.479,450.314,353.479Z" transform="translate(-385.753 -288.601)"/><path class="n" d="M502.072,361.341l-.057,19.993-100.251-57.88.057-19.993Z" transform="translate(-401.764 -303.461)"/></g><g transform="translate(100.251 57.88)"><path class="m" d="M576.8,303.465l-.057,19.994-99.59,57.875.057-19.993Z" transform="translate(-477.153 -303.465)"/></g><g transform="translate(0.057)"><path class="p" d="M565.033,281.032c7.5,4.328,7.536,11.359.078,15.693l36.536,21.094-99.589,57.874-100.252-57.88,36.3-21.094c-7.507-4.334-7.546-11.352-.088-15.686s19.584-4.34,27.09-.005l36.29-21.089,36.536,21.094C545.39,276.7,557.525,276.7,565.033,281.032Z" transform="translate(-401.806 -259.939)"/></g></g></g><g transform="translate(184.512 162.995)"><g transform="translate(24.352 61.378)"><g class="l"><g transform="translate(0 6.424)"><path class="v" d="M482.888,300.281l-.005,2.08c-.005,1.642-1.084,3.282-3.238,4.533-4.336,2.52-11.4,2.52-15.774-.005-2.2-1.267-3.3-2.935-3.29-4.6l.007-2.081c-.005,1.664,1.092,3.33,3.289,4.6,4.375,2.525,11.437,2.525,15.775.005C481.806,303.562,482.884,301.923,482.888,300.281Z" transform="translate(-460.581 -300.21)"/></g><g transform="translate(0.006)"><path class="w" d="M479.59,297.269c4.374,2.527,4.4,6.617.06,9.138s-11.4,2.52-15.775-.005-4.388-6.612-.05-9.133S475.224,294.749,479.59,297.269Z" transform="translate(-460.586 -295.379)"/></g></g></g><path class="w" d="M504.075,249.467a2.547,2.547,0,0,0-2.57.25l-55.623,32.114a7.954,7.954,0,0,0-3.613,6.258l.088,41.579a2.53,2.53,0,0,0,1.054,2.316l3.6,2.09a2.529,2.529,0,0,1-1.055-2.316l-.088-41.579a7.954,7.954,0,0,1,3.613-6.258L505.1,251.807a2.548,2.548,0,0,1,2.57-.251Z" transform="translate(-442.268 -249.222)"/><path class="v" d="M504.209,251.289c1.995-1.152,3.621-.225,3.628,2.077l.088,41.579a7.949,7.949,0,0,1-3.605,6.243L448.7,333.3c-2,1.157-3.629.23-3.636-2.062l-.088-41.579a7.954,7.954,0,0,1,3.613-6.258Z" transform="translate(-441.376 -248.704)"/><line class="x" y1="0.008" transform="translate(6.15 40.941)"/><path class="y" d="M504.67,260.909l-.016-7.994-1.546.892-3.364,1.942L454.965,281.6l-8.07,4.66v2.692l.038,19.748.035,16.476,35.443-20.463,5.522-3.188,16.8-9.7Z" transform="translate(-440.742 -248.004)"/><path class="z" d="M454.947,281.6l-8,4.621.005,2.525,57.692-33.308-.005-2.525Z" transform="translate(-440.726 -248.005)"/><path class="z" d="M452.91,282.58a4.029,4.029,0,0,1-1.823,3.157c-1.007.581-1.822.11-1.822-1.052a4.028,4.028,0,0,1,1.822-3.157C452.093,280.947,452.91,281.417,452.91,282.58Z" transform="translate(-439.961 -238.651)"/><path class="aa" d="M452.91,287.4a4.029,4.029,0,0,1-1.823,3.157c-1.007.581-1.822.11-1.822-1.052a4.028,4.028,0,0,1,1.822-3.157C452.093,285.768,452.91,286.238,452.91,287.4Z" transform="translate(-439.961 -237.061)"/><path class="ab" d="M452.91,292.17a4.029,4.029,0,0,1-1.823,3.157c-1.007.581-1.822.11-1.822-1.052a4.028,4.028,0,0,1,1.822-3.157C452.093,290.537,452.91,291.007,452.91,292.17Z" transform="translate(-439.961 -235.488)"/><path class="aa" d="M452.473,307.974a2.889,2.889,0,0,1-1.307,2.265c-.722.418-1.309.08-1.309-.755a2.892,2.892,0,0,1,1.309-2.265C451.888,306.8,452.473,307.14,452.473,307.974Z" transform="translate(-439.765 -230.155)"/><g transform="translate(68.838 55.458)"><g transform="translate(0)"><path class="ac" d="M511.845,314.9l-17.81-10.283,23.711-13.69,17.81,10.283Z" transform="translate(-494.035 -290.927)"/></g><path class="ad" d="M507.428,313.135v-.786l23.712-13.69v.785Z" transform="translate(-489.617 -288.377)"/><path class="ad" d="M511.845,311.5v.786l-17.81-10.283v-.786Z" transform="translate(-494.034 -287.532)"/></g><g transform="translate(23.117 69.68)"><path class="ae" d="M459.652,318.334l0,1.531,17.391,10.107,0-1.531Z" transform="translate(-459.652 -296.111)"/><path class="v" d="M472.731,331.446l0,1.531,38.493-22.224,0-1.531Z" transform="translate(-455.34 -299.116)"/><path class="w" d="M459.652,323.846l17.391,10.107,38.493-22.224-17.391-10.106Z" transform="translate(-459.652 -301.622)"/><g transform="translate(2.684 1.173)"><g class="l" transform="translate(33.458)"><g transform="translate(0 1.371)"><path class="ae" d="M486.831,303.535l0,.765,2.406,1.4,0-.765Z" transform="translate(-486.831 -303.535)"/></g><g transform="translate(2.406 1.398)"><path class="v" d="M488.641,304.926l0,.765,2.374-1.37,0-.765Z" transform="translate(-488.641 -303.556)"/></g><path class="w" d="M486.831,303.875l2.406,1.4,2.374-1.371-2.406-1.4Z" transform="translate(-486.831 -302.504)"/></g><g class="l" transform="translate(30.412 1.758)"><g transform="translate(0 1.371)"><path class="ae" d="M484.541,304.857l0,.765,2.406,1.4,0-.766Z" transform="translate(-484.541 -304.857)"/></g><g transform="translate(2.406 1.398)"><path class="v" d="M486.351,306.248l0,.766,2.374-1.371,0-.765Z" transform="translate(-486.351 -304.878)"/></g><path class="w" d="M484.541,305.2l2.406,1.4,2.374-1.37-2.406-1.4Z" transform="translate(-484.541 -303.826)"/></g><g class="l" transform="translate(27.373 3.513)"><g transform="translate(0 1.371)"><path class="ae" d="M482.256,306.177l0,.765,2.406,1.4,0-.765Z" transform="translate(-482.256 -306.177)"/></g><g transform="translate(2.406 1.398)"><path class="v" d="M484.065,307.568l0,.765,2.374-1.371,0-.766Z" transform="translate(-484.065 -306.197)"/></g><path class="w" d="M482.256,306.517l2.406,1.4,2.374-1.371-2.406-1.4Z" transform="translate(-482.256 -305.146)"/></g><g class="l" transform="translate(24.333 5.268)"><g transform="translate(0 1.371)"><path class="ae" d="M479.97,307.5l0,.765,2.406,1.4,0-.765Z" transform="translate(-479.97 -307.496)"/></g><g transform="translate(2.406 1.398)"><path class="v" d="M481.779,308.888l0,.765,2.374-1.37,0-.766Z" transform="translate(-481.779 -307.517)"/></g><path class="w" d="M479.97,307.836l2.406,1.4,2.374-1.371-2.406-1.4Z" transform="translate(-479.97 -306.465)"/></g><g class="l" transform="translate(21.288 7.026)"><g transform="translate(0 1.371)"><path class="ae" d="M477.68,308.818l0,.765,2.406,1.4,0-.765Z" transform="translate(-477.68 -308.818)"/></g><g transform="translate(2.406 1.398)"><path class="v" d="M479.489,310.21l0,.765,2.374-1.371,0-.765Z" transform="translate(-479.489 -308.839)"/></g><path class="w" d="M477.68,309.158l2.406,1.4,2.374-1.371-2.406-1.4Z" transform="translate(-477.68 -307.788)"/></g><g class="l" transform="translate(18.248 8.781)"><g transform="translate(0 1.371)"><path class="ae" d="M475.394,310.138l0,.765,2.406,1.4,0-.765Z" transform="translate(-475.394 -310.138)"/></g><g transform="translate(2.406 1.399)"><path class="v" d="M477.2,311.529l0,.765,2.374-1.37,0-.765Z" transform="translate(-477.204 -310.159)"/></g><path class="w" d="M475.394,310.478l2.406,1.4,2.374-1.37-2.406-1.4Z" transform="translate(-475.394 -309.107)"/></g><g class="l" transform="translate(15.209 10.536)"><g transform="translate(0 1.371)"><path class="ae" d="M473.108,311.458l0,.765,2.406,1.4,0-.765Z" transform="translate(-473.108 -311.458)"/></g><g transform="translate(2.406 1.398)"><path class="v" d="M474.918,312.849l0,.765,2.374-1.371,0-.765Z" transform="translate(-474.918 -311.479)"/></g><path class="w" d="M473.108,311.8l2.406,1.4,2.374-1.371-2.406-1.4Z" transform="translate(-473.108 -310.427)"/></g><g class="l" transform="translate(12.164 12.291)"><g transform="translate(0 1.374)"><path class="ae" d="M470.818,312.78l0,.765,2.406,1.4,0-.766Z" transform="translate(-470.818 -312.78)"/></g><g transform="translate(2.406 1.398)"><path class="v" d="M472.628,314.172l0,.766,2.38-1.374,0-.766Z" transform="translate(-472.628 -312.798)"/></g><path class="w" d="M470.818,313.121l2.406,1.4,2.38-1.374-2.406-1.4Z" transform="translate(-470.818 -311.747)"/></g><g class="l" transform="translate(9.124 14.049)"><g transform="translate(0 1.371)"><path class="ae" d="M468.533,314.1l0,.765,2.406,1.4,0-.765Z" transform="translate(-468.533 -314.1)"/></g><g transform="translate(2.406 1.398)"><path class="v" d="M470.342,315.491l0,.765,2.374-1.37,0-.765Z" transform="translate(-470.342 -314.12)"/></g><path class="w" d="M468.533,314.439l2.406,1.4,2.374-1.371-2.406-1.4Z" transform="translate(-468.533 -313.069)"/></g><g class="l" transform="translate(6.085 15.804)"><g transform="translate(0 1.371)"><path class="ae" d="M466.247,315.419l0,.765,2.406,1.4,0-.765Z" transform="translate(-466.247 -315.419)"/></g><g transform="translate(2.406 1.398)"><path class="v" d="M468.057,316.811l0,.765,2.374-1.371,0-.766Z" transform="translate(-468.057 -315.44)"/></g><path class="w" d="M466.247,315.759l2.406,1.4,2.374-1.371-2.406-1.4Z" transform="translate(-466.247 -314.388)"/></g><g class="l" transform="translate(0 17.558)"><g transform="translate(0 3.129)"><path class="ae" d="M461.671,318.061l0,.766,2.406,1.4,0-.765Z" transform="translate(-461.671 -318.061)"/></g><g transform="translate(2.406 1.398)"><path class="v" d="M463.481,319.888l0,.765,5.42-3.129,0-.766Z" transform="translate(-463.481 -316.76)"/></g><path class="w" d="M461.671,318.837l2.406,1.4,5.419-3.129-2.406-1.4Z" transform="translate(-461.671 -315.708)"/></g><g class="l" transform="translate(33.479 1.783)"><g transform="translate(0 3.129)"><path class="ae" d="M486.848,306.2l0,.766,2.406,1.4,0-.766Z" transform="translate(-486.848 -306.197)"/></g><g transform="translate(2.406 1.398)"><path class="v" d="M488.657,308.025l0,.766,5.419-3.129,0-.766Z" transform="translate(-488.657 -304.896)"/></g><path class="w" d="M486.848,306.973l2.406,1.4,5.419-3.129-2.406-1.4Z" transform="translate(-486.848 -303.845)"/></g><g class="l" transform="translate(30.44 5.296)"><g transform="translate(0 1.371)"><path class="ae" d="M484.562,307.517l0,.766,2.406,1.4,0-.765Z" transform="translate(-484.562 -307.517)"/></g><g transform="translate(2.406 1.398)"><path class="v" d="M486.372,308.909l0,.765,2.374-1.371,0-.765Z" transform="translate(-486.372 -307.538)"/></g><path class="w" d="M484.562,307.857l2.406,1.4,2.374-1.371-2.406-1.4Z" transform="translate(-484.562 -306.486)"/></g><g class="l" transform="translate(27.401 7.05)"><g transform="translate(0 1.37)"><path class="ae" d="M482.277,308.837l0,.765,2.406,1.4,0-.765Z" transform="translate(-482.277 -308.837)"/></g><g transform="translate(2.406 1.398)"><path class="v" d="M484.086,310.228l0,.765,2.374-1.371,0-.765Z" transform="translate(-484.086 -308.858)"/></g><path class="w" d="M482.277,309.177l2.406,1.4,2.374-1.37-2.406-1.4Z" transform="translate(-482.277 -307.806)"/></g><g class="l" transform="translate(24.355 8.809)"><g transform="translate(0 1.371)"><path class="ae" d="M479.986,310.159l0,.765,2.406,1.4,0-.766Z" transform="translate(-479.986 -310.159)"/></g><g transform="translate(2.406 1.398)"><path class="v" d="M481.8,311.55l0,.766,2.374-1.371,0-.766Z" transform="translate(-481.796 -310.18)"/></g><path class="w" d="M479.986,310.5l2.406,1.4,2.374-1.371-2.406-1.4Z" transform="translate(-479.986 -309.128)"/></g><g class="l" transform="translate(21.316 10.563)"><g transform="translate(0 1.371)"><path class="ae" d="M477.7,311.479l0,.765,2.406,1.4,0-.766Z" transform="translate(-477.701 -311.479)"/></g><g transform="translate(2.406 1.398)"><path class="v" d="M479.51,312.87l0,.766,2.374-1.37,0-.766Z" transform="translate(-479.51 -311.499)"/></g><path class="w" d="M477.7,311.818l2.406,1.4,2.374-1.37-2.406-1.4Z" transform="translate(-477.701 -310.448)"/></g><g class="l" transform="translate(18.276 12.318)"><g transform="translate(0 1.37)"><path class="ae" d="M475.415,312.8l0,.766,2.406,1.4,0-.766Z" transform="translate(-475.415 -312.798)"/></g><g transform="translate(2.406 1.398)"><path class="v" d="M477.225,314.19l0,.766,2.374-1.371,0-.765Z" transform="translate(-477.225 -312.819)"/></g><path class="w" d="M475.415,313.138l2.406,1.4,2.374-1.371-2.406-1.4Z" transform="translate(-475.415 -311.767)"/></g><g class="l" transform="translate(15.231 14.073)"><g transform="translate(0 1.374)"><path class="ae" d="M473.125,314.12l0,.765,2.406,1.4,0-.765Z" transform="translate(-473.125 -314.12)"/></g><g transform="translate(2.406 1.398)"><path class="v" d="M474.934,315.513l0,.765,2.38-1.374,0-.765Z" transform="translate(-474.934 -314.139)"/></g><path class="w" d="M473.125,314.461l2.406,1.4,2.38-1.374-2.406-1.4Z" transform="translate(-473.125 -313.087)"/></g><g class="l" transform="translate(12.191 15.831)"><g transform="translate(0 1.371)"><path class="ae" d="M470.839,315.44l0,.765,2.406,1.4,0-.766Z" transform="translate(-470.839 -315.44)"/></g><g transform="translate(2.406 1.398)"><path class="v" d="M472.649,316.831l0,.766,2.374-1.371,0-.765Z" transform="translate(-472.649 -315.461)"/></g><path class="w" d="M470.839,315.78l2.406,1.4,2.374-1.37-2.406-1.4Z" transform="translate(-470.839 -314.409)"/></g><g class="l" transform="translate(9.152 17.586)"><g transform="translate(0 1.37)"><path class="ae" d="M468.554,316.76l0,.766,2.406,1.4,0-.766Z" transform="translate(-468.554 -316.76)"/></g><g transform="translate(2.406 1.398)"><path class="v" d="M470.363,318.151l0,.766,2.374-1.371,0-.766Z" transform="translate(-470.363 -316.78)"/></g><path class="w" d="M468.554,317.1l2.406,1.4,2.374-1.371-2.406-1.4Z" transform="translate(-468.554 -315.729)"/></g><g class="l" transform="translate(6.107 19.341)"><g transform="translate(0 1.374)"><path class="ae" d="M466.263,318.082l0,.765,2.406,1.4,0-.766Z" transform="translate(-466.263 -318.082)"/></g><g transform="translate(2.406 1.398)"><path class="v" d="M468.073,319.474l0,.766,2.38-1.374,0-.765Z" transform="translate(-468.073 -318.1)"/></g><path class="w" d="M466.263,318.423l2.406,1.4,2.38-1.374-2.406-1.4Z" transform="translate(-466.263 -317.049)"/></g><g class="l" transform="translate(3.067 21.099)"><g transform="translate(0 1.371)"><path class="ae" d="M463.978,319.4l0,.765,2.406,1.4,0-.765Z" transform="translate(-463.978 -319.401)"/></g><g transform="translate(2.406 1.398)"><path class="v" d="M465.787,320.793l0,.765,2.374-1.371,0-.765Z" transform="translate(-465.787 -319.422)"/></g><path class="w" d="M463.978,319.741l2.406,1.4,2.374-1.37-2.406-1.4Z" transform="translate(-463.978 -318.371)"/></g><g class="l" transform="translate(36.547 3.565)"><g transform="translate(0 3.129)"><path class="ae" d="M489.155,307.538l0,.765,2.406,1.4,0-.765Z" transform="translate(-489.155 -307.538)"/></g><g transform="translate(2.406 1.398)"><path class="v" d="M490.964,309.366l0,.765L496.385,307l0-.765Z" transform="translate(-490.964 -306.237)"/></g><path class="w" d="M489.155,308.314l2.406,1.4,5.419-3.129-2.406-1.4Z" transform="translate(-489.155 -305.185)"/></g><g class="l" transform="translate(33.507 7.078)"><g transform="translate(0 1.371)"><path class="ae" d="M486.869,308.858l0,.765,2.406,1.4,0-.765Z" transform="translate(-486.869 -308.858)"/></g><g transform="translate(2.406 1.398)"><path class="v" d="M488.678,310.249l0,.765,2.374-1.371,0-.766Z" transform="translate(-488.678 -308.878)"/></g><path class="w" d="M486.869,309.2l2.406,1.4,2.374-1.371-2.406-1.4Z" transform="translate(-486.869 -307.827)"/></g><g class="l" transform="translate(30.468 8.833)"><g transform="translate(0 1.371)"><path class="ae" d="M484.583,310.177l0,.765,2.406,1.4,0-.765Z" transform="translate(-484.583 -310.177)"/></g><g transform="translate(2.406 1.398)"><path class="v" d="M486.393,311.569l0,.765,2.374-1.37,0-.766Z" transform="translate(-486.393 -310.198)"/></g><path class="w" d="M484.583,310.517l2.406,1.4,2.374-1.371-2.406-1.4Z" transform="translate(-484.583 -309.146)"/></g><g class="l" transform="translate(27.422 10.591)"><g transform="translate(0 1.371)"><path class="ae" d="M482.293,311.5l0,.766,2.406,1.4,0-.765Z" transform="translate(-482.293 -311.499)"/></g><g transform="translate(2.406 1.398)"><path class="v" d="M484.1,312.891l0,.765,2.374-1.371,0-.765Z" transform="translate(-484.103 -311.52)"/></g><path class="w" d="M482.293,311.839l2.406,1.4,2.374-1.371-2.406-1.4Z" transform="translate(-482.293 -310.469)"/></g><g class="l" transform="translate(24.383 12.346)"><g transform="translate(0 1.37)"><path class="ae" d="M480.007,312.819l0,.765,2.406,1.4,0-.765Z" transform="translate(-480.007 -312.819)"/></g><g transform="translate(2.406 1.398)"><path class="v" d="M481.817,314.211l0,.765,2.374-1.371,0-.766Z" transform="translate(-481.817 -312.84)"/></g><path class="w" d="M480.007,313.159l2.406,1.4,2.374-1.371-2.406-1.4Z" transform="translate(-480.007 -311.788)"/></g><g class="l" transform="translate(21.344 14.101)"><g transform="translate(0 1.371)"><path class="ae" d="M477.722,314.139l0,.765,2.406,1.4,0-.765Z" transform="translate(-477.722 -314.139)"/></g><g transform="translate(2.406 1.398)"><path class="v" d="M479.531,315.53l0,.765,2.374-1.371,0-.765Z" transform="translate(-479.531 -314.159)"/></g><path class="w" d="M477.722,314.479l2.406,1.4,2.374-1.371-2.406-1.4Z" transform="translate(-477.722 -313.108)"/></g><g class="l" transform="translate(18.298 15.856)"><g transform="translate(0 1.374)"><path class="ae" d="M475.432,315.461l0,.765,2.406,1.4,0-.766Z" transform="translate(-475.432 -315.461)"/></g><g transform="translate(2.406 1.398)"><path class="v" d="M477.241,316.853l0,.766,2.38-1.374,0-.766Z" transform="translate(-477.241 -315.479)"/></g><path class="w" d="M475.432,315.8l2.406,1.4,2.38-1.374-2.406-1.4Z" transform="translate(-475.432 -314.427)"/></g><g class="l" transform="translate(15.259 17.614)"><g transform="translate(0 1.37)"><path class="ae" d="M473.146,316.78l0,.766,2.406,1.4,0-.766Z" transform="translate(-473.146 -316.78)"/></g><g transform="translate(2.406 1.398)"><path class="v" d="M474.955,318.172l0,.766,2.374-1.371,0-.765Z" transform="translate(-474.955 -316.801)"/></g><path class="w" d="M473.146,317.12l2.406,1.4,2.374-1.371-2.406-1.4Z" transform="translate(-473.146 -315.75)"/></g><g class="l" transform="translate(12.219 19.369)"><g transform="translate(0 1.371)"><path class="ae" d="M470.86,318.1l0,.765,2.406,1.4,0-.765Z" transform="translate(-470.86 -318.1)"/></g><g transform="translate(2.406 1.398)"><path class="v" d="M472.67,319.492l0,.765,2.374-1.371,0-.765Z" transform="translate(-472.67 -318.121)"/></g><path class="w" d="M470.86,318.44l2.406,1.4,2.374-1.371-2.406-1.4Z" transform="translate(-470.86 -317.069)"/></g><g class="l" transform="translate(6.135 21.123)"><g transform="translate(0 3.129)"><path class="ae" d="M466.284,320.742l0,.766,2.406,1.4,0-.766Z" transform="translate(-466.284 -320.742)"/></g><g transform="translate(2.406 1.398)"><path class="v" d="M468.094,322.569l0,.766,5.419-3.129,0-.765Z" transform="translate(-468.094 -319.441)"/></g><path class="w" d="M466.284,321.518l2.406,1.4,5.419-3.129-2.406-1.4Z" transform="translate(-466.284 -318.389)"/></g><g class="l" transform="translate(36.58 5.351)"><g transform="translate(0 4.884)"><path class="ae" d="M489.18,310.2l0,.765,2.406,1.4,0-.765Z" transform="translate(-489.18 -310.201)"/></g><g transform="translate(2.406 1.398)"><path class="v" d="M490.989,312.463l0,.765,8.459-4.884,0-.765Z" transform="translate(-490.989 -307.58)"/></g><path class="w" d="M489.18,311.412l2.406,1.4,8.459-4.884-2.406-1.4Z" transform="translate(-489.18 -306.528)"/></g><g class="l" transform="translate(33.541 10.619)"><g transform="translate(0 1.371)"><path class="ae" d="M486.894,311.52l0,.765,2.406,1.4,0-.766Z" transform="translate(-486.894 -311.52)"/></g><g transform="translate(2.406 1.398)"><path class="v" d="M488.7,312.911l0,.766,2.374-1.37,0-.766Z" transform="translate(-488.704 -311.541)"/></g><path class="w" d="M486.894,311.86l2.406,1.4,2.374-1.37-2.406-1.4Z" transform="translate(-486.894 -310.489)"/></g><g class="l" transform="translate(30.496 12.377)"><g transform="translate(0 1.371)"><path class="ae" d="M484.6,312.842l0,.766,2.406,1.4,0-.766Z" transform="translate(-484.604 -312.842)"/></g><g transform="translate(2.406 1.398)"><path class="v" d="M486.414,314.234l0,.766,2.374-1.371,0-.765Z" transform="translate(-486.414 -312.863)"/></g><path class="w" d="M484.6,313.182l2.406,1.4,2.374-1.37-2.406-1.4Z" transform="translate(-484.604 -311.812)"/></g><g class="l" transform="translate(27.457 14.132)"><g transform="translate(0 1.37)"><path class="ae" d="M482.319,314.162l0,.766,2.406,1.4,0-.766Z" transform="translate(-482.319 -314.162)"/></g><g transform="translate(2.406 1.398)"><path class="v" d="M484.128,315.553l0,.766,2.374-1.371,0-.765Z" transform="translate(-484.128 -314.183)"/></g><path class="w" d="M482.319,314.5l2.406,1.4,2.374-1.37-2.406-1.4Z" transform="translate(-482.319 -313.131)"/></g><g class="l" transform="translate(24.417 15.887)"><g transform="translate(0 1.371)"><path class="ae" d="M480.033,315.482l0,.766,2.406,1.4,0-.766Z" transform="translate(-480.033 -315.482)"/></g><g transform="translate(2.406 1.398)"><path class="v" d="M481.842,316.873l0,.766,2.374-1.371,0-.765Z" transform="translate(-481.842 -315.503)"/></g><path class="w" d="M480.033,315.822l2.406,1.4,2.374-1.37-2.406-1.4Z" transform="translate(-480.033 -314.451)"/></g><g class="l" transform="translate(21.372 17.641)"><g transform="translate(0 1.374)"><path class="ae" d="M477.743,316.8l0,.765,2.406,1.4,0-.766Z" transform="translate(-477.743 -316.804)"/></g><g transform="translate(2.406 1.399)"><path class="v" d="M479.552,318.2l0,.766,2.38-1.374,0-.765Z" transform="translate(-479.552 -316.822)"/></g><path class="w" d="M477.743,317.145l2.406,1.4,2.38-1.374-2.406-1.4Z" transform="translate(-477.743 -315.77)"/></g><g class="l" transform="translate(18.332 19.4)"><g transform="translate(0 1.37)"><path class="ae" d="M475.457,318.123l0,.766,2.406,1.4,0-.766Z" transform="translate(-475.457 -318.123)"/></g><g transform="translate(2.406 1.398)"><path class="v" d="M477.266,319.515l0,.766,2.374-1.371,0-.765Z" transform="translate(-477.266 -318.144)"/></g><path class="w" d="M475.457,318.463l2.406,1.4,2.374-1.371-2.406-1.4Z" transform="translate(-475.457 -317.093)"/></g><g class="l" transform="translate(15.293 21.155)"><g transform="translate(0 1.371)"><path class="ae" d="M473.171,319.443l0,.765,2.406,1.4,0-.765Z" transform="translate(-473.171 -319.443)"/></g><g transform="translate(2.406 1.398)"><path class="v" d="M474.981,320.835l0,.765,2.374-1.371,0-.765Z" transform="translate(-474.981 -319.464)"/></g><path class="w" d="M473.171,319.783l2.406,1.4,2.374-1.371-2.406-1.4Z" transform="translate(-473.171 -318.412)"/></g><g class="l" transform="translate(9.208 22.909)"><g transform="translate(0 3.129)"><path class="ae" d="M468.6,322.085l0,.765,2.406,1.4,0-.765Z" transform="translate(-468.596 -322.085)"/></g><g transform="translate(2.406 1.398)"><path class="v" d="M470.4,323.912l0,.765,5.419-3.129,0-.765Z" transform="translate(-470.405 -320.784)"/></g><path class="w" d="M468.6,322.861l2.406,1.4,5.419-3.129-2.406-1.4Z" transform="translate(-468.596 -319.732)"/></g><g class="l" transform="translate(45.733 7.134)"><g transform="translate(0 1.371)"><path class="ae" d="M496.062,308.9l0,.765,2.406,1.4,0-.765Z" transform="translate(-496.062 -308.899)"/></g><g transform="translate(2.406 1.398)"><path class="v" d="M497.872,310.291l0,.765,2.374-1.371,0-.765Z" transform="translate(-497.872 -308.92)"/></g><path class="w" d="M496.062,309.239l2.406,1.4,2.374-1.37-2.406-1.4Z" transform="translate(-496.062 -307.868)"/></g><g class="l" transform="translate(42.687 8.892)"><g transform="translate(0 1.37)"><path class="ae" d="M493.772,310.221l0,.766,2.406,1.4,0-.765Z" transform="translate(-493.772 -310.221)"/></g><g transform="translate(2.406 1.398)"><path class="v" d="M495.582,311.613l0,.765,2.374-1.371,0-.765Z" transform="translate(-495.582 -310.242)"/></g><path class="w" d="M493.772,310.561l2.406,1.4,2.374-1.37-2.406-1.4Z" transform="translate(-493.772 -309.191)"/></g><g class="l" transform="translate(39.648 10.646)"><g transform="translate(0 1.371)"><path class="ae" d="M491.487,311.541l0,.766,2.406,1.4,0-.765Z" transform="translate(-491.487 -311.541)"/></g><g transform="translate(2.406 1.398)"><path class="v" d="M493.3,312.933l0,.765,2.374-1.371,0-.765Z" transform="translate(-493.296 -311.562)"/></g><path class="w" d="M491.487,311.881l2.406,1.4,2.374-1.371-2.406-1.4Z" transform="translate(-491.487 -310.51)"/></g><g class="l" transform="translate(24.439 12.401)"><g transform="translate(0 8.397)"><path class="ae" d="M480.049,318.144l0,.765,2.406,1.4,0-.765Z" transform="translate(-480.049 -318.144)"/></g><g transform="translate(2.406 1.398)"><path class="v" d="M481.859,321.278l0,.765,14.544-8.4,0-.765Z" transform="translate(-481.859 -312.882)"/></g><path class="w" d="M480.049,320.227l2.406,1.4,14.543-8.4-2.406-1.4Z" transform="translate(-480.049 -311.83)"/></g><g class="l" transform="translate(21.4 21.182)"><g transform="translate(0 1.371)"><path class="ae" d="M477.764,319.464l0,.765,2.406,1.4,0-.765Z" transform="translate(-477.764 -319.464)"/></g><g transform="translate(2.406 1.398)"><path class="v" d="M479.573,320.855l0,.765,2.374-1.371,0-.765Z" transform="translate(-479.573 -319.485)"/></g><path class="w" d="M477.764,319.8l2.406,1.4,2.374-1.371-2.406-1.4Z" transform="translate(-477.764 -318.433)"/></g><g class="l" transform="translate(18.36 22.937)"><g transform="translate(0 1.371)"><path class="ae" d="M475.478,320.784l0,.765,2.406,1.4,0-.765Z" transform="translate(-475.478 -320.784)"/></g><g transform="translate(2.406 1.399)"><path class="v" d="M477.287,322.175l0,.765,2.374-1.371,0-.765Z" transform="translate(-477.287 -320.805)"/></g><path class="w" d="M475.478,321.124l2.406,1.4,2.374-1.37-2.406-1.4Z" transform="translate(-475.478 -319.753)"/></g><g class="l" transform="translate(12.275 24.692)"><g transform="translate(0 3.129)"><path class="ae" d="M470.9,323.425l0,.765,2.406,1.4,0-.765Z" transform="translate(-470.902 -323.425)"/></g><g transform="translate(2.406 1.398)"><path class="v" d="M472.712,325.253l0,.765,5.419-3.129,0-.766Z" transform="translate(-472.712 -322.124)"/></g><path class="w" d="M470.9,324.2l2.406,1.4,5.419-3.129-2.406-1.4Z" transform="translate(-470.902 -321.072)"/></g></g></g><g transform="translate(34.929 17.237)"><g transform="translate(12.437 6.719)"><path class="z" d="M477.888,273.307l.034,12.08,10.513-6.07-.034-12.08Z" transform="translate(-477.888 -267.237)"/></g><g class="l" transform="translate(2.385 14.19)"><g transform="translate(0.013 4.536)"><path class="w" d="M470.339,280.669v.479l7.624-4.4v-.479Z" transform="translate(-470.339 -276.267)"/></g><g transform="translate(0.009 3.025)"><path class="w" d="M470.335,279.532v.479l7.624-4.4,0-.479Z" transform="translate(-470.335 -275.13)"/></g><g transform="translate(0.004 1.511)"><path class="w" d="M470.332,278.394v.482l7.624-4.4,0-.482Z" transform="translate(-470.332 -273.992)"/></g><path class="w" d="M470.329,277.258v.479l7.624-4.4v-.479Z" transform="translate(-470.329 -272.856)"/></g><g transform="translate(2.407 21.751)"><path class="w" d="M470.345,282.943l0,.48,7.624-4.4v-.479Z" transform="translate(-470.345 -278.542)"/></g><g transform="translate(2.403 20.237)"><path class="w" d="M470.342,281.8v.482l7.624-4.4V277.4Z" transform="translate(-470.342 -277.403)"/></g><g transform="translate(4.344 23.262)"><path class="w" d="M471.8,282.964v.479l5.692-3.286v-.479Z" transform="translate(-471.801 -279.678)"/></g><g class="l"><g transform="translate(21.106 2.623)"><path class="ab" d="M484.769,264.209a.8.8,0,0,0-.362.628c0,.23.164.323.364.207a.8.8,0,0,0,.364-.629C485.134,264.182,484.971,264.092,484.769,264.209Z" transform="translate(-484.407 -264.158)"/></g><path class="w" d="M493.317,262.281c.386-.223.7-.044.7.4l.009,3.289c0-.407-.287-.57-.638-.367L469.18,279.577a1.4,1.4,0,0,0-.636,1.1l-.009-3.289a1.533,1.533,0,0,1,.694-1.2Zm-1.843,2.565a.8.8,0,0,0,.364-.628c0-.233-.164-.324-.367-.207a.8.8,0,0,0-.362.628c0,.23.165.323.364.207m-1.468.848a.8.8,0,0,0,.364-.629c0-.233-.165-.323-.367-.206a.8.8,0,0,0-.362.628c0,.23.164.323.364.207m2.938-1.7a.8.8,0,0,0,.362-.628c0-.233-.162-.324-.364-.207a.8.8,0,0,0-.363.626c0,.23.165.324.366.209" transform="translate(-468.535 -262.185)"/><g transform="translate(0.009 3.329)"><path class="af" d="M493.385,264.776c.351-.2.637-.04.638.367l.045,15.814a1.4,1.4,0,0,1-.634,1.1l-24.207,13.976c-.352.2-.638.037-.64-.366l-.045-15.815a1.4,1.4,0,0,1,.636-1.1ZM481,286.228l10.513-6.069-.035-12.081-10.513,6.07.035,12.08m-10.068.253,7.624-4.4V281.6l-7.624,4.4v.483m-.013-4.536,7.625-4.4v-.481l-7.625,4.4v.483m0,1.511,7.625-4.4v-.48l-7.625,4.4v.479m-.008-3.025,7.624-4.4v-.479l-7.625,4.4v.479m.021,7.561,7.624-4.4v-.479l-7.624,4.4v.479m-.008-3.024,7.624-4.4v-.479l-7.624,4.4v.48m1.944,3.42,5.693-3.286v-.48l-5.693,3.286v.48" transform="translate(-468.542 -264.688)"/></g></g><g transform="translate(24.042 0.928)"><path class="aa" d="M486.978,262.934a.8.8,0,0,0-.363.626c0,.23.165.324.366.209a.8.8,0,0,0,.362-.628C487.342,262.908,487.18,262.817,486.978,262.934Z" transform="translate(-486.615 -262.883)"/></g><g transform="translate(22.574 1.775)"><path class="z" d="M485.873,263.571a.8.8,0,0,0-.362.628c0,.23.165.323.364.207a.793.793,0,0,0,.364-.628C486.24,263.545,486.076,263.454,485.873,263.571Z" transform="translate(-485.511 -263.52)"/></g></g><g transform="translate(82.214 61.311)"><path class="v" d="M517.793,301.309c.021.106-.064.192-.126.255-.064.043-4.917,2.8-4.917,2.8l-.827-.531c1.356-.763,4.176-2.31,5.807-3.221A3.869,3.869,0,0,1,517.793,301.309Z" transform="translate(-501.511 -293.586)"/><path class="ag" d="M520.221,302.353c-1.632.911-4.451,2.457-5.807,3.221l-10.046-6.4q1.3-.732,2.608-1.463c1.653-.911,3.433-2.12,5.319-2.352a7.878,7.878,0,0,1,7.927,6.995Z" transform="translate(-504.003 -295.328)"/><path class="ae" d="M515.014,305.351a.348.348,0,0,0,.511-.319,6.979,6.979,0,0,0-4.047-6.3c-1.165-.662-4.69-2.076-7.253-.157a.343.343,0,0,0,.032.564C508.133,301.434,513.36,304.41,515.014,305.351Z" transform="translate(-504.093 -294.576)"/></g></g><g transform="translate(51.391 90.263)"><path class="v" d="M407.529,247.179l-1.706.992a1.2,1.2,0,0,0,.5-1.1l1.706-.992A1.2,1.2,0,0,1,407.529,247.179Z" transform="translate(-321.166 -177.526)"/><g transform="translate(35.532)"><path class="v" d="M369.327,195.634l1.706-.992a1.212,1.212,0,0,1,1.222.122l-1.706.991A1.215,1.215,0,0,0,369.327,195.634Z" transform="translate(-368.733 -194.527)"/><g transform="translate(0 0.237)"><path class="v" d="M406.294,217.98l1.706-.992-.1,38.684-1.707.992Z" transform="translate(-356.573 -187.356)"/><path class="v" d="M370.246,195.7l1.706-.992,46.194,26.671-1.706.991Z" transform="translate(-368.43 -194.705)"/><path class="v" d="M404.985,215.753l1.706-.992a3.772,3.772,0,0,1,1.71,2.961l-1.706.992A3.772,3.772,0,0,0,404.985,215.753Z" transform="translate(-356.974 -188.091)"/><path class="ad" d="M416.892,222.18a3.772,3.772,0,0,1,1.71,2.961l-.1,38.684c0,1.092-.779,1.525-1.722.981L370.59,238.136a3.754,3.754,0,0,1-1.71-2.961l.1-38.684c0-1.092.77-1.529,1.721-.981Z" transform="translate(-368.88 -194.517)"/><path class="y" d="M370.259,198.375l-.085,34.847,46.194,26.671.085-34.847Z" transform="translate(-368.453 -193.494)"/></g></g><g transform="translate(0 43.446)"><path class="ah" d="M405.614,248.313l-.007,1.973a1.2,1.2,0,0,1-.7.984l.007-1.975A1.2,1.2,0,0,0,405.614,248.313Z" transform="translate(-321.467 -220.235)"/><path class="ah" d="M380.862,263.487l-.005,1.973a3.783,3.783,0,0,1-3.422,0l.007-1.973A3.78,3.78,0,0,0,380.862,263.487Z" transform="translate(-330.527 -215.231)"/><path class="ah" d="M342.16,244.654l.007-1.973a1.207,1.207,0,0,0,.713,1l-.005,1.973A1.209,1.209,0,0,1,342.16,244.654Z" transform="translate(-342.16 -222.092)"/><path class="ah" d="M413.126,249.052l-.006,1.974-33.113,19.2.005-1.974Z" transform="translate(-329.679 -219.991)"/><path class="ah" d="M388.9,270.1l-.006,1.974L342.7,245.4l.006-1.974Z" transform="translate(-341.983 -221.845)"/><path class="v" d="M425.594,254.279a1.048,1.048,0,0,1,.012,1.98l-33.113,19.2a3.78,3.78,0,0,1-3.42,0l-46.2-26.67a1.047,1.047,0,0,1-.011-1.981l33.113-19.2a3.776,3.776,0,0,1,3.42,0Z" transform="translate(-342.159 -227.198)"/><g transform="translate(18.079 22.044)"><g class="l"><path class="w" d="M383.636,253.811l-17.026-9.83a1.878,1.878,0,0,0-1.71,0l-8.8,5.064a.525.525,0,0,0,.005.991l17.026,9.83a1.878,1.878,0,0,0,1.71,0l8.8-5.064c.476-.277.475-.714-.005-.991" transform="translate(-355.755 -243.775)"/></g></g><g transform="translate(15.752 1.657)"><g class="l" transform="translate(15.825)"><g transform="translate(3.061 1.767)"><path class="ad" d="M371.319,229.773l0,.493-3.11,1.807v-.493Z" transform="translate(-368.208 -229.773)"/></g><g transform="translate(0 1.807)"><path class="ad" d="M368.968,231.57v.493l-3.061-1.767V229.8Z" transform="translate(-365.906 -229.803)"/></g><g transform="translate(0.001)"><path class="ac" d="M372.078,230.211l-3.11,1.807-3.06-1.767,3.11-1.807Z" transform="translate(-365.907 -228.444)"/></g></g><g class="l" transform="translate(19.744 2.262)"><g transform="translate(3.068 1.771)"><path class="ad" d="M374.272,231.478l0,.493-3.11,1.807v-.494Z" transform="translate(-371.16 -231.478)"/></g><g transform="translate(0 1.807)"><path class="ad" d="M371.923,233.276v.494L368.853,232V231.5Z" transform="translate(-368.853 -231.505)"/></g><g transform="translate(0.001)"><path class="ac" d="M375.032,231.917l-3.11,1.807-3.068-1.771,3.11-1.807Z" transform="translate(-368.854 -230.146)"/></g></g><g class="l" transform="translate(23.67 4.529)"><g transform="translate(3.06 1.767)"><path class="ad" d="M377.218,233.179v.493l-3.11,1.807v-.493Z" transform="translate(-374.107 -233.179)"/></g><g transform="translate(0 1.807)"><path class="ad" d="M374.867,234.976v.493l-3.06-1.767v-.493Z" transform="translate(-371.806 -233.209)"/></g><g transform="translate(0.001)"><path class="ac" d="M377.977,233.617l-3.11,1.807-3.06-1.767,3.11-1.807Z" transform="translate(-371.807 -231.85)"/></g></g><g class="l" transform="translate(27.588 6.791)"><g transform="translate(3.061 1.767)"><path class="ad" d="M380.165,234.88v.493l-3.11,1.807v-.493Z" transform="translate(-377.054 -234.88)"/></g><g transform="translate(0 1.807)"><path class="ad" d="M377.814,236.678v.493l-3.061-1.767v-.494Z" transform="translate(-374.752 -234.91)"/></g><g transform="translate(0.001)"><path class="ac" d="M380.924,235.318l-3.11,1.807-3.061-1.767,3.11-1.807Z" transform="translate(-374.753 -233.551)"/></g></g><g class="l" transform="translate(31.507 9.054)"><g transform="translate(3.061 1.767)"><path class="ad" d="M383.112,236.582v.493L380,238.882v-.494Z" transform="translate(-380.001 -236.582)"/></g><g transform="translate(0 1.807)"><path class="ad" d="M380.761,238.379v.494l-3.061-1.767,0-.493Z" transform="translate(-377.699 -236.612)"/></g><g transform="translate(0.002)"><path class="ac" d="M383.87,237.02l-3.11,1.807-3.06-1.767,3.11-1.807Z" transform="translate(-377.7 -235.253)"/></g></g><g class="l" transform="translate(35.433 11.321)"><g transform="translate(3.061 1.767)"><path class="ad" d="M386.064,238.286v.493l-3.11,1.807v-.493Z" transform="translate(-382.953 -238.286)"/></g><g transform="translate(0 1.807)"><path class="ad" d="M383.713,240.083v.493l-3.061-1.767,0-.493Z" transform="translate(-380.651 -238.316)"/></g><g transform="translate(0.002)"><path class="ac" d="M386.823,238.724l-3.11,1.807-3.06-1.767,3.11-1.807Z" transform="translate(-380.653 -236.957)"/></g></g><g class="l" transform="translate(39.351 13.583)"><g transform="translate(3.06 1.767)"><path class="ad" d="M389.011,239.987v.493l-3.11,1.807v-.493Z" transform="translate(-385.9 -239.987)"/></g><g transform="translate(0 1.807)"><path class="ad" d="M386.66,241.785v.493l-3.06-1.767v-.494Z" transform="translate(-383.598 -240.018)"/></g><g transform="translate(0.001)"><path class="ac" d="M389.77,240.426l-3.11,1.807-3.061-1.767,3.11-1.807Z" transform="translate(-383.599 -238.659)"/></g></g><g class="l" transform="translate(43.27 15.845)"><g transform="translate(3.061 1.767)"><path class="ad" d="M391.958,241.689v.493l-3.11,1.807V243.5Z" transform="translate(-388.846 -241.689)"/></g><g transform="translate(0 1.807)"><path class="ad" d="M389.607,243.486v.494l-3.061-1.767v-.493Z" transform="translate(-386.545 -241.719)"/></g><g transform="translate(0.001)"><path class="ac" d="M392.716,242.127l-3.11,1.807-3.06-1.767,3.11-1.807Z" transform="translate(-386.546 -240.36)"/></g></g><g class="l" transform="translate(47.188 18.108)"><g transform="translate(3.068 1.772)"><path class="ad" d="M394.91,243.393v.493l-3.11,1.807V245.2Z" transform="translate(-391.799 -243.393)"/></g><g transform="translate(0 1.807)"><path class="ad" d="M392.561,245.192v.493l-3.068-1.771v-.493Z" transform="translate(-389.492 -243.42)"/></g><g transform="translate(0.001)"><path class="ac" d="M395.671,243.833l-3.11,1.807-3.068-1.771,3.11-1.807Z" transform="translate(-389.493 -242.061)"/></g></g><g class="l" transform="translate(51.114 20.374)"><g transform="translate(3.06 1.767)"><path class="ad" d="M397.857,245.095v.493l-3.11,1.807V246.9Z" transform="translate(-394.746 -245.095)"/></g><g transform="translate(0 1.807)"><path class="ad" d="M395.506,246.892v.493l-3.061-1.767v-.494Z" transform="translate(-392.444 -245.125)"/></g><g transform="translate(0.001)"><path class="ac" d="M398.616,245.533l-3.11,1.807-3.061-1.767,3.11-1.807Z" transform="translate(-392.445 -243.766)"/></g></g><g class="l" transform="translate(55.033 22.637)"><g transform="translate(6.987 4.034)"><path class="ad" d="M403.756,248.5v.493l-3.11,1.807v-.493Z" transform="translate(-400.645 -248.501)"/></g><g transform="translate(0 1.807)"><path class="ad" d="M402.379,250.86v.493l-6.987-4.034v-.493Z" transform="translate(-395.391 -246.826)"/></g><g transform="translate(0.001)"><path class="ac" d="M405.488,249.5l-3.11,1.807-6.987-4.034,3.11-1.807Z" transform="translate(-395.392 -245.467)"/></g></g><g class="l" transform="translate(11.871 2.303)"><g transform="translate(6.987 4.034)"><path class="ad" d="M371.29,233.209v.493l-3.1,1.8v-.493Z" transform="translate(-368.187 -233.209)"/></g><g transform="translate(0 1.803)"><path class="ad" d="M369.921,235.565v.493l-6.987-4.034v-.493Z" transform="translate(-362.933 -231.531)"/></g><g transform="translate(0.001)"><path class="ac" d="M373.023,234.21l-3.1,1.8-6.987-4.034,3.1-1.8Z" transform="translate(-362.934 -230.176)"/></g></g><g class="l" transform="translate(19.715 6.832)"><g transform="translate(3.061 1.767)"><path class="ad" d="M374.237,234.911v.493l-3.1,1.8v-.493Z" transform="translate(-371.133 -234.911)"/></g><g transform="translate(0 1.803)"><path class="ad" d="M371.894,236.7v.493l-3.061-1.767,0-.493Z" transform="translate(-368.832 -234.937)"/></g><g transform="translate(0.002)"><path class="ac" d="M375,235.349l-3.1,1.8-3.061-1.767,3.1-1.8Z" transform="translate(-368.833 -233.582)"/></g></g><g class="l" transform="translate(23.634 9.094)"><g transform="translate(3.06 1.767)"><path class="ad" d="M377.184,236.612v.493l-3.1,1.8v-.493Z" transform="translate(-374.08 -236.612)"/></g><g transform="translate(0 1.803)"><path class="ad" d="M374.84,238.406v.493l-3.06-1.767v-.493Z" transform="translate(-371.779 -236.639)"/></g><g transform="translate(0.001)"><path class="ac" d="M377.942,237.05l-3.1,1.8-3.061-1.767,3.1-1.8Z" transform="translate(-371.78 -235.283)"/></g></g><g class="l" transform="translate(27.552 11.356)"><g transform="translate(3.061 1.767)"><path class="ad" d="M380.13,238.313v.493l-3.1,1.8v-.493Z" transform="translate(-377.027 -238.313)"/></g><g transform="translate(0 1.803)"><path class="ad" d="M377.787,240.107v.493l-3.061-1.767v-.493Z" transform="translate(-374.725 -238.34)"/></g><g transform="translate(0.001)"><path class="ac" d="M380.889,238.751l-3.1,1.8-3.061-1.767,3.1-1.8Z" transform="translate(-374.726 -236.984)"/></g></g><g class="l" transform="translate(31.478 13.623)"><g transform="translate(3.061 1.767)"><path class="ad" d="M383.083,240.018v.493l-3.1,1.8v-.493Z" transform="translate(-379.979 -240.018)"/></g><g transform="translate(0 1.803)"><path class="ad" d="M380.74,241.812v.493l-3.061-1.767,0-.493Z" transform="translate(-377.678 -240.044)"/></g><g transform="translate(0.002)"><path class="ac" d="M383.842,240.456l-3.1,1.8-3.061-1.767,3.1-1.8Z" transform="translate(-377.679 -238.689)"/></g></g><g class="l" transform="translate(35.397 15.885)"><g transform="translate(3.061 1.767)"><path class="ad" d="M386.029,241.719v.493l-3.1,1.8v-.493Z" transform="translate(-382.926 -241.719)"/></g><g transform="translate(0 1.803)"><path class="ad" d="M383.686,243.513v.493l-3.061-1.767v-.493Z" transform="translate(-380.624 -241.746)"/></g><g transform="translate(0.001)"><path class="ac" d="M386.788,242.157l-3.1,1.8-3.061-1.767,3.1-1.8Z" transform="translate(-380.625 -240.39)"/></g></g><g class="l" transform="translate(39.315 18.148)"><g transform="translate(3.06 1.767)"><path class="ad" d="M388.976,243.42v.493l-3.1,1.8v-.493Z" transform="translate(-385.873 -243.42)"/></g><g transform="translate(0 1.803)"><path class="ad" d="M386.633,245.214v.493l-3.061-1.767v-.493Z" transform="translate(-383.571 -243.447)"/></g><g transform="translate(0.001)"><path class="ac" d="M389.735,243.859l-3.1,1.8-3.061-1.767,3.1-1.8Z" transform="translate(-383.572 -242.091)"/></g></g><g class="l" transform="translate(43.234 20.41)"><g transform="translate(3.068 1.771)"><path class="ad" d="M391.929,245.125v.494l-3.1,1.8v-.493Z" transform="translate(-388.825 -245.125)"/></g><g transform="translate(0 1.803)"><path class="ad" d="M389.588,246.92v.493l-3.068-1.772v-.493Z" transform="translate(-386.518 -245.148)"/></g><g transform="translate(0.001)"><path class="ac" d="M392.689,245.564l-3.1,1.8-3.068-1.772,3.1-1.8Z" transform="translate(-386.519 -243.793)"/></g></g><g class="l" transform="translate(47.16 22.677)"><g transform="translate(3.061 1.767)"><path class="ad" d="M394.875,246.826v.493l-3.1,1.8v-.493Z" transform="translate(-391.772 -246.826)"/></g><g transform="translate(0 1.803)"><path class="ad" d="M392.532,248.62v.493l-3.061-1.767v-.493Z" transform="translate(-389.47 -246.853)"/></g><g transform="translate(0.001)"><path class="ac" d="M395.634,247.264l-3.1,1.8-3.06-1.767,3.1-1.8Z" transform="translate(-389.471 -245.497)"/></g></g><g class="l" transform="translate(51.079 24.939)"><g transform="translate(3.06 1.767)"><path class="ad" d="M397.822,248.528l0,.493-3.1,1.8,0-.493Z" transform="translate(-394.719 -248.528)"/></g><g transform="translate(0 1.803)"><path class="ad" d="M395.479,250.321l0,.493-3.06-1.767v-.493Z" transform="translate(-392.417 -248.554)"/></g><g transform="translate(0.001)"><path class="ac" d="M398.581,248.966l-3.1,1.8L392.418,249l3.1-1.8Z" transform="translate(-392.418 -247.199)"/></g></g><g class="l" transform="translate(54.997 27.201)"><g transform="translate(3.068 1.771)"><path class="ad" d="M400.775,250.232l0,.494-3.1,1.8v-.493Z" transform="translate(-397.671 -250.232)"/></g><g transform="translate(0 1.803)"><path class="ad" d="M398.434,252.027v.493l-3.068-1.772v-.493Z" transform="translate(-395.364 -250.256)"/></g><g transform="translate(0.001)"><path class="ac" d="M401.535,250.671l-3.1,1.8-3.068-1.772,3.1-1.8Z" transform="translate(-395.365 -248.9)"/></g></g><g class="l" transform="translate(7.916 4.601)"><g transform="translate(6.987 4.034)"><path class="ad" d="M368.316,234.937v.493l-3.1,1.8v-.493Z" transform="translate(-365.213 -234.937)"/></g><g transform="translate(0 1.803)"><path class="ad" d="M366.947,237.293v.493l-6.987-4.034v-.493Z" transform="translate(-359.959 -233.26)"/></g><g transform="translate(0.001)"><path class="ac" d="M370.049,235.938l-3.1,1.8-6.987-4.034,3.1-1.8Z" transform="translate(-359.96 -231.904)"/></g></g><g class="l" transform="translate(15.761 9.13)"><g transform="translate(3.06 1.767)"><path class="ad" d="M371.263,236.639v.493l-3.1,1.8v-.493Z" transform="translate(-368.16 -236.639)"/></g><g transform="translate(0 1.803)"><path class="ad" d="M368.92,238.433v.493l-3.06-1.767v-.493Z" transform="translate(-365.858 -236.665)"/></g><g transform="translate(0.001)"><path class="ac" d="M372.022,237.077l-3.1,1.8-3.061-1.767,3.1-1.8Z" transform="translate(-365.859 -235.31)"/></g></g><g class="l" transform="translate(19.679 11.392)"><g transform="translate(3.061 1.767)"><path class="ad" d="M374.21,238.34v.493l-3.1,1.8v-.493Z" transform="translate(-371.106 -238.34)"/></g><g transform="translate(0 1.803)"><path class="ad" d="M371.867,240.134v.493L368.8,238.86v-.493Z" transform="translate(-368.805 -238.367)"/></g><g transform="translate(0.001)"><path class="ac" d="M374.968,238.778l-3.1,1.8-3.06-1.767,3.1-1.8Z" transform="translate(-368.806 -237.011)"/></g></g><g class="l" transform="translate(23.598 13.654)"><g transform="translate(3.06 1.767)"><path class="ad" d="M377.157,240.041v.494l-3.1,1.8v-.493Z" transform="translate(-374.053 -240.041)"/></g><g transform="translate(0 1.803)"><path class="ad" d="M374.813,241.835v.493l-3.06-1.767v-.493Z" transform="translate(-371.751 -240.068)"/></g><g transform="translate(0.001)"><path class="ac" d="M377.915,240.479l-3.1,1.8-3.061-1.767,3.1-1.8Z" transform="translate(-371.753 -238.712)"/></g></g><g class="l" transform="translate(27.524 15.921)"><g transform="translate(3.06 1.767)"><path class="ad" d="M380.109,241.746v.493l-3.1,1.8v-.493Z" transform="translate(-377.006 -241.746)"/></g><g transform="translate(0 1.803)"><path class="ad" d="M377.766,243.54v.493l-3.06-1.767v-.493Z" transform="translate(-374.704 -241.773)"/></g><g transform="translate(0.001)"><path class="ac" d="M380.868,242.184l-3.1,1.8-3.06-1.767,3.1-1.8Z" transform="translate(-374.705 -240.417)"/></g></g><g class="l" transform="translate(31.442 18.183)"><g transform="translate(3.061 1.767)"><path class="ad" d="M383.056,243.447l0,.493-3.1,1.8v-.493Z" transform="translate(-379.952 -243.447)"/></g><g transform="translate(0 1.803)"><path class="ad" d="M380.713,245.241v.493l-3.061-1.767v-.493Z" transform="translate(-377.651 -243.474)"/></g><g transform="translate(0.001)"><path class="ac" d="M383.815,243.886l-3.1,1.8-3.061-1.767,3.1-1.8Z" transform="translate(-377.652 -242.118)"/></g></g><g class="l" transform="translate(35.361 20.446)"><g transform="translate(3.061 1.767)"><path class="ad" d="M386,245.148v.493l-3.1,1.8v-.493Z" transform="translate(-382.899 -245.148)"/></g><g transform="translate(0 1.803)"><path class="ad" d="M383.659,246.942v.493l-3.061-1.767v-.493Z" transform="translate(-380.597 -245.175)"/></g><g transform="translate(0.001)"><path class="ac" d="M386.761,245.586l-3.1,1.8-3.06-1.767,3.1-1.8Z" transform="translate(-380.599 -243.82)"/></g></g><g class="l" transform="translate(39.279 22.708)"><g transform="translate(3.068 1.771)"><path class="ad" d="M388.955,246.853v.493l-3.1,1.8v-.493Z" transform="translate(-385.852 -246.853)"/></g><g transform="translate(0 1.803)"><path class="ad" d="M386.614,248.648v.493l-3.068-1.772v-.493Z" transform="translate(-383.544 -246.877)"/></g><g transform="translate(0.001)"><path class="ac" d="M389.716,247.292l-3.1,1.8-3.068-1.771,3.1-1.8Z" transform="translate(-383.545 -245.521)"/></g></g><g class="l" transform="translate(43.206 24.975)"><g transform="translate(3.06 1.767)"><path class="ad" d="M391.9,248.554v.493l-3.1,1.8v-.493Z" transform="translate(-388.798 -248.554)"/></g><g transform="translate(0 1.803)"><path class="ad" d="M389.559,250.348v.493l-3.06-1.767v-.493Z" transform="translate(-386.497 -248.581)"/></g><g transform="translate(0.001)"><path class="ac" d="M392.66,248.993l-3.1,1.8-3.061-1.767,3.1-1.8Z" transform="translate(-386.498 -247.225)"/></g></g><g class="l" transform="translate(47.124 27.237)"><g transform="translate(6.987 4.034)"><path class="ad" d="M397.8,251.96v.493l-3.1,1.8v-.493Z" transform="translate(-394.697 -251.96)"/></g><g transform="translate(0 1.803)"><path class="ad" d="M396.431,254.316v.493l-6.987-4.034v-.493Z" transform="translate(-389.443 -250.282)"/></g><g transform="translate(0.001)"><path class="ac" d="M399.533,252.961l-3.1,1.8-6.987-4.034,3.1-1.8Z" transform="translate(-389.444 -248.927)"/></g></g><g class="l" transform="translate(3.962 6.899)"><g transform="translate(10.905 6.296)"><path class="ad" d="M368.289,238.367v.493l-3.1,1.8v-.493Z" transform="translate(-365.186 -238.367)"/></g><g transform="translate(0 1.803)"><path class="ad" d="M367.892,241.284v.493l-10.905-6.3v-.493Z" transform="translate(-356.985 -234.988)"/></g><g transform="translate(0.002)"><path class="ac" d="M370.993,239.928l-3.1,1.8-10.905-6.3,3.1-1.8Z" transform="translate(-356.986 -233.632)"/></g></g><g class="l" transform="translate(15.725 13.69)"><g transform="translate(3.06 1.767)"><path class="ad" d="M371.236,240.068l0,.493-3.1,1.8,0-.494Z" transform="translate(-368.133 -240.068)"/></g><g transform="translate(0 1.803)"><path class="ad" d="M368.893,241.862l0,.494-3.06-1.767v-.493Z" transform="translate(-365.831 -240.095)"/></g><g transform="translate(0.001)"><path class="ac" d="M371.995,240.506l-3.1,1.8-3.061-1.767,3.1-1.8Z" transform="translate(-365.832 -238.739)"/></g></g><g class="l" transform="translate(19.643 15.953)"><g transform="translate(3.061 1.767)"><path class="ad" d="M374.183,241.769v.493l-3.1,1.8v-.493Z" transform="translate(-371.079 -241.769)"/></g><g transform="translate(0 1.803)"><path class="ad" d="M371.84,243.563v.493l-3.061-1.767V241.8Z" transform="translate(-368.778 -241.796)"/></g><g transform="translate(0.001)"><path class="ac" d="M374.941,242.208l-3.1,1.8-3.06-1.767,3.1-1.8Z" transform="translate(-368.779 -240.441)"/></g></g><g class="l" transform="translate(23.57 18.219)"><g transform="translate(3.06 1.767)"><path class="ad" d="M377.135,243.474v.493l-3.1,1.8v-.493Z" transform="translate(-374.032 -243.474)"/></g><g transform="translate(0 1.803)"><path class="ad" d="M374.792,245.268v.493l-3.061-1.767V243.5Z" transform="translate(-371.73 -243.501)"/></g><g transform="translate(0.001)"><path class="ac" d="M377.894,243.912l-3.1,1.8-3.061-1.767,3.1-1.8Z" transform="translate(-371.731 -242.145)"/></g></g><g class="l" transform="translate(27.488 20.482)"><g transform="translate(3.061 1.767)"><path class="ad" d="M380.082,245.175v.493l-3.1,1.8v-.494Z" transform="translate(-376.979 -245.175)"/></g><g transform="translate(0 1.803)"><path class="ad" d="M377.739,246.969v.494l-3.061-1.767V245.2Z" transform="translate(-374.677 -245.202)"/></g><g transform="translate(0.001)"><path class="ac" d="M380.841,245.613l-3.1,1.8-3.06-1.767,3.1-1.8Z" transform="translate(-374.678 -243.847)"/></g></g><g class="l" transform="translate(31.406 22.744)"><g transform="translate(3.061 1.767)"><path class="ad" d="M383.029,246.877v.493l-3.1,1.8v-.493Z" transform="translate(-379.925 -246.877)"/></g><g transform="translate(0 1.803)"><path class="ad" d="M380.686,248.67v.493l-3.061-1.767V246.9Z" transform="translate(-377.624 -246.903)"/></g><g transform="translate(0.001)"><path class="ac" d="M383.787,247.315l-3.1,1.8-3.061-1.767,3.1-1.8Z" transform="translate(-377.625 -245.548)"/></g></g><g class="l" transform="translate(35.325 25.006)"><g transform="translate(3.068 1.772)"><path class="ad" d="M385.981,248.581v.493l-3.1,1.8,0-.493Z" transform="translate(-382.878 -248.581)"/></g><g transform="translate(0 1.803)"><path class="ad" d="M383.64,250.376l0,.493L380.57,249.1l0-.493Z" transform="translate(-380.57 -248.605)"/></g><g transform="translate(0.002)"><path class="ac" d="M386.742,249.021l-3.1,1.8-3.068-1.771,3.1-1.8Z" transform="translate(-380.571 -247.249)"/></g></g><g class="l" transform="translate(39.251 27.273)"><g transform="translate(3.061 1.767)"><path class="ad" d="M388.928,250.282v.493l-3.1,1.8v-.493Z" transform="translate(-385.825 -250.282)"/></g><g transform="translate(0 1.803)"><path class="ad" d="M386.585,252.076v.493l-3.061-1.767,0-.493Z" transform="translate(-383.523 -250.309)"/></g><g transform="translate(0.002)"><path class="ac" d="M389.686,250.721l-3.1,1.8-3.06-1.767,3.1-1.8Z" transform="translate(-383.524 -248.954)"/></g></g><g class="l" transform="translate(43.17 29.535)"><g transform="translate(6.987 4.034)"><path class="ad" d="M394.827,253.688v.493l-3.1,1.8v-.493Z" transform="translate(-391.724 -253.688)"/></g><g transform="translate(0 1.803)"><path class="ad" d="M393.458,256.044v.493L386.47,252.5v-.493Z" transform="translate(-386.47 -252.011)"/></g><g transform="translate(0.001)"><path class="ac" d="M396.559,254.689l-3.1,1.8-6.987-4.034,3.1-1.8Z" transform="translate(-386.471 -250.655)"/></g></g><g class="l" transform="translate(0 9.197)"><g transform="translate(3.06 1.767)"><path class="ad" d="M359.418,236.689l0,.493-3.11,1.807,0-.494Z" transform="translate(-356.307 -236.689)"/></g><g transform="translate(0 1.807)"><path class="ad" d="M357.068,238.486l0,.494-3.06-1.767v-.493Z" transform="translate(-354.006 -236.719)"/></g><g transform="translate(0.001)"><path class="ac" d="M360.177,237.127l-3.11,1.807-3.061-1.767,3.11-1.807Z" transform="translate(-354.007 -235.36)"/></g></g><g class="l" transform="translate(3.918 11.459)"><g transform="translate(3.068 1.772)"><path class="ad" d="M362.371,238.394l0,.493-3.11,1.807V240.2Z" transform="translate(-359.26 -238.394)"/></g><g transform="translate(0 1.807)"><path class="ad" d="M360.022,240.192v.493l-3.068-1.771v-.493Z" transform="translate(-356.952 -238.421)"/></g><g transform="translate(0.001)"><path class="ac" d="M363.131,238.833l-3.11,1.807-3.068-1.771,3.11-1.807Z" transform="translate(-356.953 -237.061)"/></g></g><g class="l" transform="translate(7.844 13.726)"><g transform="translate(3.061 1.767)"><path class="ad" d="M365.318,240.095v.493l-3.11,1.807V241.9Z" transform="translate(-362.206 -240.095)"/></g><g transform="translate(0 1.807)"><path class="ad" d="M362.967,241.892v.493l-3.061-1.767v-.494Z" transform="translate(-359.905 -240.125)"/></g><g transform="translate(0.002)"><path class="ac" d="M366.076,240.533l-3.11,1.807-3.061-1.767,3.11-1.807Z" transform="translate(-359.906 -238.766)"/></g></g><g class="l" transform="translate(11.763 15.988)"><g transform="translate(18.742 10.821)"><path class="ad" d="M380.057,248.6v.493l-3.11,1.807v-.493Z" transform="translate(-376.946 -248.605)"/></g><g transform="translate(0 1.807)"><path class="ad" d="M381.6,252.647v.493L362.852,242.32v-.493Z" transform="translate(-362.852 -241.826)"/></g><g transform="translate(0.001)"><path class="ac" d="M384.7,251.288l-3.11,1.807-18.742-10.821,3.11-1.807Z" transform="translate(-362.853 -240.468)"/></g></g><g class="l" transform="translate(31.363 27.304)"><g transform="translate(3.068 1.771)"><path class="ad" d="M383.009,250.309v.493l-3.11,1.807v-.493Z" transform="translate(-379.898 -250.309)"/></g><g transform="translate(0 1.807)"><path class="ad" d="M380.661,252.108v.493l-3.068-1.772v-.493Z" transform="translate(-377.591 -250.336)"/></g><g transform="translate(0.001)"><path class="ac" d="M383.77,250.749l-3.11,1.807-3.068-1.772,3.11-1.807Z" transform="translate(-377.592 -248.977)"/></g></g><g class="l" transform="translate(35.289 29.571)"><g transform="translate(3.061 1.767)"><path class="ad" d="M385.956,252.011v.493l-3.11,1.807v-.493Z" transform="translate(-382.845 -252.011)"/></g><g transform="translate(0 1.807)"><path class="ad" d="M383.605,253.808v.493l-3.061-1.767v-.493Z" transform="translate(-380.543 -252.041)"/></g><g transform="translate(0.001)"><path class="ac" d="M386.715,252.449l-3.11,1.807-3.06-1.767,3.11-1.807Z" transform="translate(-380.544 -250.682)"/></g></g><g class="l" transform="translate(39.208 31.833)"><g transform="translate(6.987 4.034)"><path class="ad" d="M391.855,255.417v.493l-3.11,1.807v-.493Z" transform="translate(-388.744 -255.417)"/></g><g transform="translate(0 1.807)"><path class="ad" d="M390.478,257.776v.493l-6.987-4.034v-.493Z" transform="translate(-383.49 -253.742)"/></g><g transform="translate(0.001)"><path class="ac" d="M393.588,256.417l-3.11,1.807-6.987-4.034,3.11-1.807Z" transform="translate(-383.491 -252.383)"/></g></g></g></g><g transform="translate(42.677 12.684)"><path class="af" d="M374.254,229.809,410,250.45V224.706h0l-35.751-20.641Z" transform="translate(-374.254 -204.065)"/><path class="ai" d="M402.5,223.26l-12.781-7.379v17.941L402.5,241.2Z" transform="translate(-369.154 -200.168)"/><g transform="translate(3.552 5.89)"><path class="ac" d="M376.924,209.547l14.324,8.27v-1.053l-14.324-8.27Z" transform="translate(-376.924 -208.494)"/><path class="ac" d="M376.924,211.374l14.324,8.27v-1.053l-14.324-8.27Z" transform="translate(-376.924 -207.891)"/><path class="ac" d="M376.924,213.2l14.324,8.27v-1.053l-14.324-8.27Z" transform="translate(-376.924 -207.289)"/><path class="ac" d="M376.924,215.03l14.324,8.27v-1.053l-14.324-8.27Z" transform="translate(-376.924 -206.686)"/><path class="ac" d="M376.924,216.858l14.324,8.27v-1.053l-14.324-8.27Z" transform="translate(-376.924 -206.083)"/><path class="ac" d="M376.924,218.685l14.324,8.27V225.9l-14.324-8.27Z" transform="translate(-376.924 -205.481)"/><path class="ac" d="M376.924,222.34,386.9,228.1v-1.053l-9.974-5.759Z" transform="translate(-376.924 -204.275)"/><path class="ac" d="M376.924,220.513l14.324,8.27V227.73l-14.324-8.27Z" transform="translate(-376.924 -204.878)"/></g><path class="ab" d="M394.652,219.4l-3.776,5.372,7.552,4.36Z" transform="translate(-368.772 -199.008)"/><path class="z" d="M396.925,221.9l-3.776,5.372,7.552,4.36Z" transform="translate(-368.022 -198.183)"/><path class="aa" d="M399.663,231.549c0,1.878-1.318,2.64-2.944,1.7a6.507,6.507,0,0,1-2.944-5.1c0-1.878,1.318-2.638,2.944-1.7A6.5,6.5,0,0,1,399.663,231.549Z" transform="translate(-367.816 -196.815)"/></g></g><g transform="translate(257.808 66.4)"><path class="y" d="M497.387,176.582l3.86,4.427,1.9-3.3Z" transform="translate(-497.387 -176.582)"/><path class="z" d="M497.387,176.582l1.06,1.215.522-.905Z" transform="translate(-497.387 -176.582)"/><path class="z" d="M502.294,177.455a.954.954,0,0,0-.963.094,2.962,2.962,0,0,0-1.344,2.331.946.946,0,0,0,.394.866l28.213,16.395a.943.943,0,0,1-.394-.864,2.964,2.964,0,0,1,1.344-2.332.954.954,0,0,1,.961-.094Z" transform="translate(-496.53 -176.325)"/><g transform="translate(31.67 17.434)"><path class="aj" d="M522.547,189.878c.745-.431,1.354-.086,1.356.773a2.964,2.964,0,0,1-1.348,2.33c-.745.431-1.35.085-1.352-.77A2.964,2.964,0,0,1,522.547,189.878Z" transform="translate(-521.203 -189.692)"/></g></g><g transform="translate(271.251 68.715)"><path class="y" d="M507.5,178.323l3.86,4.427,1.9-3.3Z" transform="translate(-507.496 -178.323)"/><path class="aa" d="M507.5,178.323l1.06,1.215.523-.905Z" transform="translate(-507.496 -178.323)"/><path class="aa" d="M512.4,179.2a.956.956,0,0,0-.963.093,2.966,2.966,0,0,0-1.344,2.332.946.946,0,0,0,.394.866l18.2,10.593a.94.94,0,0,1-.392-.864,2.963,2.963,0,0,1,1.343-2.332.957.957,0,0,1,.963-.094Z" transform="translate(-506.639 -178.065)"/><g transform="translate(21.663 11.633)"><path class="ak" d="M525.13,187.256c.746-.43,1.354-.086,1.356.773a2.967,2.967,0,0,1-1.347,2.33c-.745.431-1.351.086-1.352-.77A2.963,2.963,0,0,1,525.13,187.256Z" transform="translate(-523.787 -187.071)"/></g></g><g transform="translate(252.914 71.672)"><path class="aj" d="M494,183.085a.482.482,0,0,1-.286-.4l-.011,3.539a.487.487,0,0,0,.287.4l3.975,2.3.011-3.539Z" transform="translate(-493.707 -179.841)"/><path class="al" d="M502.221,182.4l-.01,3.538-5.3,3.079.01-3.538Z" transform="translate(-492.65 -179.936)"/><path class="z" d="M503.275,183.006l-5.3,3.08L494,183.79a.418.418,0,0,1-.007-.791l3.94-2.29a1.507,1.507,0,0,1,1.366,0Z" transform="translate(-493.704 -180.547)"/><path class="ag" d="M504.3,183.6l-.01,3.538-5.3,3.079.01-3.538Z" transform="translate(-491.963 -179.54)"/><path class="am" d="M499.694,186.312l-.01,3.538-2.771-1.6.01-3.538Z" transform="translate(-492.65 -179.173)"/><path class="y" d="M504.99,184l-5.3,3.079-2.771-1.6,5.3-3.079Z" transform="translate(-492.648 -179.936)"/><path class="ak" d="M508.287,186.017l-3.94,2.29a1.5,1.5,0,0,1-1.366,0l-3.975-2.3L499,189.549l3.976,2.3a1.5,1.5,0,0,0,1.366,0l3.94-2.29a.474.474,0,0,0,.279-.391l.009-3.539A.475.475,0,0,1,508.287,186.017Z" transform="translate(-491.963 -178.871)"/><path class="aa" d="M508.278,185.9c.378.218.383.572.007.79l-3.94,2.29a1.5,1.5,0,0,1-1.366,0l-3.975-2.3,5.3-3.078Z" transform="translate(-491.96 -179.54)"/></g><g transform="translate(158.452 44.397)"><path class="y" d="M480.133,160.546l-56.579,32.666c-1.309.755-1.145,2.074.367,2.947l32.766,18.917a5.675,5.675,0,0,0,5.105.213l56.579-32.666c1.308-.757,1.145-2.076-.366-2.948l-32.767-18.917A5.674,5.674,0,0,0,480.133,160.546Z" transform="translate(-422.671 -160.035)"/><g transform="translate(30.596 8.94)"><path class="an" d="M469.621,168.9l3.716-2.145L495,179.263l-3.715,2.145Z" transform="translate(-437.783 -166.758)"/><path class="an" d="M463.635,172.359l3.715-2.145,21.659,12.505-3.716,2.145Z" transform="translate(-439.757 -165.619)"/><path class="an" d="M457.65,175.815l3.715-2.145,21.659,12.505-3.715,2.145Z" transform="translate(-441.731 -164.479)"/><path class="an" d="M451.664,179.27l3.715-2.145,21.659,12.505-3.715,2.145Z" transform="translate(-443.705 -163.339)"/><path class="an" d="M445.679,182.726l3.715-2.145,21.659,12.5-3.715,2.145Z" transform="translate(-445.679 -162.2)"/></g><g transform="translate(30.596 8.94)"><path class="ao" d="M469.621,168.9l3.716-2.145,5.409,3.123-3.715,2.145Z" transform="translate(-437.783 -166.758)"/><path class="ab" d="M463.635,172.359l3.715-2.145,12.623,7.288-3.716,2.145Z" transform="translate(-439.757 -165.619)"/><path class="z" d="M457.65,175.815l3.715-2.145,9.21,5.318-3.715,2.145Z" transform="translate(-441.731 -164.479)"/><path class="ac" d="M451.664,179.27l3.715-2.145,15.626,9.021-3.716,2.145Z" transform="translate(-443.705 -163.339)"/><path class="aa" d="M445.679,182.726l3.715-2.145,18.42,10.635-3.715,2.145Z" transform="translate(-445.679 -162.2)"/></g><g transform="translate(13.391 28.558)"><path class="an" d="M461.069,192.482l-12.04,6.951,1.564.9,12.04-6.951Z" transform="translate(-427.369 -177.893)"/><path class="an" d="M458.354,190.915l-12.04,6.951,1.564.9,12.04-6.951Z" transform="translate(-428.265 -178.41)"/><path class="an" d="M455.639,189.348,443.6,196.3l1.564.9,12.04-6.951Z" transform="translate(-429.16 -178.927)"/><path class="an" d="M452.924,187.78l-12.04,6.951,1.564.9,12.04-6.951Z" transform="translate(-430.055 -179.444)"/><path class="an" d="M450.21,186.213l-12.04,6.951,1.564.9,12.04-6.951Z" transform="translate(-430.95 -179.961)"/><path class="an" d="M447.5,184.646l-12.04,6.951,1.564.9,12.04-6.951Z" transform="translate(-431.846 -180.478)"/><path class="an" d="M441.159,181.511l-8.384,4.84,1.564.9,8.384-4.84Z" transform="translate(-432.729 -181.511)"/><path class="an" d="M444.781,183.078l-12.04,6.951,1.564.9,12.04-6.951Z" transform="translate(-432.741 -180.994)"/></g><path class="an" d="M478.384,165.114,442.831,185.64l1.564.9,35.552-20.526Z" transform="translate(-416.022 -158.361)"/></g><g transform="translate(219.027 80.891)"><path class="ab" d="M468.224,202.1l25.319-14.618L507.95,195.8l-25.319,14.618Z" transform="translate(-468.224 -187.479)"/><path class="ap" d="M479.059,208.352l2.8-13,22.514-1.619Z" transform="translate(-464.651 -185.416)"/><path class="t" d="M493.542,187.479l-2.866,12.963L468.224,202.1Z" transform="translate(-468.224 -187.479)"/></g><g transform="translate(303.805 114.831)"><path class="y" d="M587.2,213l43.741,25.254L575.718,270.14l-43.741-25.254Z" transform="translate(-531.977 -213.002)"/><g transform="translate(25.631 21.868)"><path class="x" d="M564.6,237.133Z" transform="translate(-546.849 -226.912)"/><path class="aa" d="M564.6,237.133Z" transform="translate(-546.849 -226.912)"/><path class="aa" d="M567.716,239.518l-6.04-9.616a21.977,21.977,0,0,0-6.515,2.368Z" transform="translate(-549.962 -229.297)"/><path class="aj" d="M566.1,239.668l12.553-7.247c-4.992-2.883-12.315-3.664-18.593-2.368Z" transform="translate(-548.347 -229.447)"/><path class="aa" d="M556.452,244.7l12.554-7.249-17.61-1.3C550.7,239.3,552.567,242.461,556.452,244.7Z" transform="translate(-551.252 -227.235)"/><path class="z" d="M570.643,248.546a21.951,21.951,0,0,0,6.513-2.367c6.887-3.976,6.887-10.52,0-14.5L564.6,238.93Z" transform="translate(-546.849 -228.709)"/><path class="ab" d="M573.756,246.749l-6.04-9.616-12.554,7.249C560.154,247.263,567.478,248.045,573.756,246.749Z" transform="translate(-549.962 -226.912)"/></g><path class="am" d="M599.714,241.281a.5.5,0,0,1-.251-.068L566.54,222.2a.5.5,0,1,1,.5-.866l32.924,19.01a.5.5,0,0,1-.249.932Z" transform="translate(-520.662 -210.275)"/><path class="am" d="M602.622,239.6a.491.491,0,0,1-.25-.068l-32.924-19.008a.5.5,0,0,1,.5-.866l32.924,19.009a.5.5,0,0,1-.25.932Z" transform="translate(-519.703 -210.828)"/><path class="am" d="M605.531,237.922a.488.488,0,0,1-.25-.068l-32.924-19.008a.5.5,0,1,1,.5-.866l32.924,19.009a.5.5,0,0,1-.25.932Z" transform="translate(-518.744 -211.382)"/></g><g transform="translate(332.134 156.154)"><g class="l"><g transform="translate(60.159 17.902)"><path class="ap" d="M600.15,257.54l-.017,6.128a2.749,2.749,0,0,1-1.612,2.251l.017-6.126A2.751,2.751,0,0,0,600.15,257.54Z" transform="translate(-598.521 -257.54)"/></g><g transform="translate(0 17.874)"><path class="t" d="M553.281,263.645l.017-6.126a2.771,2.771,0,0,0,1.636,2.281l-.017,6.126A2.77,2.77,0,0,1,553.281,263.645Z" transform="translate(-553.281 -257.519)"/></g><g transform="translate(34.891 20.154)"><path class="ap" d="M604.8,259.234l-.017,6.127-25.269,14.684.017-6.127Z" transform="translate(-579.519 -259.234)"/></g><g transform="translate(1.636 20.154)"><path class="t" d="M579.975,273.925l-.017,6.127-25.446-14.691.018-6.127Z" transform="translate(-554.511 -259.234)"/></g><g transform="translate(27.089 34.843)"><path class="t" d="M581.472,270.28l-.021,6.125a8.622,8.622,0,0,1-7.8,0V270.28a8.667,8.667,0,0,0,7.82,0Z" transform="translate(-573.652 -270.28)"/></g><g transform="translate(0.017)"><path class="ab" d="M613.44,259.708c2.16,1.247,2.17,3.27.013,4.524l-25.268,14.683a8.6,8.6,0,0,1-7.808.008L554.93,264.232c-2.172-1.254-2.182-3.277-.025-4.531l25.268-14.685a8.61,8.61,0,0,1,7.822,0Z" transform="translate(-553.294 -244.077)"/></g></g></g><g transform="translate(383.034 138.734)"><g class="l"><g transform="translate(60.159 17.903)"><path class="aq" d="M638.427,244.441l-.017,6.126a2.754,2.754,0,0,1-1.612,2.253l.017-6.128A2.753,2.753,0,0,0,638.427,244.441Z" transform="translate(-636.798 -244.441)"/></g><g transform="translate(0 17.874)"><path class="ar" d="M591.558,250.547l.017-6.128a2.767,2.767,0,0,0,1.636,2.281l-.017,6.128A2.769,2.769,0,0,1,591.558,250.547Z" transform="translate(-591.558 -244.419)"/></g><g transform="translate(34.89 20.155)"><path class="aq" d="M643.081,246.134l-.017,6.127L617.8,266.945l.017-6.127Z" transform="translate(-617.796 -246.134)"/></g><g transform="translate(1.636 20.155)"><path class="ar" d="M618.251,260.825l-.017,6.127-25.446-14.691.017-6.127Z" transform="translate(-592.788 -246.134)"/></g><g transform="translate(27.077 34.84)"><path class="aq" d="M619.742,257.178V263.3a8.659,8.659,0,0,1-7.822,0l.021-6.125a8.1,8.1,0,0,0,3.9.932A7.983,7.983,0,0,0,619.742,257.178Z" transform="translate(-611.92 -257.178)"/></g><g transform="translate(0.017)"><path class="aa" d="M651.716,246.61c2.161,1.246,2.172,3.269.015,4.523l-25.268,14.685a8.6,8.6,0,0,1-7.81.007l-25.445-14.691c-2.172-1.254-2.184-3.277-.025-4.529l25.268-14.685a8.6,8.6,0,0,1,7.82,0Z" transform="translate(-591.57 -230.978)"/></g></g></g><text class="as" transform="translate(379.976 178.411) rotate(-135)"><tspan x="0" y="0">DATA</tspan></text><text class="at" transform="translate(432.225 163.88) rotate(-135)"><tspan x="0" y="0">DATA</tspan></text><path class="ar" d="M615.842,258.11v6.126a7.894,7.894,0,0,1-3.922-.934l.021-6.125A8.1,8.1,0,0,0,615.842,258.11Z" transform="translate(-201.809 -83.603)"/><path class="ap" d="M580.505,270.28l-.021,6.125a7.859,7.859,0,0,1-3.9.932v-6.125A8.118,8.118,0,0,0,580.505,270.28Z" transform="translate(-213.462 -79.283)"/><g transform="translate(389.827 141.368)"><path class="f" d="M623.388,237.165c-4.879,2.169-9.38,18.464-6.7,24.2s6.932,6.174,12.3,4.739,11.439-8.461,13.419-14.993C645.094,242.218,637.293,230.979,623.388,237.165Z" transform="translate(-590.328 -232.157)"/><g transform="translate(0 25.459)"><path class="i" d="M624,385.889v1.286c-2.568,1.507-8.326.709-9.831,0-.991-1.5-3.677-1.1-5.182-.507-5.758.507-7.866-.344-9.789-1.753-.975-.711-2.721-2.569-2.512-4.54C603.536,381.949,624,385.889,624,385.889Z" transform="translate(-596.666 -209.802)"/><path class="a" d="M614.163,377.029a102.657,102.657,0,0,1-10.011,2.3c-3.721.532-6.378-.088-7.263,1.241s1.063,4.783,4.34,5.935,10.009-.177,12.489.354,8.77,1.681,10.275.132,0-9.078,0-9.078Z" transform="translate(-596.663 -210.906)"/><path class="a" d="M640.983,374.129l-11.253-12.6c-4.488-1.283-9.207-1.551-8.608,2.593.532,3.676,6.383,5.282,10.407,8.855l3.71,3.294c2.665,2.367,6.072.3,5.743-2.142" transform="translate(-588.618 -216.293)"/><path class="f" d="M631.136,252.107a11.043,11.043,0,0,1-1.391,1.271,25.394,25.394,0,0,1-9.291,4.537c-.568.15-1.188.285-1.819.395l.286,3.255c3.8,1.044,7.487-.561,10.112-1.291,1.955-.54,4.985-1.039,4.985-3.1l-2.872-5.076Z" transform="translate(-589.421 -252.103)"/><path class="i" d="M635.24,375.433l-3.71-3.294c-4.024-3.573-9.875-5.179-10.407-8.855h0v0h0v-.019h0v0h0v-.005h0v0h0a3.978,3.978,0,0,0,.007,1.243c.532,3.675,6.383,5.282,10.407,8.855l3.71,3.294c3.143,2.793,6.463.8,5.743-3.335.329,2.439-3.078,4.509-5.743,2.142" transform="translate(-588.618 -215.455)"/><path class="b" d="M641.112,306.328c3.886,5.5-5.83,20.728-3.173,39.684,1.8,12.856,5.315,34.437,4.476,46.617-.153,2.219-8.827,3.806-11.178-6.932-4-18.259-9.008-29.654-10.77-43.821l.935-41.09Z" transform="translate(-588.817 -236.049)"/><path class="b" d="M633.6,303.449c1.074,17.073-11.159,37.964-10.35,51.748.835,14.214-.711,31.5-.751,46.883,0,0-12.566,5.951-13.129-3.246-1.847-30.138-7.618-39.527.17-94.671Z" transform="translate(-593.729 -235.17)"/><path class="c" d="M610.994,302.529a175.583,175.583,0,0,1,2.63-32.661,22.442,22.442,0,0,1,5.364-5.469l4.021-4.868q4.286-1.053,8.468-2.351a23.678,23.678,0,0,1,13.856-.016h0c5.932,2.515,7.068,6.512,4.43,14.171.064.343-5.214,21.405-5.9,27.841-.062.632,4.5,17.7,5.495,24.658,0,0-4.335,3.961-5.533,4.961-8.815,10.939-37.629-2.327-38.714-8.152C604.708,318.468,608.248,311.7,610.994,302.529Z" transform="translate(-593.891 -250.773)"/></g><path class="au" d="M621.038,238.981a10.062,10.062,0,0,0-2.331,4.17,19.824,19.824,0,0,0-.734,6.221c-.081,1.463-.678,2.277-.379,3.007s2.086-3.25,3.793-3.656,1.459,4.727-2.275,6.175c-1.6,2.437-.326,8.425.569,9.738s6.421,2.971,11.093,1.33,7.758-6.355,11.618-12.53,0-10.645,0-10.645c1.909-4.226-12.554-9.67-18.568-9.832C620.086,233.039,621.038,238.981,621.038,238.981Z" transform="translate(-589.792 -232.958)"/></g><g transform="translate(403.765 177.383)"><path class="k" d="M631.274,272.692c1.875-6.469-5.3-14.42-11.7-12.3-2.275.754-4.209,1.505-5.4,3.515-2.958,4.969-3.455,21.953-5.888,32.227-.368.082-.757.145-1.137.215,3.914,5.281,5.766,7.945,9.23,12.776a6.229,6.229,0,0,0,.737-.286C618.137,308.289,631.254,272.763,631.274,272.692Z" transform="translate(-607.148 -260.042)"/></g><g transform="translate(122.352 200.003)"><path class="a" d="M399.722,418.167l10.565-.952s6.758,1.9,10.755,2.475,6.852-.094,7.8,1.332a1.607,1.607,0,0,1,.225.976h0V422a.37.37,0,0,0,0,.037c.193,2.1-1.66,4.073-2.7,4.834-2.066,1.512-4.331,2.427-10.517,1.883-1.618-.64-4.5-1.066-5.568.544-1.618.762-7.8,1.618-10.565,0v-1.382C398.1,426.258,399.722,418.167,399.722,418.167Z" transform="translate(-394.375 -230.83)"/><path class="b" d="M396.21,344.786c-3.484,17.992,8.987,37.666,7.975,52.191-1.386,19.907-2.152,28.6-4.209,44.815,0,0,8.088,4.8,14.044-.691,6.1-31.759,8.788-37.452,7.944-95.563Z" transform="translate(-395.5 -254.715)"/><g transform="translate(24.83)"><path class="u" d="M439,284.119c3.573,4.166.572,21.282-4.444,25.431s-9.159,2.677-13.508-1.02-6.892-12.9-5.851-19.838C416.613,279.244,428.811,272.245,439,284.119Z" transform="translate(-413.942 -276.787)"/><path class="au" d="M440.488,286.126a10.344,10.344,0,0,1,.326,4.9,20.277,20.277,0,0,1-2.061,6.1c-.569,1.394-.372,2.412-.972,2.96s-.505-3.939-1.91-5.068-3.44,3.747-.61,6.738c.412,2.969-3.412,7.967-4.82,8.792s-7.274-.072-10.888-3.656-4.4-9.322-5.266-16.758,4.693-9.885,4.693-9.885c.089-4.766,15.921-3.445,21.577-.947C443.991,281.028,440.488,286.126,440.488,286.126Z" transform="translate(-414.196 -277.052)"/></g><path class="a" d="M414.931,425.371l10.565-.952s6.758,1.9,10.755,2.475,6.854-.094,7.8,1.332a1.606,1.606,0,0,1,.225.976h0v.044c.193,2.1-1.66,4.073-2.7,4.834-2.066,1.512-4.33,2.427-10.517,1.883-1.618-.64-4.5-1.066-5.568.544-1.618.762-7.8,1.618-10.565,0v-1.382C413.313,433.461,414.931,425.371,414.931,425.371Z" transform="translate(-389.36 -228.454)"/><path class="b" d="M402.1,348.2c-1.156,18.346,13.862,38.407,14.733,53.216,1.191,20.3,1.229,34.651,1.27,51.18,0,0,13.5,6.395,14.108-3.488,1.984-32.381,4.109-40.891-4.259-100.141Z" transform="translate(-393.376 -253.589)"/><path class="av" d="M439.59,305.775c-7.542-3.758-19.755-14.064-29.739-.59-9.359,12.631-13.207,50.593-14.275,58.156-1.447,10.241,27.09,15.724,33.445,15.448a2.666,2.666,0,0,0,2.723-2.142c.533-1.867-.988-3.207-.576-4.93a7.241,7.241,0,0,1,1.5-2.6,6.013,6.013,0,0,0,1.38-2.66c.245-1.629-.775-3.157-.96-4.791a9.645,9.645,0,0,1,.488-3.536c2.582-9.641,7.082-18.568,9.586-28.271,1.7-6.565,4.118-17-1.282-22.436A6.086,6.086,0,0,0,439.59,305.775Z" transform="translate(-395.523 -269.992)"/><path class="av" d="M435.334,308.433c6.046,19.141,6.6,28.63,12.513,36.2.439.561,16.76,18.052,16.76,18.052a11.493,11.493,0,0,1-7.9,4.993c-9.117-3.9-19.427-18.237-22.2-21.319-1.6-1.773-10.6-18.28-11.952-26.671S432.81,300.866,435.334,308.433Z" transform="translate(-386.644 -267.566)"/></g><path class="au" d="M607.382,304.379a56.091,56.091,0,0,0,9.967-1.363s7.957-17.06,10.126-25.319c0,0-2.871,17.552-4.818,23.26s-4.647,7.932-8.835,7.441a58.478,58.478,0,0,1-7.382-1.34Z" transform="translate(-203.616 -76.837)"/></g></g></svg>