<svg xmlns="http://www.w3.org/2000/svg" width="322.896" height="323.65" viewBox="0 0 322.896 323.65"><defs><style>.a{fill:#717171;}.b{fill:#e2e2e2;stroke:#000;}.b,.c,.e{stroke-miterlimit:10;}.b,.e{stroke-width:4px;}.c,.e{fill:none;stroke:#af9225;}.c{stroke-width:5px;}.d{fill:#fff;}.f,.g{stroke:none;}.g{fill:#af9225;}</style></defs><g transform="translate(-782.122 -1301.257)"><path class="a" d="M20.185-11h-5.5v4.675A1.436,1.436,0,0,1,13.31-4.95h-3.3A1.436,1.436,0,0,1,8.635-6.325v-25.85A1.436,1.436,0,0,1,10.01-33.55h3.3a1.436,1.436,0,0,1,1.375,1.375V-27.5h5.5V-33a5.516,5.516,0,0,0-5.5-5.5H8.635a5.516,5.516,0,0,0-5.5,5.5V-5.5A5.516,5.516,0,0,0,8.635,0h6.05a5.516,5.516,0,0,0,5.5-5.5Zm9.57,4.95H36.3L37.18,0H42.9L36.08-38.5H30.03L23.21,0h5.72ZM35.585-11H30.47l1.98-13.75.44-5.39h.33l.44,5.39ZM64.35-33a5.516,5.516,0,0,0-5.5-5.5H47.3V0h5.5V-17.325h6.05a5.516,5.516,0,0,0,5.5-5.5ZM57.475-22.275H52.8V-33.55h4.675a1.436,1.436,0,0,1,1.375,1.375v8.525A1.436,1.436,0,0,1,57.475-22.275ZM71.94-6.05h6.545L79.365,0h5.72l-6.82-38.5h-6.05L65.4,0h5.72ZM77.77-11H72.655l1.98-13.75.44-5.39h.33l.44,5.39Zm28.16,0h-5.5v4.675A1.436,1.436,0,0,1,99.055-4.95h-3.3A1.436,1.436,0,0,1,94.38-6.325v-25.85a1.436,1.436,0,0,1,1.375-1.375h3.3a1.436,1.436,0,0,1,1.375,1.375V-27.5h5.5V-33a5.516,5.516,0,0,0-5.5-5.5H94.38a5.516,5.516,0,0,0-5.5,5.5V-5.5A5.516,5.516,0,0,0,94.38,0h6.05a5.516,5.516,0,0,0,5.5-5.5ZM116.71,0V-38.5h-5.5V0Zm24.53-33a5.516,5.516,0,0,0-5.5-5.5H124.19V0h11.55a5.516,5.516,0,0,0,5.5-5.5Zm-5.5,26.675a1.436,1.436,0,0,1-1.375,1.375H129.69v-28.6h4.675a1.436,1.436,0,0,1,1.375,1.375Zm15.84.275h6.545l.88,6.05h5.72L157.9-38.5h-6.05L145.035,0h5.72ZM157.41-11h-5.115l1.98-13.75.44-5.39h.33l.44,5.39Zm28.765-22a5.516,5.516,0,0,0-5.5-5.5h-11.55V0h11.55a5.516,5.516,0,0,0,5.5-5.5Zm-5.5,26.675A1.436,1.436,0,0,1,179.3-4.95h-4.675v-28.6H179.3a1.436,1.436,0,0,1,1.375,1.375ZM193.05-38.5V0H206.8V-4.95h-8.25V-17.325h6.71v-4.95h-6.71V-33.55h8.25V-38.5Zm18.04,12.375c0,3.85,2.53,5.665,5.445,7.59l4.73,3.135a3.323,3.323,0,0,1,1.375,2.75v6.325a1.436,1.436,0,0,1-1.375,1.375h-3.3a1.436,1.436,0,0,1-1.375-1.375V-11h-5.5v5.5a5.516,5.516,0,0,0,5.5,5.5h6.05a5.516,5.516,0,0,0,5.5-5.5v-7.975c0-3.85-2.75-6.05-5.555-7.81l-4.62-2.915a3.188,3.188,0,0,1-1.375-2.75v-5.225a1.436,1.436,0,0,1,1.375-1.375h3.3a1.436,1.436,0,0,1,1.375,1.375V-27.5h5.5V-33a5.516,5.516,0,0,0-5.5-5.5h-6.05a5.516,5.516,0,0,0-5.5,5.5Z" transform="translate(834.559 1482)"/><g transform="translate(870.508 1510)"><path class="b" d="M472.39,397.38h-50V373.214c0-11.667,8.666-17.833,16.833-23.667l12.334-8.834a10.523,10.523,0,0,0,4.166-8.333V316.547a4.352,4.352,0,0,0-4.166-4.168h-8.333a4.353,4.353,0,0,0-4.167,4.168v14.167H422.389V314.047a16.716,16.716,0,0,1,16.667-16.667h16.667a16.715,16.715,0,0,1,16.667,16.667V334.88c0,11.666-8.333,16.833-16.5,23l-12.666,9.5a10.81,10.81,0,0,0-4.167,8.333v6.666H472.39" transform="translate(-422.389 -297.38)"/></g><g transform="matrix(-0.07, -0.998, 0.998, -0.07, 1281.172, -13207.481)"><path class="c" d="M262.556,600.033c0,79.312,67.458,144.574,149.435,144.574s149.436-65.262,149.436-144.574S493.969,455.459,411.991,455.459" transform="translate(-15023.557 -1956.056)"/><g class="d" transform="translate(-14651.959 -1477.724) rotate(-87)"><path class="f" d="M 40.75828552246094 37.49069976806641 L 5.840627193450928 37.49069976806641 L 23.96756744384766 18.49183082580566 L 40.75828552246094 37.49069976806641 Z"/><path class="g" d="M 23.8970832824707 22.18725967407227 L 11.68124008178711 34.99069213867188 L 35.21244049072266 34.99069213867188 L 23.8970832824707 22.18725967407227 M 24.03804206848145 14.79640579223633 L 46.30413055419922 39.99069213867188 L -3.814697265625e-06 39.99069213867188 L 24.03804206848145 14.79640579223633 Z"/></g><path class="e" d="M32.406,199.083s20.225,81.562,113.805,83.872" transform="matrix(0.966, 0.259, -0.259, 0.966, -14714.162, -1556.236)"/></g></g></svg>