<svg xmlns="http://www.w3.org/2000/svg" width="303.871" height="313.585" viewBox="0 0 303.871 313.585"><defs><style>.a{fill:#e2e2e2;stroke:#454545;}.a,.c,.e{stroke-miterlimit:10;}.a,.e{stroke-width:4px;}.b{fill:#717171;}.c,.e{fill:none;stroke:#af9225;}.c{stroke-width:5px;}.d{fill:#fff;}.f,.g{stroke:none;}.g{fill:#af9225;}</style></defs><g transform="translate(16388.501 695.437)"><g transform="translate(-16705.232 -950.38)"><g transform="translate(342.233 297.38)"><path class="a" d="M358.729,397.38v-85h-16.5v-15h38.2v100" transform="translate(-342.233 -297.38)"/></g></g><g transform="translate(-16404.639 -540)"><path class="b" d="M20.919-11.4h-5.7v4.845A1.488,1.488,0,0,1,13.794-5.13h-3.42A1.488,1.488,0,0,1,8.949-6.555v-26.79a1.488,1.488,0,0,1,1.425-1.425h3.42a1.488,1.488,0,0,1,1.425,1.425V-28.5h5.7v-5.7a5.717,5.717,0,0,0-5.7-5.7H8.949a5.717,5.717,0,0,0-5.7,5.7V-5.7A5.717,5.717,0,0,0,8.949,0h6.27a5.717,5.717,0,0,0,5.7-5.7Zm23.2-28.5h-5.7V-6.555A1.488,1.488,0,0,1,36.993-5.13h-3.42a1.488,1.488,0,0,1-1.425-1.425V-39.9h-5.7V-5.7a5.717,5.717,0,0,0,5.7,5.7h6.27a5.717,5.717,0,0,0,5.7-5.7ZM57.342-5.13V-39.9h-5.7V0h14.25V-5.13Zm7.98-34.77v5.13h5.7V0h5.7V-34.77h5.7V-39.9Zm38.988,0h-5.7V-6.555A1.488,1.488,0,0,1,97.185-5.13h-3.42A1.488,1.488,0,0,1,92.34-6.555V-39.9h-5.7V-5.7A5.717,5.717,0,0,0,92.34,0h6.27a5.717,5.717,0,0,0,5.7-5.7Zm16.074,21.945L125.115,0H131.1l-5.3-19.323a5.375,5.375,0,0,0,3.705-5.244V-34.2a5.717,5.717,0,0,0-5.7-5.7h-11.97V0h5.7V-17.955Zm1.995-5.13h-4.845V-34.77h4.845a1.488,1.488,0,0,1,1.425,1.425v8.835A1.488,1.488,0,0,1,122.379-23.085ZM140.5-6.27h6.783L148.2,0h5.928L147.06-39.9h-6.27L133.722,0h5.928Zm6.042-5.13h-5.3L143.3-25.65l.456-5.586h.342l.456,5.586Z" transform="translate(86 39)"/></g><g transform="translate(-1188 838)"><path class="c" d="M262.556,600.033c0,79.312,67.458,144.574,149.435,144.574s149.436-65.262,149.436-144.574S493.969,455.459,411.991,455.459" transform="translate(-15460.557 -1966.959)"/><g class="d" transform="translate(-15088.959 -1489.724) rotate(-87)"><path class="f" d="M 39.05085372924805 36.48081207275391 L 5.689913272857666 36.48081207275391 L 22.89827346801758 17.74135589599609 L 39.05085372924805 36.48081207275391 Z"/><path class="g" d="M 22.83915710449219 21.50189781188965 L 11.37981796264648 33.98081207275391 L 33.59542465209961 33.98081207275391 L 22.83915710449219 21.50189781188965 M 22.9573974609375 13.98081207275391 L 44.50628662109375 38.98081207275391 L -3.814697265625e-06 38.98081207275391 L 22.9573974609375 13.98081207275391 Z"/></g><path class="e" d="M32.406,199.083s20.225,81.562,113.805,83.872" transform="translate(-15215.494 -1516.063) rotate(-7)"/></g></g></svg>