<svg xmlns="http://www.w3.org/2000/svg" width="107.282" height="110.529" viewBox="0 0 107.282 110.529"><defs><style>.a{fill:#5aa6d5;}.b{fill:#78cafe;}.c{fill:#fff;}.d{fill:#c99c11;}.e{fill:#edbe30;}.f{fill:#fddd00;}.g{fill:#f83338;}.h{fill:#ee4b4f;}.i{fill:#f58220;}.j{fill:#303ff8;}.k{fill:#606bf1;}</style></defs><g transform="translate(-33.844 -41.426)"><g transform="translate(33.844 77.606)"><path class="a" d="M153.264,278.478l-9.7-5.113V224.448l9.7,5.112Z" transform="translate(-118.806 -219.332)"/><path class="b" d="M186.56,278.472l9.7-5.113V224.44l-9.7,5.114Z" transform="translate(-152.102 -219.326)"/><path class="a" d="M68.3,446.362l-9.7-5.113-24.756,12.64,9.7,5.113Z" transform="translate(-33.844 -387.215)"/><path class="b" d="M162.966,206.888l-9.7-5.114-9.7,5.116,9.7,5.112Z" transform="translate(-118.806 -201.773)"/><g transform="translate(5.59 63.958)"><path class="c" d="M59.411,487.707a.149.149,0,0,1-.2.032l-.59-.364a2.831,2.831,0,0,0,.515-.7,2.243,2.243,0,0,0,.229-.7l1.416-.74,6.256,3.864-1.415.74-5.286-3.265-.012.006a3.057,3.057,0,0,1-.394.583A6.16,6.16,0,0,1,59.411,487.707Z" transform="translate(-58.619 -485.233)"/></g></g><g transform="translate(54.683 41.426)"><g transform="translate(0 0)"><path class="d" d="M245.62,155.536l-9.7-5.113V64.1l9.7,5.113Z" transform="translate(-211.162 -58.984)"/><path class="e" d="M278.915,155.53l9.7-5.113V64.092l-9.7,5.114Z" transform="translate(-244.458 -58.978)"/><path class="e" d="M160.658,451.794l-9.7-5.113L126.2,459.322l9.7,5.113Z" transform="translate(-126.2 -355.242)"/><path class="f" d="M255.321,46.54l-9.7-5.114-9.7,5.116,9.7,5.113Z" transform="translate(-211.162 -41.426)"/></g><g transform="translate(4.85 101.024)"><path class="c" d="M148.686,492.148a.119.119,0,0,1-.087.064.142.142,0,0,1-.11-.016l-.792-.489a2.738,2.738,0,0,1,.633-.911,4.777,4.777,0,0,1,1.187-.841,6.578,6.578,0,0,1,2.391-.775,3.09,3.09,0,0,1,1.97.422,1.344,1.344,0,0,1,.438.421,1.391,1.391,0,0,1,.2.54,2.357,2.357,0,0,1,.007.623,5.179,5.179,0,0,1-.121.667l-.521,2.124.016.01,3.961-2.069.808.5-5.582,2.916-.76-.469.6-2.662a3.391,3.391,0,0,0,.1-.706,1.74,1.74,0,0,0-.06-.512.923.923,0,0,0-.2-.365,1.523,1.523,0,0,0-.323-.264,1.724,1.724,0,0,0-.959-.227,2.856,2.856,0,0,0-1.243.364,3.665,3.665,0,0,0-.965.712A2.656,2.656,0,0,0,148.686,492.148Z" transform="translate(-147.697 -489.162)"/></g></g><g transform="translate(75.794 67.502)"><g transform="translate(0 0)"><path class="g" d="M339.184,245.7l-9.7-5.112V179.669l9.7,5.112Z" transform="translate(-304.726 -174.553)"/><path class="h" d="M372.478,245.691l9.7-5.112V179.661l-9.7,5.114Z" transform="translate(-338.021 -174.547)"/><path class="g" d="M254.222,454.758l-9.7-5.112-24.756,12.64,9.7,5.113Z" transform="translate(-219.764 -383.614)"/><path class="i" d="M348.885,162.109l-9.7-5.114-9.7,5.116,9.7,5.112Z" transform="translate(-304.726 -156.994)"/></g><g transform="translate(4.773 75.613)"><path class="c" d="M245.087,497.247a10.492,10.492,0,0,0,1.823-.28,6.846,6.846,0,0,0,1.456-.558,2.448,2.448,0,0,0,.527-.358,1.109,1.109,0,0,0,.285-.384.494.494,0,0,0,.012-.37.678.678,0,0,0-.3-.322,2,2,0,0,0-1.289-.275,5.348,5.348,0,0,0-1.819.646l-.285.149-.8-.494.32-.167a6.035,6.035,0,0,0,.64-.4,1.648,1.648,0,0,0,.4-.39.418.418,0,0,0,.068-.381.807.807,0,0,0-.37-.378,1.607,1.607,0,0,0-1.074-.208,3.6,3.6,0,0,0-1.219.393,5.223,5.223,0,0,0-.516.306,3.093,3.093,0,0,0-.421.345,2.406,2.406,0,0,0-.336.41,3.016,3.016,0,0,0-.259.5.127.127,0,0,1-.1.064.161.161,0,0,1-.12-.016l-.792-.489a2.463,2.463,0,0,1,.57-.786,5.089,5.089,0,0,1,1.216-.856,7.119,7.119,0,0,1,2.481-.817,2.973,2.973,0,0,1,1.936.343,1.009,1.009,0,0,1,.386.388.72.72,0,0,1,.073.455,1.1,1.1,0,0,1-.217.477,2.111,2.111,0,0,1-.5.461l.016.01a6.039,6.039,0,0,1,1.88-.406,2.643,2.643,0,0,1,1.537.344,1.19,1.19,0,0,1,.5.534.9.9,0,0,1,.008.668,1.962,1.962,0,0,1-.524.744,4.848,4.848,0,0,1-1.108.754,9.253,9.253,0,0,1-1.663.671,7.421,7.421,0,0,1-1.687.305l-.841-.519q-.048-.03-.017-.069A.173.173,0,0,1,245.087,497.247Z" transform="translate(-240.92 -492.108)"/></g></g><g transform="translate(96.967 85.554)"><path class="j" d="M433.021,308.322l-9.7-5.113V259.678l9.7,5.112Z" transform="translate(-398.563 -254.562)"/><path class="k" d="M466.316,308.316l9.7-5.113V259.67l-9.7,5.114Z" transform="translate(-431.859 -254.555)"/><path class="j" d="M348.059,457.721l-9.7-5.113L313.6,465.248l9.7,5.113Z" transform="translate(-313.602 -403.961)"/><path class="j" d="M442.723,242.117l-9.7-5.114-9.7,5.116,9.7,5.112Z" transform="translate(-398.563 -237.003)"/><g transform="translate(7.338 58.006)"><path class="c" d="M347.271,499.841l-.841-.519-.305-4.457,1.5-.781L351.7,496.6l1.244-.65.808.5-1.244.65,1.366.844-1.4.734-1.366-.844Zm.345-1.1.016.01,2.728-1.425-2.611-1.613-.5-.347.146.532Z" transform="translate(-346.125 -494.083)"/></g></g></g></svg>