<svg xmlns="http://www.w3.org/2000/svg" xmlns:xlink="http://www.w3.org/1999/xlink" width="95.514" height="119.948" viewBox="0 0 95.514 119.948">
  <defs>
    <linearGradient id="linear-gradient" x1="-19.995" y1="-10.702" x2="-20.262" y2="-9.799" gradientUnits="objectBoundingBox">
      <stop offset="0" stop-color="#f0c3a8"/>
      <stop offset="1" stop-color="#fff"/>
    </linearGradient>
    <linearGradient id="linear-gradient-2" x1="3.662" y1="9.786" x2="3.563" y2="10.677" xlink:href="#linear-gradient"/>
  </defs>
  <g id="Group_830" data-name="Group 830" transform="translate(-632.336 -2027.875)">
    <g id="Group_703" data-name="Group 703" transform="translate(395.172 1886.595)">
      <g id="Group_700" data-name="Group 700" transform="translate(237.163 141.28)">
        <g id="Group_695" data-name="Group 695" transform="translate(43.146)">
          <path id="Path_2018" data-name="Path 2018" d="M1548.54,652.577a12.982,12.982,0,0,1-2.734,4.4l.879-4.326Z" transform="translate(-1496.577 -615.381)"/>
          <path id="Path_2019" data-name="Path 2019" d="M1301.624,435.145a4.323,4.323,0,0,0-3.04.9s-3.823-3.817-1.869-6.481,4.407-1.045,5.847.382,1.661,1.3,3.889,1.5a3.5,3.5,0,0,1,3.161,4.284c-.331,2.252,1.106,4.879-2.384,7.361C1303.126,446,1301.624,435.145,1301.624,435.145Z" transform="translate(-1288.303 -428.134)"/>
          <path id="Path_2020" data-name="Path 2020" d="M1308.272,514.831a6.017,6.017,0,0,1-1.8,1.5c-1.054.022-2.1.087-3.084.09a6.807,6.807,0,0,1-2.447-1.572,14.246,14.246,0,0,1-2.988-3.395c3.423-1.712,3.78-1.661,4.107-3.045.363-1.529-.223-9.631-.223-9.631h7.019s.435,7.947.68,9.273c.148.8,1.118,1.34,2.5,1.916A38.225,38.225,0,0,1,1308.272,514.831Z" transform="translate(-1289.801 -487.072)"/>
          <path id="Path_2021" data-name="Path 2021" d="M1321.5,508.78a2.245,2.245,0,0,0,.117-.37c.363-1.529-.223-9.631-.223-9.631h7.019s.435,7.947.68,9.273a1.3,1.3,0,0,0,.286.59Z" transform="translate(-1309.358 -487.072)" style="mix-blend-mode: multiply;isolation: isolate"/>
          <path id="Path_2022" data-name="Path 2022" d="M1322.83,514.625a4.723,4.723,0,0,1-.8-.042c-.107-2.754-.258-5.33-.258-5.33l4.745-.053C1326.393,512.189,1325.07,514.586,1322.83,514.625Z" transform="translate(-1309.673 -495.765)" opacity="0.3" style="mix-blend-mode: multiply;isolation: isolate"/>
          <path id="Path_2023" data-name="Path 2023" d="M1248.755,582.812s1.368-17.734,3.762-20.189a19.458,19.458,0,0,1,5.464-3.816c.564-.329,2.351-1.241,2.351-1.241a8.4,8.4,0,0,0,5.61,1.284c2.892-.563,2.853-2.52,2.853-2.52s1.29.253,2.472.428,5.939.613,8.035,3.28,8.167,10.812,8.167,10.812-7.75,8.264-10.354,9.394S1248.755,582.812,1248.755,582.812Z" transform="translate(-1248.755 -535.085)"/>
          <g id="Group_694" data-name="Group 694" transform="translate(9.991 4.42)">
            <circle id="Ellipse_67" data-name="Ellipse 67" cx="2.277" cy="2.277" r="2.277" transform="translate(5.435 7.489) rotate(-45)"/>
            <circle id="Ellipse_68" data-name="Ellipse 68" cx="1.2" cy="1.2" r="1.2" transform="translate(6.958 7.489) rotate(-45)"/>
            <path id="Path_2024" data-name="Path 2024" d="M1309.568,470.749c.056,3.208.507,5.784,3.586,5.7a5.532,5.532,0,0,0,4.952-5.844c-.056-3.208-1.339-5.888-4.8-5.792C1309.14,464.924,1309.512,467.541,1309.568,470.749Z" transform="translate(-1309.454 -463.148)"/>
            <path id="Path_2025" data-name="Path 2025" d="M1337.292,492.951a.321.321,0,1,0,.316-.327A.322.322,0,0,0,1337.292,492.951Z" transform="translate(-1332.61 -486.356)"/>
            <path id="Path_2026" data-name="Path 2026" d="M1312.647,493.517a.283.283,0,1,0,.278-.288A.283.283,0,0,0,1312.647,493.517Z" transform="translate(-1312.05 -486.862)"/>
            <path id="Path_2027" data-name="Path 2027" d="M1310.687,501.025a1,1,0,0,1-.773.989,10.745,10.745,0,0,1-.187-1.865c0-.034,0-.068,0-.1A1,1,0,0,1,1310.687,501.025Z" transform="translate(-1309.612 -492.549)"/>
            <path id="Path_2028" data-name="Path 2028" d="M1337.44,500.51a1,1,0,1,0,.98-1.015A1,1,0,0,0,1337.44,500.51Z" transform="translate(-1332.734 -492.089)"/>
            <path id="Path_2029" data-name="Path 2029" d="M1320.985,493.374l-1,1.962a.352.352,0,0,0,.308.512l1.188.016Z" transform="translate(-1318.137 -486.982)"/>
            <path id="Path_2030" data-name="Path 2030" d="M1357.243,488.776l.062,1.789-.629.046a12.668,12.668,0,0,0-.155-1.874Z" transform="translate(-1348.652 -483.113)"/>
            <path id="Path_2031" data-name="Path 2031" d="M1334.989,484.9c-.108-.02-.209-.05-.311-.075s-.2-.048-.3-.064a4.194,4.194,0,0,0-.6-.071,3.222,3.222,0,0,0-.6.036,2.908,2.908,0,0,0-.58.156l-.014.005a.094.094,0,0,1-.1-.152,1.451,1.451,0,0,1,.609-.358,2.1,2.1,0,0,1,.7-.094,2.42,2.42,0,0,1,.681.133,2.83,2.83,0,0,1,.315.135,3.232,3.232,0,0,1,.288.181.094.094,0,0,1-.071.17Z" transform="translate(-1328.575 -479.395)"/>
            <path id="Path_2032" data-name="Path 2032" d="M1311.329,485.528a2.579,2.579,0,0,1-.26-.029c-.085-.012-.169-.017-.251-.031a3.673,3.673,0,0,0-.483-.025,1.611,1.611,0,0,0-.45.06,1.162,1.162,0,0,0-.391.2l-.021.017a.092.092,0,0,1-.144-.1.828.828,0,0,1,.418-.448,1.286,1.286,0,0,1,.58-.135,2.043,2.043,0,0,1,.289.019,2.718,2.718,0,0,1,.276.063c.088.03.176.061.26.1a2.6,2.6,0,0,1,.241.135.1.1,0,0,1-.056.175Z" transform="translate(-1309.277 -480.026)"/>
            <path id="Path_2033" data-name="Path 2033" d="M1322.7,513.246c.007.376-.495.691-1.121.7s-1.141-.283-1.148-.659.514-.106,1.141-.118S1322.69,512.87,1322.7,513.246Z" transform="translate(-1318.542 -503.4)"/>
            <path id="Path_2034" data-name="Path 2034" d="M1314.38,465.336l-.771-.412c-3.019.47-3.184,1.88-3.279,2.527C1310.333,467.451,1313.5,466.679,1314.38,465.336Z" transform="translate(-1310.117 -463.247)" opacity="0.3" style="mix-blend-mode: multiply;isolation: isolate"/>
            <path id="Path_2035" data-name="Path 2035" d="M1317.143,455.909,1311.1,454.8l-2.055,2.172.316,1.392a2.605,2.605,0,0,1,.705-.925,3.683,3.683,0,0,0,1.876.2,5.82,5.82,0,0,0,1.366-.747,2.27,2.27,0,0,1,1.664,1c.733,1.9,1.6.956,1.94,2.537l.723.04Z" transform="translate(-1309.044 -454.804)"/>
          </g>
          <path id="Path_2036" data-name="Path 2036" d="M1285.253,632.586l-1.624,11.871,3.432.716C1285.966,643.3,1285.08,635.511,1285.253,632.586Z" transform="translate(-1277.85 -598.703)" opacity="0.55" style="mix-blend-mode: multiply;isolation: isolate"/>
          <path id="Path_2037" data-name="Path 2037" d="M1415.356,629.948a34.488,34.488,0,0,0,3.149,9.7l2.32-1.74S1416.782,633.086,1415.356,629.948Z" transform="translate(-1387.746 -596.502)" opacity="0.55" style="mix-blend-mode: multiply;isolation: isolate"/>
        </g>
        <path id="Path_2038" data-name="Path 2038" d="M1472.731,654.052l1.817-.3a18.75,18.75,0,0,1,1.075,5.6c.042,2.875-.9,3.813-1.663,4S1472.731,654.052,1472.731,654.052Z" transform="translate(-1392.467 -616.359)" fill="#f29d7e"/>
        <path id="Path_2039" data-name="Path 2039" d="M1472.731,654.052l1.817-.3a18.75,18.75,0,0,1,1.075,5.6c.042,2.875-.9,3.813-1.663,4S1472.731,654.052,1472.731,654.052Z" transform="translate(-1392.467 -616.359)" opacity="0.72" fill="url(#linear-gradient)" style="mix-blend-mode: multiply;isolation: isolate"/>
        <path id="Path_2040" data-name="Path 2040" d="M1021.639,666.685c.576-1.815,4.184-5.325,5.5-6.246a5.258,5.258,0,0,0-1.319-3.334,7.151,7.151,0,0,0-2.015-1.551c-2.365,2.026-6.062,6.662-7.25,10.56a19.6,19.6,0,0,0-.876,5.187c1.758.023,3.458.16,5.16.259A18.407,18.407,0,0,1,1021.639,666.685Z" transform="translate(-1011.158 -617.865)"/>
        <g id="Group_696" data-name="Group 696" transform="translate(10.581 63.752)">
          <path id="Path_2041" data-name="Path 2041" d="M1071.172,828.338a.391.391,0,0,0-.094-.055.444.444,0,0,0-.121-.073.208.208,0,0,0-.264.128.5.5,0,0,0,.084.391c.152.1.282.127.369.04S1071.226,828.535,1071.172,828.338Z" transform="translate(-1067.63 -825.649)" fill="#e8a48b"/>
          <path id="Path_2042" data-name="Path 2042" d="M1062.021,835.814c-.2.089-.178.287-.09.46.16.124.3.176.415.11s.131-.225.086-.43A.362.362,0,0,0,1062.021,835.814Z" transform="translate(-1060.275 -831.982)" fill="#e8a48b"/>
          <path id="Path_2043" data-name="Path 2043" d="M1067.98,833.9c.1-.089.11-.245.061-.439-.156-.123-.351-.19-.5-.058a.323.323,0,0,0-.018.415C1067.71,833.955,1067.869,834,1067.98,833.9Z" transform="translate(-1064.941 -829.934)" fill="#e8a48b"/>
          <path id="Path_2044" data-name="Path 2044" d="M1052.946,834.652a.285.285,0,0,0,.071-.073.839.839,0,0,0-.4-.38.309.309,0,0,0-.316.042.255.255,0,0,0-.043.052C1052.561,834.592,1052.808,834.751,1052.946,834.652Z" transform="translate(-1052.262 -830.635)" fill="#e8a48b"/>
          <path id="Path_2045" data-name="Path 2045" d="M1071.6,813.49a1.275,1.275,0,0,0-.357-.672.2.2,0,0,0-.092.209,1.733,1.733,0,0,0,.348.584.207.207,0,0,0,.05.046A.35.35,0,0,0,1071.6,813.49Z" transform="translate(-1068.016 -812.818)" fill="#e8a48b"/>
        </g>
        <path id="Path_2046" data-name="Path 2046" d="M1023.9,467.912a2.863,2.863,0,0,0,.974-3.534c-.446-.706-1.486-.907-1.558-1.614a2.917,2.917,0,0,0-3.534-2.2c-2.043.609-2.827-.273-3.715-1.558-.954-1.382-1.461-2.755-4.759-2.755s-4.174-.543-4.508-2.171-3.047-3.381-6.094-1.962-4.174,2.755-5.885,1.753-3.381-2.379-5.3-.96-1.169,4.967.96,5.3.626,2.672-.209,4.091.334,4.007,3.172,3.548,3.3.417,3.924,1.962,2.922,1.878,4.174,1.252,2.713-1.044,4.132.209,1.837,1.962,3.84,1.5,2.324-.111,3.284.64,3.228.32,3.228.32Z" transform="translate(-988.413 -447.709)" fill="#edbe30"/>
        <path id="Path_2047" data-name="Path 2047" d="M1027.065,514.631l.423-1.611-5.621-1.169c-2.783-1.837-3.506-1.5-5.565-1.336s-1.391-2.115-3.339-3.172-2.671.724-4.564.334-1-2.171-3.451-2.449c-2.312-.263-2.889,1.409-6.086.8-.2.354-.4.7-.578,1-.835,1.419.334,4.007,3.172,3.548s3.3.417,3.924,1.962,2.922,1.878,4.174,1.252,2.713-1.044,4.132.209,1.837,1.962,3.84,1.5,2.268-.223,3.228.529,3.117.612,3.117.612Z" transform="translate(-996.427 -492.428)" fill="#3d6acc" opacity="0.55" style="mix-blend-mode: multiply;isolation: isolate"/>
        <path id="Path_2048" data-name="Path 2048" d="M1103.836,573.649c-.108-1.545,1.705-9.708,1.705-9.708l-6.48-1.021s-1.66,8.083-2.083,9.346-2.815,1.512-5.675,2.326a5.512,5.512,0,0,0-1.208.524,13.876,13.876,0,0,0,1.135,2.941c.5,1.026,1.048,2.028,1.54,3.057,2.564,1.79,5.217,1.27,7.963,1.678.925.138,3.482-1.19,4.286-1,1.381-1.757,1.918-3.44,3.071-5.355C1104.758,574.49,1103.938,575.1,1103.836,573.649Z" transform="translate(-1073.244 -540.582)"/>
        <path id="Path_2049" data-name="Path 2049" d="M1184.77,645.163a25.691,25.691,0,0,0,1-4.778,8.153,8.153,0,0,1,3.281,2.472c1.188,1.664,2.139,6.418,2.139,6.418l-5.99-.19Z" transform="translate(-1152.228 -605.209)"/>
        <path id="Path_2050" data-name="Path 2050" d="M1136.767,574.026a2.276,2.276,0,0,1-.054-.378c-.108-1.545,1.705-9.708,1.705-9.708l-6.48-1.021s-1.66,8.083-2.083,9.346a1.326,1.326,0,0,1-.352.537Z" transform="translate(-1106.121 -540.582)" fill="url(#linear-gradient-2)" style="mix-blend-mode: multiply;isolation: isolate"/>
        <path id="Path_2051" data-name="Path 2051" d="M1150.482,579.085c.191,1.2,1.212,4.592,4.084,5.223.259-1.436.557-2.962.807-4.212Z" transform="translate(-1123.623 -554.068)" fill="#3d6acc" opacity="0.3" style="mix-blend-mode: multiply;isolation: isolate"/>
        <path id="Path_2053" data-name="Path 2053" d="M1157.19,537c-1.085,2.982-2.834,5.062-5.847,3.944-1.725-.64-3.175-3.851-2.089-6.833s2.367-4.97,5.985-3.936C1158.746,531.176,1158.276,534.017,1157.19,537Z" transform="translate(-1122.286 -513.033)"/>
        <path id="Path_2054" data-name="Path 2054" d="M1169.413,556.993a.3.3,0,1,1-.178-.381A.3.3,0,0,1,1169.413,556.993Z" transform="translate(-1138.935 -535.305)"/>
        <path id="Path_2055" data-name="Path 2055" d="M1192.72,564.938a.3.3,0,1,1-.176-.378A.3.3,0,0,1,1192.72,564.938Z" transform="translate(-1158.384 -541.935)"/>
        <path id="Path_2060" data-name="Path 2060" d="M1137.574,529.734a3.879,3.879,0,0,0,3.823.292c.918-.334,1.21-2.63,2.5-2.8s1.426.859,2.8.751c1.607-.125,1.788,1.044,1.788,1.044s.09-1.357-2.038-2.567-4.6-1.649-6.185-.48c-.52.383-.466,1.476-1.037,1.837A3.556,3.556,0,0,0,1137.574,529.734Z" transform="translate(-1112.854 -509.191)" fill="#3d6acc" opacity="0.3" style="mix-blend-mode: multiply;isolation: isolate"/>
        <path id="Path_2061" data-name="Path 2061" d="M1140.365,525.067c1.67,1.043,2.338,1.377,3.256,1.043s1.21-2.63,2.5-2.8,1.375.882,2.755.96c1.475.083,1.837.835,1.837.835s.918-1.669-1.21-2.88-5.426-1.336-7.013-.167A6.4,6.4,0,0,0,1140.365,525.067Z" transform="translate(-1115.182 -505.818)" fill="#edbe30"/>
        <path id="Path_2062" data-name="Path 2062" d="M1072.264,745.711h-28.8s4.063-16.864,8.237-25.268c4.09,1.016,10.171,1.281,14.248.167C1065.947,720.61,1071.986,736.417,1072.264,745.711Z" transform="translate(-1034.339 -672)"/>
        <path id="Path_2063" data-name="Path 2063" d="M1083.828,643.6c-.18,1.509-2.672,3.617-2.672,3.617-4.077,1.114-10.157.849-14.248-.167a27.445,27.445,0,0,0-1.363-5.732,6.192,6.192,0,0,0-1.642-3.284,4.5,4.5,0,0,0-2.065-1.315.161.161,0,0,1-.109-.262,21.689,21.689,0,0,1,2.842-2.332,12.507,12.507,0,0,1,3.045-1.645.179.179,0,0,1,.231.153c.108,1.091,2.268,5.365,4.759,6.071,2.8.793,9.485-.143,9.485-.143S1084.106,641.263,1083.828,643.6Z" transform="translate(-1049.548 -598.607)"/>
        <path id="Path_2064" data-name="Path 2064" d="M1134.682,625.374a5.825,5.825,0,0,1-3.441.984,5.02,5.02,0,0,1-4.3-2.346c-.045.029-.092.058-.141.086a5.147,5.147,0,0,0,4.444,2.427,5.978,5.978,0,0,0,3.556-1.029A.9.9,0,0,1,1134.682,625.374Z" transform="translate(-1103.863 -591.551)" fill="#faf8dc"/>
        <path id="Path_2065" data-name="Path 2065" d="M1168.265,550.009c.091-.016.182-.029.275-.041s.186-.011.28-.007a2.186,2.186,0,0,1,.556.088,1.863,1.863,0,0,1,.509.247,1.334,1.334,0,0,1,.393.407.038.038,0,0,1-.061.045l0,0a1.778,1.778,0,0,0-.408-.326,2.333,2.333,0,0,0-.478-.21,2.952,2.952,0,0,0-.517-.1,5.171,5.171,0,0,0-.536-.021h0a.038.038,0,0,1-.006-.076Z" transform="translate(-1138.432 -529.77)" fill="#c3b9dd" style="mix-blend-mode: multiply;isolation: isolate"/>
        <path id="Path_2066" data-name="Path 2066" d="M1190.223,557.971c.083-.015.166-.025.249-.037s.168-.01.253-.009a2.279,2.279,0,0,1,.506.06,1.852,1.852,0,0,1,.478.186,1.212,1.212,0,0,1,.391.336.038.038,0,0,1-.056.051l0,0a1.682,1.682,0,0,0-.4-.253,2.522,2.522,0,0,0-.45-.154,3.472,3.472,0,0,0-.474-.078c-.161-.016-.323-.018-.488-.023a.04.04,0,0,1-.039-.04A.038.038,0,0,1,1190.223,557.971Z" transform="translate(-1156.752 -536.416)" fill="#c3b9dd" style="mix-blend-mode: multiply;isolation: isolate"/>
        <path id="Path_2068" data-name="Path 2068" d="M1081.792,761.644l-57.961-2.618,6.81-74.907,57.961,2.618Z" transform="translate(-1017.962 -641.696)" fill="#fff"/>
        <path id="Path_2069" data-name="Path 2069" d="M1380.38,582.04l24.8-23.416-9.128,76.022-22.482,22.3Z" transform="translate(-1309.739 -536.999)" fill="#eeeedf"/>
        <path id="Path_2070" data-name="Path 2070" d="M1380.38,582.04l24.8-23.416-9.128,76.022-22.482,22.3Z" transform="translate(-1309.739 -536.999)" fill="#ddd"/>
        <g id="Group_697" data-name="Group 697" transform="translate(90.91 31.862)">
          <path id="Path_2071" data-name="Path 2071" d="M1541.569,623.881c-.053,1.587-.624,2.942-1.765,2.87-1.072-.067-1.383-1.36-1.688-2.136s-1.3-.97-1.13-1.417,1.19-.123,1.842.808a2.793,2.793,0,0,0-.8-1.086c-.612-.531-.791-.722-.6-.966s1.192.272,1.617.83.666.819.666.819a4.068,4.068,0,0,0-1.143-1.493c-.606-.338-1.159-.561-.985-.887s1.225-.017,1.975.629.808.868.808.868a5.272,5.272,0,0,0-1.223-1.386c-.591-.364-.936-.447-.848-.772s.833-.2,1.674.384A3.533,3.533,0,0,1,1541.569,623.881Z" transform="translate(-1536.966 -620.389)"/>
        </g>
        <path id="Path_2072" data-name="Path 2072" d="M1015.642,750.574a16.087,16.087,0,0,0,3.667,10.757c.6.847,2.572,3.936,3.08,3.576.256-.182.109-.669-.1-1.108.458.744,1.136,1.7,1.487,1.492.294-.175-.054-.932-.45-1.611.505.71,1.129,1.435,1.417,1.179.231-.206-.017-.768-.368-1.331.343.385.678.652.847.482.427-.43-1.454-2.956-1.454-2.956s.528.4.719.535c.3.212.765.414.8-.027s-1.08-1.979-3.114-3.86c-.973-1.446-1.467-4.081-1.373-6.868C1019.1,750.734,1017.4,750.6,1015.642,750.574Z" transform="translate(-1011.124 -697.137)"/>
        <g id="Group_698" data-name="Group 698" transform="translate(13.383 50.37)">
          <path id="Path_2073" data-name="Path 2073" d="M1096.437,768.965l-15.024-.668,3.064-36.227,15.06.659Z" transform="translate(-1079.383 -732.07)" fill="#edbe30"/>
          <path id="Path_2074" data-name="Path 2074" d="M1240.869,741.991l-23.981-1.051.24-2.8,23.985,1.049Z" transform="translate(-1192.407 -737.137)" fill="#edbe30"/>
          <path id="Path_2075" data-name="Path 2075" d="M1236.538,792.313l-23.968-1.054.24-2.794,23.972,1.053Z" transform="translate(-1188.804 -779.119)" fill="#edbe30"/>
          <path id="Path_2076" data-name="Path 2076" d="M1232.212,842.582l-23.955-1.057.24-2.791,23.959,1.056Z" transform="translate(-1185.206 -821.057)" fill="#edbe30"/>
          <path id="Path_2077" data-name="Path 2077" d="M1227.89,892.8l-23.942-1.06.239-2.788,23.946,1.059Z" transform="translate(-1181.611 -862.95)" fill="#edbe30"/>
          <path id="Path_2078" data-name="Path 2078" d="M1223.573,942.961l-23.929-1.064.239-2.785,23.933,1.063Z" transform="translate(-1178.02 -904.799)" fill="#edbe30"/>
          <path id="Path_2079" data-name="Path 2079" d="M1112.621,1037.539l-43.455-1.952,1.006-11.89,43.488,1.944Z" transform="translate(-1069.166 -975.367)" fill="#edbe30"/>
          <path id="Path_2080" data-name="Path 2080" d="M1120.932,984.985l-43.5-1.94.247-2.919,43.509,1.938Z" transform="translate(-1076.061 -939.016)" fill="#edbe30"/>
        </g>
        <g id="Group_699" data-name="Group 699" transform="translate(68.383 33.844)">
          <path id="Path_2081" data-name="Path 2081" d="M1490.088,749.86l-5.845,5.616.315-2.875,5.861-5.622Z" transform="translate(-1470.454 -727.981)" fill="#edbe30"/>
          <path id="Path_2082" data-name="Path 2082" d="M1484.487,800.912l-5.8,5.6.31-2.825,5.813-5.6Z" transform="translate(-1465.821 -770.615)" fill="#edbe30"/>
          <path id="Path_2083" data-name="Path 2083" d="M1478.982,851.082l-5.75,5.577.3-2.776,5.766-5.583Z" transform="translate(-1461.267 -812.511)" fill="#edbe30"/>
          <path id="Path_2084" data-name="Path 2084" d="M1425.587,897.227l-15.251,14.851.273-2.721,15.292-14.87Z" transform="translate(-1408.796 -851.046)" fill="#edbe30"/>
          <path id="Path_2085" data-name="Path 2085" d="M1420.781,944.473l-15.132,14.8.269-2.675,15.173-14.817Z" transform="translate(-1404.886 -890.499)" fill="#edbe30"/>
          <path id="Path_2086" data-name="Path 2086" d="M1416.055,990.944l-15.015,14.746.264-2.631,15.055-14.764Z" transform="translate(-1401.04 -929.305)" fill="#edbe30"/>
          <path id="Path_2087" data-name="Path 2087" d="M1445.834,645.716l-15.75,15.06,1.333-13.284,15.953-15.14Z" transform="translate(-1425.271 -632.352)" fill="#edbe30"/>
          <path id="Path_2088" data-name="Path 2088" d="M1422.991,807.922l-8.3,8.049,2-19.94,8.464-8.119Z" transform="translate(-1412.43 -762.132)" fill="#edbe30"/>
        </g>
      </g>
    </g>
  </g>
</svg>
