<svg xmlns="http://www.w3.org/2000/svg" width="303.871" height="314.241" viewBox="0 0 303.871 314.241"><defs><style>.a{fill:#717171;}.b{fill:#e2e2e2;stroke:#1a1818;}.b,.c,.e{stroke-miterlimit:10;}.b,.e{stroke-width:4px;}.c,.e{fill:none;stroke:#af9225;}.c{stroke-width:5px;}.d{fill:#fff;}.f,.g{stroke:none;}.g{fill:#af9225;}</style></defs><g transform="translate(15599.501 681.5)"><path class="a" d="M9.576-5.13V-39.9h-5.7V0h14.25V-5.13ZM27.987,0V-39.9h-5.7V0ZM53.409-34.2a5.717,5.717,0,0,0-5.7-5.7H35.739V0h11.97a5.717,5.717,0,0,0,5.7-5.7Zm-5.7,27.645A1.488,1.488,0,0,1,46.284-5.13H41.439V-34.77h4.845a1.488,1.488,0,0,1,1.425,1.425ZM60.534-39.9V0h14.25V-5.13h-8.55V-17.955h6.954v-5.13H66.234V-34.77h8.55V-39.9Zm28.5,21.945L93.765,0H99.75l-5.3-19.323a5.375,5.375,0,0,0,3.7-5.244V-34.2a5.717,5.717,0,0,0-5.7-5.7H80.484V0h5.7V-17.955Zm1.995-5.13H86.184V-34.77h4.845a1.488,1.488,0,0,1,1.425,1.425v8.835A1.488,1.488,0,0,1,91.029-23.085ZM109.155-6.27h6.783L116.85,0h5.928L115.71-39.9h-6.27L102.372,0H108.3ZM115.2-11.4h-5.3l2.052-14.25.456-5.586h.342l.456,5.586Zm9.975-28.5v5.13h11.4l-11.4,29.982V0h17.1V-5.13h-11.4l11.4-29.982V-39.9Zm33.459,22.23V-6.555a1.488,1.488,0,0,1-1.425,1.425h-3.42a1.488,1.488,0,0,1-1.425-1.425v-26.79a1.488,1.488,0,0,1,1.425-1.425h3.42a1.488,1.488,0,0,1,1.425,1.425V-28.5h5.7v-5.7a5.717,5.717,0,0,0-5.7-5.7h-6.27a5.717,5.717,0,0,0-5.7,5.7V-5.7a5.717,5.717,0,0,0,5.7,5.7h6.27a5.717,5.717,0,0,0,5.7-5.7V-22.8h-9.12v5.13ZM188.385-34.2a5.717,5.717,0,0,0-5.7-5.7h-6.27a5.717,5.717,0,0,0-5.7,5.7V-5.7a5.717,5.717,0,0,0,5.7,5.7h6.27a5.717,5.717,0,0,0,5.7-5.7Zm-5.7.855v26.79A1.488,1.488,0,0,1,181.26-5.13h-3.42a1.488,1.488,0,0,1-1.425-1.425v-26.79a1.488,1.488,0,0,1,1.425-1.425h3.42A1.488,1.488,0,0,1,182.685-33.345Z" transform="translate(-15550.933 -501)"/><g transform="translate(-15620.068 -822.867)"><path class="b" d="M248.355,419.867v3.572a3.73,3.73,0,0,0,3.571,3.571H260.5a3.73,3.73,0,0,0,3.571-3.571V402.01a7.461,7.461,0,0,0-7.143-7.143h-8.715V382.01h10.857a3.73,3.73,0,0,0,3.572-3.572V356.3a3.73,3.73,0,0,0-3.572-3.571h-7.143a3.731,3.731,0,0,0-3.571,3.571v5H234.069v-7.143a14.328,14.328,0,0,1,14.286-14.286h14.286a14.328,14.328,0,0,1,14.286,14.286V374.01c0,7-4.714,12.571-10.857,13.571v.714c6.143.43,12.286,6.144,12.286,14v23.285a14.327,14.327,0,0,1-14.286,14.286H248.355a14.327,14.327,0,0,1-14.286-14.286v-5.714"/></g><g transform="translate(-30059.131 -1890.449) rotate(180)"><path class="c" d="M262.556,600.033c0,79.312,67.458,144.574,149.435,144.574s149.436-65.262,149.436-144.574S493.969,455.459,411.991,455.459" transform="translate(-15023.557 -1956.056)"/><g class="d" transform="translate(-14651.959 -1477.724) rotate(-87)"><path class="f" d="M 40.75828552246094 37.49069976806641 L 5.840627193450928 37.49069976806641 L 23.96756744384766 18.49183082580566 L 40.75828552246094 37.49069976806641 Z"/><path class="g" d="M 23.8970832824707 22.18725967407227 L 11.68124008178711 34.99069213867188 L 35.21244049072266 34.99069213867188 L 23.8970832824707 22.18725967407227 M 24.03804206848145 14.79640579223633 L 46.30413055419922 39.99069213867188 L -3.814697265625e-06 39.99069213867188 L 24.03804206848145 14.79640579223633 Z"/></g><path class="e" d="M32.406,199.083s20.225,81.562,113.805,83.872" transform="matrix(0.966, 0.259, -0.259, 0.966, -14712.363, -1555.646)"/></g></g></svg>