<svg xmlns="http://www.w3.org/2000/svg" xmlns:xlink="http://www.w3.org/1999/xlink" width="69.146" height="113.737" viewBox="0 0 69.146 113.737"><defs><style>.a{fill:none;}.b{fill:#ffdc1c;}.ac,.ad,.av,.c,.j{isolation:isolate;}.d{fill:#a6601a;}.e{fill:#854f16;}.f{fill:#4f2e0d;}.g{clip-path:url(#a);}.h{fill:#c47a2f;}.i{clip-path:url(#b);}.ac,.av,.j{mix-blend-mode:screen;}.k{fill:#1c1105;}.l{clip-path:url(#c);}.m{fill:#858585;}.n{clip-path:url(#d);}.o{fill:#7a4815;}.p{clip-path:url(#e);}.q{fill:#6e451b;}.r{fill:#945817;}.s{fill:#57330e;}.t{clip-path:url(#f);}.u{fill:#d69142;}.v{clip-path:url(#g);}.w{fill:#ffad5a;}.x{fill:#c4721f;}.y{fill:#995f26;}.z{fill:#d6b400;}.aa{fill:#8c7700;}.ab{clip-path:url(#h);}.ac{fill:#b59d13;}.ad{fill:#c4c4c4;mix-blend-mode:multiply;}.ae{clip-path:url(#i);}.af{fill:#d6ab83;}.ag{fill:#f2d0ba;}.ah{fill:#e0b389;}.ai{fill:#696969;}.aj{fill:#787878;}.ak{fill:#85821c;}.al{fill:#c99c11;opacity:0.7;}.am{fill:#fddd00;opacity:0.35;}.an{fill:#ebebeb;}.ao{fill:#e6e6e6;}.ap{opacity:0.5;}.aq{fill:#9e9e9e;}.ar{clip-path:url(#j);}.as{opacity:0.75;}.at{fill:#fff;}.au{fill:#f0f0f0;}.av{fill:gray;}.aw{fill:#ffe036;}.ax{fill:#ffee8c;}.ay{clip-path:url(#k);}.az{fill:#4d4208;}.ba{fill:#73630c;}.bb{fill:#ffe561;}.bc{fill:#edce32;}</style><clipPath id="a"><path class="a" d="M451.506,704.032l-.022,2.407h-6.428l.022-2.407Z" transform="translate(-445.056 -704.032)"/></clipPath><clipPath id="b"><path class="a" d="M308.217,625.015l-.022,2.407-31.474-18.171.022-2.407Z" transform="translate(-276.722 -606.844)"/></clipPath><clipPath id="c"><path class="a" d="M295.645,550.1l-.019,6.84c-.007-1.305-.011-2.037-.019-3.342l.019-6.84C295.634,548.058,295.638,548.79,295.645,550.1Z" transform="translate(-295.607 -546.753)"/></clipPath><clipPath id="d"><path class="a" d="M624.346,539.2l.648,1.412c.007,1.305.011,2.037.019,3.342l-.649-1.725C624.357,541.078,624.353,540.347,624.346,539.2Z" transform="translate(-624.346 -539.198)"/></clipPath><clipPath id="e"><path class="a" d="M296.385,542.228l-.656,1.726c-.007-1.305-.011-2.037-.019-3.343l.658-1.412C296.375,540.348,296.379,541.08,296.385,542.228Z" transform="translate(-295.71 -539.199)"/></clipPath><clipPath id="f"><path class="a" d="M452.606,651.872l-.019,6.84h-5.771l.019-6.84Z" transform="translate(-446.816 -651.872)"/></clipPath><clipPath id="g"><path class="a" d="M452.422,641.459l.268,1.947h-5.77l.273-1.947Z" transform="translate(-446.92 -641.459)"/></clipPath><clipPath id="h"><path class="b" d="M375.522,466.87l-25.679,14.923L324,466.871l25.679-14.923Z" transform="translate(-323.998 -451.948)"/></clipPath><clipPath id="i"><path class="a" d="M331.607,109.621c-7.529.282-9.119-2.285-20.064-.2-46.722,8.89-4.014,73.286-4.014,75.472a8.72,8.72,0,0,0,.82,3.7c.182.379.463.865.685,1.221a9.943,9.943,0,0,0,.86,1.115c.231.267.57.595.828.835a12.788,12.788,0,0,0,1.973,1.451,14.416,14.416,0,0,0,1.711.873,16.713,16.713,0,0,0,1.748.637,18.722,18.722,0,0,0,3.577.7c.271.024.632.061.9.069s.634.026.906.029.635-.007.908-.011c.539-.007,1.1-.067,1.815-.144a18.484,18.484,0,0,0,3.608-.819,15.182,15.182,0,0,0,1.785-.73,13.184,13.184,0,0,0,1.743-1c.205-.137.474-.329.666-.484.284-.23.65-.551.919-.8a11.679,11.679,0,0,0,.925-1.019,9.462,9.462,0,0,0,1.434-2.507,8.23,8.23,0,0,0,.451-1.682,7.734,7.734,0,0,0,.093-.95C335.887,183.938,377.563,107.9,331.607,109.621Z" transform="translate(-289.682 -108.597)"/></clipPath><clipPath id="j"><path class="a" d="M359.536,300.389c-11.1,6.227-28.839,6.048-39.627-.4C314.9,297,312.276,293.18,312,289.327c-.033,11.8,11.758,22.87,12.759,37.1.147,2.083,1.567,4.146,4.273,5.763,5.831,3.486,15.421,3.583,21.419.217,2.882-1.617,4.411-3.74,4.575-5.895,1.082-14.222,12.936-25.228,12.969-37.025C367.7,293.471,364.868,297.4,359.536,300.389Z" transform="translate(-312.005 -289.327)"/></clipPath><clipPath id="k"><path class="a" d="M523.768,580.192l.016,5.641-19.821,11.443-.016-5.641Z" transform="translate(-503.947 -580.192)"/></clipPath></defs><g transform="translate(-217.706 -64.777)"><g transform="translate(204.134 54.7)"><g transform="translate(13.572 10.077)"><g transform="translate(0 64.197)"><g transform="translate(0 7.302)"><g transform="translate(0.057)"><g class="c"><path class="d" d="M346.1,509.287c.007,1.305.012,2.137.019,3.442l-31.461,18.283h-5.942l-31.666-18.283c-.007-1.305-.012-2.137-.019-3.442L308.49,491h5.942Z" transform="translate(-277.029 -491.004)"/><g transform="translate(37.845 21.689)"><path class="e" d="M510.677,607,479.46,625.146l-.022,2.407L510.677,609.4Z" transform="translate(-479.438 -607.004)"/></g><g transform="translate(0.018 21.69)"><path class="f" d="M277.126,607.01v2.42l31.4,18.128.022-2.407Z" transform="translate(-277.126 -607.01)"/></g><g class="c" transform="translate(31.416 39.83)"><g class="g"><path class="h" d="M451.506,704.032l-.022,2.407h-6.428l.022-2.407Z" transform="translate(-445.056 -704.032)"/></g></g></g></g><g transform="translate(0 21.659)"><g class="i"><g class="j" transform="translate(-5.62 12.24)"><rect class="k" width="46.288" height="3.299"/></g></g></g></g><g transform="translate(3.531 0.223)"><g class="c"><g class="c" transform="translate(0 17.503)"><g class="l"><g class="c"><path class="m" d="M295.645,550.1l-.019,6.84c-.007-1.305-.011-2.037-.019-3.342l.019-6.84c.007,1.305.012,2.037.019,3.343Z" transform="translate(-295.607 -546.753)"/></g></g></g><g class="c" transform="translate(61.465 16.09)"><g class="n"><g class="c"><path class="o" d="M624.346,539.2l.648,1.412c.007,1.305.011,2.037.019,3.342l-.649-1.725c-.006-1.149-.01-1.881-.017-3.029Z" transform="translate(-624.346 -539.198)"/></g></g></g><g class="c" transform="translate(0.019 16.091)"><g class="p"><path class="q" d="M296.385,542.228l-.656,1.726c-.007-1.305-.011-2.037-.019-3.343l.658-1.412c.007,1.149.011,1.881.017,3.029Z" transform="translate(-295.71 -539.199)"/></g></g><g transform="translate(34.042 20.845)"><path class="r" d="M505.768,564.628l-.019,6.84-28.069,16.312.019-6.84Z" transform="translate(-477.679 -564.628)"/></g><g transform="translate(0.019 20.845)"><path class="s" d="M323.98,580.942l-.019,6.84L295.707,571.47l.019-6.84Z" transform="translate(-295.707 -564.63)"/></g><g class="c" transform="translate(28.272 37.157)"><g class="t"><path class="h" d="M452.606,651.872l-.019,6.84h-5.771l.019-6.84Z" transform="translate(-446.816 -651.872)"/></g></g><g transform="translate(33.794 19.12)"><path class="u" d="M504.038,555.4l.649,1.726-28.069,16.312-.268-1.947Z" transform="translate(-476.349 -555.4)"/></g><g class="c" transform="translate(28.291 35.21)"><g class="v"><path class="w" d="M452.422,641.459l.268,1.947h-5.77l.273-1.947Z" transform="translate(-446.92 -641.459)"/></g></g><g transform="translate(0.677)"><path class="x" d="M360.017,469.23c.007,1.149.011,1.88.017,3.029L332.346,488.35h-5.23l-27.869-16.09c-.006-1.149-.01-1.88-.017-3.029l27.688-16.091h5.23Z" transform="translate(-299.23 -453.14)"/></g><g transform="translate(0.038 19.12)"><path class="y" d="M324.337,571.492l-.273,1.947-28.253-16.312.656-1.726Z" transform="translate(-295.811 -555.401)"/></g></g></g><g class="c" transform="translate(8.83)"><g transform="translate(25.846 14.922)"><path class="z" d="M487.867,531.756l-.01,3.4L462.178,550.08l.01-3.4Z" transform="translate(-462.178 -531.756)"/></g><g transform="translate(0 14.923)"><path class="aa" d="M349.8,546.684l-.01,3.4-25.845-14.922.01-3.4Z" transform="translate(-323.946 -531.762)"/></g><g transform="translate(0.01)"><path class="b" d="M375.522,466.87l-25.679,14.923L324,466.871l25.679-14.923Z" transform="translate(-323.998 -451.948)"/><g class="ab"><rect class="ac" width="47.931" height="9.197" transform="translate(23.21 40.227) rotate(-66.942)"/><rect class="ac" width="47.93" height="3.99" transform="translate(13.129 38.978) rotate(-66.942)"/></g></g><ellipse class="ad" cx="13.622" cy="8.978" rx="13.622" ry="8.978" transform="translate(11.958 5.791)"/></g></g><g transform="translate(2.423)"><g class="ae"><g transform="translate(4.15 5.408)"><g transform="translate(39.052 62.254)"><path class="af" d="M525.256,475.132c-1.341,1.408-4.811-.285-4.493-1.14a7.26,7.26,0,0,1,1.477-2.76c1.446-1.606,4.351-.368,4.5,1.191C526.818,473.207,525.729,474.635,525.256,475.132Z" transform="translate(-520.743 -470.48)"/><path class="ag" d="M526.776,481.877a3.263,3.263,0,0,1-2.969-1.281c-.167-.421.779-1.683,1.2-1.85a2.612,2.612,0,0,1,2.665,1.056A2.779,2.779,0,0,1,526.776,481.877Z" transform="translate(-523.218 -477.137)"/></g><g transform="translate(34.861 59.655)"><path class="ah" d="M502.506,460.682c-1.247,1.309-4.228-.213-4.176-1.06a4.321,4.321,0,0,1,1.06-2.306c1.255-1.568,4.044-.342,4.184,1.107A3.725,3.725,0,0,1,502.506,460.682Z" transform="translate(-498.329 -456.584)"/><path class="ag" d="M503.827,467.7a3.033,3.033,0,0,1-2.76-1.191c-.155-.391.608-1.167,1-1.322a2.428,2.428,0,0,1,2.477.982A1.713,1.713,0,0,1,503.827,467.7Z" transform="translate(-500.539 -463.518)"/></g><path class="ai" d="M410.149,553.809c-5.517,3.1-14.336,3.007-19.7-.2-2.637-1.577-3.947-3.613-3.941-5.644a8.56,8.56,0,0,0,.8,3.632c.179.372.455.849.673,1.2a9.714,9.714,0,0,0,.845,1.1c.227.262.559.584.813.82a12.558,12.558,0,0,0,1.936,1.424,14.163,14.163,0,0,0,1.68.857,16.417,16.417,0,0,0,1.716.625,18.367,18.367,0,0,0,3.512.689c.266.023.62.06.887.068s.622.026.889.029.624-.007.891-.011c.529-.007,1.082-.066,1.782-.141a18.142,18.142,0,0,0,3.542-.8,14.909,14.909,0,0,0,1.753-.716,12.915,12.915,0,0,0,1.712-.983c.2-.135.465-.323.654-.475.279-.225.638-.541.9-.783a11.47,11.47,0,0,0,.909-1,9.3,9.3,0,0,0,1.408-2.461,8.109,8.109,0,0,0,.443-1.652,7.6,7.6,0,0,0,.091-.933C414.178,550.408,412.774,552.336,410.149,553.809Z" transform="translate(-372.555 -471.225)"/><path class="m" d="M386.537,473.381l-.028,8.879a7.526,7.526,0,0,0,3.941,6.107c5.363,3.206,14.182,3.295,19.7.2a7.635,7.635,0,0,0,4.221-6.228l.028-8.88C414.215,465.442,386.359,464.689,386.537,473.381Z" transform="translate(-372.555 -405.519)"/><path class="aj" d="M410.177,500.494c-5.517,3.1-14.336,3.007-19.7-.2-2.637-1.577-3.947-3.613-3.941-5.644l-.028,9.968a7.526,7.526,0,0,0,3.941,6.107c5.363,3.206,14.182,3.295,19.7.2a7.635,7.635,0,0,0,4.221-6.228l.028-9.968C414.392,496.828,412.981,498.921,410.177,500.494Z" transform="translate(-372.555 -427.878)"/><path class="ak" d="M406.132,494.085c-6,3.366-15.588,3.269-21.419-.217-2.532-1.513-3.938-3.417-4.228-5.362a7.524,7.524,0,0,0,1.37,3.4,9.767,9.767,0,0,0,1.366,1.527,12.341,12.341,0,0,0,2.017,1.483,15.739,15.739,0,0,0,1.844.939,19.3,19.3,0,0,0,1.964.715,20.513,20.513,0,0,0,2.055.507c.921.18,1.613.255,2.118.31a24.259,24.259,0,0,0,4.34.041,21.762,21.762,0,0,0,4.171-.728,18.454,18.454,0,0,0,3.127-1.178,13.844,13.844,0,0,0,1.861-1.088,11.82,11.82,0,0,0,1.255-1,10.13,10.13,0,0,0,.895-.933c.121-.152.288-.351.4-.511a8.551,8.551,0,0,0,.549-.865,7.325,7.325,0,0,0,.658-1.605,7.106,7.106,0,0,0,.178-.839c.026-.147.04-.346.056-.495C410.543,490.345,409.014,492.468,406.132,494.085Z" transform="translate(-367.657 -422.625)"/><path class="al" d="M367.736,162.033a26.794,26.794,0,0,0-.6-3.337,38.97,38.97,0,0,0-1.333-4.058,27.663,27.663,0,0,0-11.7-13.3,32.231,32.231,0,0,0-3-1.512,28.024,28.024,0,0,0-3.053-1.112c-.407-.112-.946-.279-1.359-.371-1.676-.371-1.676-.371-2.666-.521-.387-.059-.9-.129-1.3-.159-1.613-.125-1.71-.133-2.541-.139-.762-.006-1.777.043-2.537.087-.392.022-.914.082-1.3.133-.406.053-.946.132-1.349.2s-.937.187-1.339.267-.948.237-1.354.34a27.146,27.146,0,0,0-3.24,1.117c-.926.382-2.114,1-3,1.459-.627.361-1.449.869-2.052,1.27-.457.3-1.038.749-1.478,1.076a24.025,24.025,0,0,0-2.258,1.964,31.008,31.008,0,0,0-2.436,2.692,35,35,0,0,0-2.286,3.37,27.852,27.852,0,0,0-2.569,6.031,31.5,31.5,0,0,0-.743,3.289c-.188,1.308-.3,3.071-.36,4.392q0,.346.023.692c-.033,11.8,11.758,22.87,12.759,37.1.147,2.083,1.567,4.146,4.273,5.763,5.831,3.486,15.421,3.583,21.419.217,2.882-1.617,4.411-3.74,4.575-5.895,1.082-14.222,12.936-25.228,12.969-37.025q.026-.346.027-.692C367.908,164.367,367.854,163.028,367.736,162.033Z" transform="translate(-311.88 -137.523)"/><path class="am" d="M367.736,162.033a26.794,26.794,0,0,0-.6-3.337,38.97,38.97,0,0,0-1.333-4.058,27.663,27.663,0,0,0-11.7-13.3,32.231,32.231,0,0,0-3-1.512,28.024,28.024,0,0,0-3.053-1.112c-.407-.112-.946-.279-1.359-.371-1.676-.371-1.676-.371-2.666-.521-.387-.059-.9-.129-1.3-.159-1.613-.125-1.71-.133-2.541-.139-.762-.006-1.777.043-2.537.087-.392.022-.914.082-1.3.133-.406.053-.946.132-1.349.2s-.937.187-1.339.267-.948.237-1.354.34a27.146,27.146,0,0,0-3.24,1.117c-.926.382-2.114,1-3,1.459-.627.361-1.449.869-2.052,1.27-.457.3-1.038.749-1.478,1.076a24.025,24.025,0,0,0-2.258,1.964,31.008,31.008,0,0,0-2.436,2.692,34.976,34.976,0,0,0-2.286,3.37,27.846,27.846,0,0,0-2.57,6.031,31.5,31.5,0,0,0-.743,3.289c-.188,1.308-.3,3.071-.36,4.392q0,.346.023.692c.271,3.853,2.9,7.669,7.905,10.662,10.787,6.449,28.529,6.628,39.627.4,5.332-2.992,8.16-6.918,8.464-10.906q.026-.346.027-.692C367.908,164.367,367.854,163.028,367.736,162.033Z" transform="translate(-311.88 -137.523)"/><path class="an" d="M412.235,531.133c-.173,1.962-1.577,3.891-4.2,5.364-5.517,3.1-14.336,3.007-19.7-.2-2.637-1.576-3.947-3.613-3.941-5.644-.87,1.214-.251,2.689.077,3.526a9.418,9.418,0,0,0,3.864,3.967c5.363,3.206,14.182,3.295,19.7.2a10.573,10.573,0,0,0,3.792-3.422C413.017,533.191,412.711,531.062,412.235,531.133Z" transform="translate(-370.473 -457.15)"/><path class="ao" d="M412.235,510.523c-.173,1.962-1.577,3.891-4.2,5.364-5.517,3.1-14.336,3.007-19.7-.2-2.637-1.576-3.947-3.613-3.941-5.644-.87,1.214-.251,2.689.077,3.526a9.418,9.418,0,0,0,3.864,3.967c5.363,3.206,14.182,3.295,19.7.2a10.573,10.573,0,0,0,3.792-3.422C413.017,512.581,412.711,510.452,412.235,510.523Z" transform="translate(-370.473 -440.393)"/><g class="ap" transform="translate(20.478 18.893)"><path class="ai" d="M426.819,302.548a26.207,26.207,0,0,0,3.9.019l5.308-52.378a.462.462,0,1,0-.92-.093l-5.306,52.354-2.061.056L422.323,258a.462.462,0,0,0-.918.112Z" transform="translate(-421.402 -247.603)"/><g transform="translate(0.029)"><path class="aq" d="M421.559,250.114l.1-.058a4.167,4.167,0,0,0,1.292-1.68,2.888,2.888,0,0,1-.607-1.72,2.222,2.222,0,0,1,.242-1.031,2.057,2.057,0,0,1,.8-.847,1.176,1.176,0,0,1,.573-.183.6.6,0,0,1,.376.126,1.022,1.022,0,0,1,.3.838,6.867,6.867,0,0,1-.59,2.372,1.1,1.1,0,0,0,.647.241.882.882,0,0,0,.445-.125,4.188,4.188,0,0,0,1.292-1.681,2.891,2.891,0,0,1-.607-1.72,2.2,2.2,0,0,1,.243-1.032,2.024,2.024,0,0,1,.8-.844,1.175,1.175,0,0,1,.573-.183.6.6,0,0,1,.376.126,1.009,1.009,0,0,1,.3.838,6.871,6.871,0,0,1-.59,2.372,1.1,1.1,0,0,0,.647.241.882.882,0,0,0,.445-.125,4.168,4.168,0,0,0,1.292-1.68,2.89,2.89,0,0,1-.608-1.72,2.206,2.206,0,0,1,.243-1.032,2.051,2.051,0,0,1,.8-.846,1.173,1.173,0,0,1,.572-.182.585.585,0,0,1,.378.129,1.007,1.007,0,0,1,.3.834,6.889,6.889,0,0,1-.592,2.373,1.106,1.106,0,0,0,.648.242.88.88,0,0,0,.443-.124,4.172,4.172,0,0,0,1.292-1.68,2.893,2.893,0,0,1-.608-1.72,2.23,2.23,0,0,1,.243-1.031,2.052,2.052,0,0,1,.8-.847,1.176,1.176,0,0,1,.573-.182.6.6,0,0,1,.376.126,1.02,1.02,0,0,1,.3.837,6.872,6.872,0,0,1-.59,2.372,1.1,1.1,0,0,0,.646.242.883.883,0,0,0,.446-.125l.295-.17.008,1.028-.1.058a1.738,1.738,0,0,1-.874.247,1.714,1.714,0,0,1-.9-.266,5.416,5.416,0,0,1-1.708,2.029,1.73,1.73,0,0,1-.87.245,1.708,1.708,0,0,1-.9-.268,5.406,5.406,0,0,1-1.707,2.031,1.734,1.734,0,0,1-.873.246,1.711,1.711,0,0,1-.9-.267,5.378,5.378,0,0,1-1.705,2.029,1.732,1.732,0,0,1-.873.246,1.71,1.71,0,0,1-.9-.268,5.406,5.406,0,0,1-1.707,2.031l-.295.17Zm2.156-4.477a.528.528,0,0,0-.126.057.643.643,0,0,0-.267.26.926.926,0,0,0-.081.411,1.937,1.937,0,0,0,.21.826,4.594,4.594,0,0,0,.289-1.342A.654.654,0,0,0,423.715,245.637Zm3.48-2.009a.524.524,0,0,0-.128.058.65.65,0,0,0-.267.26.924.924,0,0,0-.08.411,1.941,1.941,0,0,0,.211.824,4.614,4.614,0,0,0,.291-1.342A.638.638,0,0,0,427.194,243.628Zm3.48-2.009a.524.524,0,0,0-.126.057.635.635,0,0,0-.266.258.926.926,0,0,0-.084.415,1.92,1.92,0,0,0,.212.824,4.649,4.649,0,0,0,.29-1.342A.654.654,0,0,0,430.674,241.619Zm3.478-2.008a.53.53,0,0,0-.126.057.641.641,0,0,0-.267.26.919.919,0,0,0-.08.411,1.94,1.94,0,0,0,.21.827,4.605,4.605,0,0,0,.289-1.343A.655.655,0,0,0,434.152,239.611Z" transform="translate(-421.559 -238.569)"/></g></g><g transform="translate(0.023 28.383)"><g class="ar"><g class="as" transform="translate(22.649 25.27)"><path class="at" d="M443.81,427.919a4.212,4.212,0,0,0-.225-.561c-.094-.192-.241-.437-.355-.617a4.927,4.927,0,0,0-.756-.869c-.033-.028-.059-.071-.094-.1-.022.159-.152,1.467-.168,1.661-.054.228-.868.347-.9-.13-.011-.163.185-1.954.205-2.114q-.1-.054-.205-.11a5.715,5.715,0,0,0-1.448-.491,6.023,6.023,0,0,0-2.739.1,5.576,5.576,0,0,0-.645.222c-.178.073-.407.191-.577.28a5.56,5.56,0,0,0-.723.488c-.024.2.265,2.525.316,2.831-.085.306-.731.442-.867.068-.1-.7-.26-1.891-.27-2.056a5.526,5.526,0,0,0-.343.515,4.763,4.763,0,0,0-.439,1.03,5.33,5.33,0,0,0-.126.556c-.032.221-.051.518-.061.741a2.63,2.63,0,0,0,1.507,2.159,8.3,8.3,0,0,0,7.533.076,2.682,2.682,0,0,0,1.614-2.2A4.6,4.6,0,0,0,443.81,427.919Z" transform="translate(-433.342 -424.479)"/><path class="au" d="M442.227,452.858a8.3,8.3,0,0,1-7.533-.076,2.63,2.63,0,0,1-1.507-2.159l-.047,16.437a2.629,2.629,0,0,0,1.507,2.159,8.3,8.3,0,0,0,7.534.076,2.682,2.682,0,0,0,1.614-2.2l.047-16.437A2.682,2.682,0,0,1,442.227,452.858Z" transform="translate(-433.14 -445.735)"/></g></g></g><ellipse class="av" cx="7.859" cy="5.157" rx="7.859" ry="5.157" transform="translate(5.827 12.317) rotate(-32.629)"/></g></g></g></g><g transform="translate(55.575 97.972)"><g transform="translate(0 0)"><g class="c"><g transform="translate(0 11.443)"><path class="aa" d="M501.868,645.819l-.482-.28-.016-5.641.482.28Z" transform="translate(-501.37 -639.898)"/></g><path class="aw" d="M501.852,590.418l-.482-.28,19.821-11.443.482.28Z" transform="translate(-501.37 -578.694)"/><g transform="translate(0.482 0.28)"><path class="z" d="M523.768,580.192l.016,5.641-19.821,11.443-.016-5.641Z" transform="translate(-503.947 -580.192)"/></g></g></g><g class="j" transform="translate(2.855 2.971)"><g transform="translate(0 7.42)"><path class="ax" d="M516.727,635.075q.082-.047.337-.18c.13-.067.234-.122.31-.166l.72-.438c.061-.035.092-.028.092.021a.158.158,0,0,1-.081.122.943.943,0,0,0-.247.222.847.847,0,0,0-.1.324,8.443,8.443,0,0,0-.031.97q0,.852.027,1.3a1.055,1.055,0,0,0,.1.518c.048.045.128.035.238-.028.077-.045.116-.043.116,0a.2.2,0,0,1-.124.167l-.1.056c-.294.147-.494.25-.6.313q-.355.205-.524.327c-.059.042-.1.069-.126.083-.058.033-.087.025-.087-.027a.147.147,0,0,1,.073-.115.845.845,0,0,0,.268-.283,1.445,1.445,0,0,0,.083-.523q.012-.382.01-1.171c0-.555-.01-.923-.028-1.1s-.047-.276-.087-.3-.116,0-.228.051c-.06.028-.09.018-.09-.032A.143.143,0,0,1,516.727,635.075Z" transform="translate(-516.64 -634.268)"/></g><g transform="translate(2.992 5.225)"><path class="ax" d="M535.931,622.8a1.361,1.361,0,0,1,.246.865,2.8,2.8,0,0,1-.141.859,3.325,3.325,0,0,1-.41.843,3.206,3.206,0,0,1-.534.631,3.988,3.988,0,0,1-.624.437q-.1.06-.847.473l-.516.3-.3.17a.447.447,0,0,1-.134.062c-.018,0-.027-.016-.027-.049a.164.164,0,0,1,.1-.137.863.863,0,0,0,.281-.238.727.727,0,0,0,.113-.344c.015-.143.028-.421.04-.831s.018-.786.018-1.124a3.156,3.156,0,0,0-.063-.843c-.041-.086-.139-.088-.3-.005-.057.028-.085.016-.085-.032a.131.131,0,0,1,.075-.116c.029-.017.131-.065.3-.145q.285-.134.4-.2l.889-.536a2.175,2.175,0,0,1,.859-.3A.7.7,0,0,1,535.931,622.8Zm-.844,2.684a2.825,2.825,0,0,0,.283-1.3,1.453,1.453,0,0,0-.312-1.053q-.309-.308-.878.021a1.02,1.02,0,0,0-.233.161.238.238,0,0,0-.048.08c-.006.021-.015.228-.027.621l-.026.93q-.006.342,0,.84a2.807,2.807,0,0,0,.03.5.169.169,0,0,0,.125.146.52.52,0,0,0,.312-.1,1.983,1.983,0,0,0,.778-.846Z" transform="translate(-532.641 -622.529)"/></g><g transform="translate(8.137 2.109)"><path class="ax" d="M560.305,607.257l.566-.308,1.893-1.086c.051.252.1.5.15.756a.125.125,0,0,1-.068.117c-.025.014-.052.005-.084-.027a.728.728,0,0,0-.443-.277,1.175,1.175,0,0,0-.58.206,3.433,3.433,0,0,0-.408.277q-.041.5-.04,1.068c0,.065,0,.172.006.323l.178-.1a1.35,1.35,0,0,0,.288-.219.983.983,0,0,0,.2-.342,2.744,2.744,0,0,0,.1-.276.184.184,0,0,1,.072-.127c.045-.026.067-.017.067.026a.266.266,0,0,1-.005.047q-.027.182-.024,1.015a.973.973,0,0,0,.018.2.167.167,0,0,1,.006.043.133.133,0,0,1-.075.119c-.034.019-.061-.012-.08-.1-.032-.148-.1-.235-.215-.258a.886.886,0,0,0-.527.168c-.007.306-.01.507-.01.6q0,.615.019.721a.126.126,0,0,0,.121.117.7.7,0,0,0,.349-.13,2.467,2.467,0,0,0,1.174-1.331.26.26,0,0,1,.086-.141c.046-.027.068-.018.068.025a.662.662,0,0,1-.014.12l-.15.861-.85.488q-.359.2-.67.368c-.207.108-.369.2-.487.265s-.329.2-.593.369c-.033.023-.057.038-.072.047q-.111.064-.112-.018a.149.149,0,0,1,.089-.127.686.686,0,0,0,.306-.319,1.752,1.752,0,0,0,.077-.623l.01-1.4c0-.474-.008-.762-.018-.865s-.038-.16-.081-.174a.457.457,0,0,0-.247.055c-.05.023-.076.011-.076-.032A.146.146,0,0,1,560.305,607.257Z" transform="translate(-560.158 -605.863)"/></g><g transform="translate(12.491)"><path class="ax" d="M586.693,597.237c.047-.021.07-.01.07.03a.154.154,0,0,1-.09.135c-.034.019-.119.062-.256.129-.163.078-.3.149-.41.213s-.249.151-.422.265c-.13.086-.215.14-.256.164-.071.041-.107.035-.107-.016a.138.138,0,0,1,.074-.11.538.538,0,0,0,.288-.428,1.238,1.238,0,0,0-.085-.349,3.249,3.249,0,0,0-.182-.421l-.238.135q-.473.273-.736.428a5.088,5.088,0,0,0-.2.959c0,.1.033.157.1.172a.328.328,0,0,0,.219-.031c.06-.027.089-.016.09.032a.158.158,0,0,1-.1.128c-.025.014-.092.048-.2.1-.138.067-.238.119-.3.154a3.779,3.779,0,0,0-.352.23.591.591,0,0,1-.07.049c-.058.033-.087.023-.088-.031a.149.149,0,0,1,.057-.111,1.461,1.461,0,0,0,.22-.24,1.717,1.717,0,0,0,.172-.357,7.69,7.69,0,0,0,.22-.74q.29-1.111.861-3.052l.16-.093q.312.592.881,1.922a3.5,3.5,0,0,0,.362.716C586.446,597.29,586.55,597.3,586.693,597.237Zm-2.282-.084.829-.492c-.044-.117-.112-.271-.2-.464q-.148-.314-.222-.483l-.4,1.44Z" transform="translate(-583.448 -594.583)"/></g></g><g transform="translate(0.482 0.28)"><g class="ay"><g class="j" transform="translate(-0.291 -9.833)"><rect class="az" width="44.489" height="0.52" transform="translate(0 40.415) rotate(-64.358)"/><rect class="az" width="44.489" height="0.52" transform="translate(3.891 40.361) rotate(-64.358)"/><rect class="ba" width="44.489" height="1.439" transform="translate(1.816 40.108) rotate(-64.36)"/></g></g></g></g></g><g transform="translate(260.87 153.854)"><g transform="translate(0 10.468)"><g class="c"><path class="bb" d="M508.207,641.029a.259.259,0,0,0-.261.026.806.806,0,0,0-.366.633.257.257,0,0,0,.107.235l.14.081a.257.257,0,0,1-.107-.235.807.807,0,0,1,.366-.634.258.258,0,0,1,.261-.025Z" transform="translate(-507.58 -641.004)"/><g transform="translate(0.14 0.081)"><path class="bc" d="M508.695,641.49c.2-.117.367-.023.368.21a.806.806,0,0,1-.366.633c-.2.117-.367.023-.368-.21A.807.807,0,0,1,508.695,641.49Z" transform="translate(-508.329 -641.439)"/></g></g></g><g transform="translate(0 14.208)"><g class="c"><path class="bb" d="M508.207,661.036a.258.258,0,0,0-.261.026.806.806,0,0,0-.366.634.257.257,0,0,0,.107.235l.14.081a.256.256,0,0,1-.107-.235.806.806,0,0,1,.366-.634.258.258,0,0,1,.261-.026Z" transform="translate(-507.58 -661.011)"/><g transform="translate(0.14 0.081)"><path class="bc" d="M508.695,661.5c.2-.117.367-.023.368.21a.806.806,0,0,1-.366.633c-.2.117-.367.023-.368-.21A.807.807,0,0,1,508.695,661.5Z" transform="translate(-508.329 -661.446)"/></g></g></g><g transform="translate(17.902 0)"><g class="c"><path class="bb" d="M603.953,585.043a.259.259,0,0,0-.261.025.807.807,0,0,0-.366.634.257.257,0,0,0,.107.235l.14.081a.257.257,0,0,1-.107-.235.806.806,0,0,1,.366-.633.258.258,0,0,1,.261-.026Z" transform="translate(-603.326 -585.019)"/><g transform="translate(0.14 0.081)"><path class="bc" d="M604.442,585.5c.2-.117.367-.023.368.21a.806.806,0,0,1-.365.633c-.2.117-.368.023-.368-.21A.806.806,0,0,1,604.442,585.5Z" transform="translate(-604.076 -585.454)"/></g></g></g><g transform="translate(17.902 3.741)"><g class="c"><path class="bb" d="M603.953,605.05a.258.258,0,0,0-.261.026.807.807,0,0,0-.366.634.257.257,0,0,0,.107.235l.14.081a.257.257,0,0,1-.107-.235.805.805,0,0,1,.366-.633.258.258,0,0,1,.261-.026Z" transform="translate(-603.326 -605.025)"/><g transform="translate(0.14 0.082)"><path class="bc" d="M604.442,605.511c.2-.117.367-.023.368.21a.805.805,0,0,1-.365.633c-.2.117-.368.023-.368-.21A.806.806,0,0,1,604.442,605.511Z" transform="translate(-604.076 -605.461)"/></g></g></g></g></g></svg>