<svg xmlns="http://www.w3.org/2000/svg" width="313.52" height="288.468" viewBox="0 0 313.52 288.468"><defs><style>.a{fill:#717171;}.b{fill:#e2e2e2;stroke:#000;}.b,.c,.e{stroke-miterlimit:10;}.b,.e{stroke-width:4px;}.c,.e{fill:none;stroke:#af9225;}.c{stroke-width:5px;}.d{fill:#fff;}.f,.g{stroke:none;}.g{fill:#af9225;}</style></defs><g transform="translate(15194.323 673.5)"><path class="a" d="M12.426-17.955,17.157,0h5.985l-5.3-19.323a5.375,5.375,0,0,0,3.7-5.244V-34.2a5.717,5.717,0,0,0-5.7-5.7H3.876V0h5.7V-17.955Zm1.995-5.13H9.576V-34.77h4.845a1.488,1.488,0,0,1,1.425,1.425v8.835A1.488,1.488,0,0,1,14.421-23.085ZM28.956-39.9V0h14.25V-5.13h-8.55V-17.955H41.61v-5.13H34.656V-34.77h8.55V-39.9Zm18.7,12.825c0,3.99,2.622,5.871,5.643,7.866l4.9,3.249a3.444,3.444,0,0,1,1.425,2.85v6.555A1.488,1.488,0,0,1,58.2-5.13h-3.42a1.488,1.488,0,0,1-1.425-1.425V-11.4h-5.7v5.7a5.717,5.717,0,0,0,5.7,5.7h6.27a5.717,5.717,0,0,0,5.7-5.7v-8.265c0-3.99-2.85-6.27-5.757-8.094L54.777-25.08a3.3,3.3,0,0,1-1.425-2.85v-5.415a1.488,1.488,0,0,1,1.425-1.425H58.2a1.488,1.488,0,0,1,1.425,1.425V-28.5h5.7v-5.7a5.717,5.717,0,0,0-5.7-5.7h-6.27a5.717,5.717,0,0,0-5.7,5.7ZM89.262-39.9h-5.7V-6.555A1.488,1.488,0,0,1,82.137-5.13h-3.42a1.488,1.488,0,0,1-1.425-1.425V-39.9h-5.7V-5.7a5.717,5.717,0,0,0,5.7,5.7h6.27a5.717,5.717,0,0,0,5.7-5.7ZM102.486-5.13V-39.9h-5.7V0h14.25V-5.13Zm7.98-34.77v5.13h5.7V0h5.7V-34.77h5.7V-39.9ZM134.748-6.27h6.783L142.443,0h5.928L141.3-39.9h-6.27L127.965,0h5.928Zm6.042-5.13h-5.3l2.052-14.25L138-31.236h.342l.456,5.586ZM170.6-34.2a5.717,5.717,0,0,0-5.7-5.7h-11.97V0H164.9a5.717,5.717,0,0,0,5.7-5.7ZM164.9-6.555a1.488,1.488,0,0,1-1.425,1.425h-4.845V-34.77h4.845a1.488,1.488,0,0,1,1.425,1.425ZM194.769-34.2a5.717,5.717,0,0,0-5.7-5.7H182.8a5.717,5.717,0,0,0-5.7,5.7V-5.7A5.717,5.717,0,0,0,182.8,0h6.27a5.717,5.717,0,0,0,5.7-5.7Zm-5.7.855v26.79a1.488,1.488,0,0,1-1.425,1.425h-3.42A1.488,1.488,0,0,1,182.8-6.555v-26.79a1.488,1.488,0,0,1,1.425-1.425h3.42A1.488,1.488,0,0,1,189.069-33.345Zm11.571,6.27c0,3.99,2.622,5.871,5.643,7.866l4.9,3.249a3.444,3.444,0,0,1,1.425,2.85v6.555a1.488,1.488,0,0,1-1.425,1.425h-3.42a1.488,1.488,0,0,1-1.425-1.425V-11.4h-5.7v5.7a5.717,5.717,0,0,0,5.7,5.7h6.27a5.717,5.717,0,0,0,5.7-5.7v-8.265c0-3.99-2.85-6.27-5.757-8.094l-4.788-3.021a3.3,3.3,0,0,1-1.425-2.85v-5.415a1.488,1.488,0,0,1,1.425-1.425h3.42a1.488,1.488,0,0,1,1.425,1.425V-28.5h5.7v-5.7a5.717,5.717,0,0,0-5.7-5.7h-6.27a5.717,5.717,0,0,0-5.7,5.7Z" transform="translate(-15157.639 -501)"/><path class="b" d="M391.5,443.766V420.909h-29V409.766l29-66h14.286v64.286h9.572v12.857h-9.572v22.857M391.5,366.337l-17.285,41.715H391.5Z" transform="translate(-15355.068 -997.266)"/><g transform="translate(-16403.271 14090.001) rotate(90)"><path class="c" d="M262.556,600.033c0,79.312,63.982,144.574,141.733,144.574s141.735-65.262,141.735-144.574S482.042,455.459,404.289,455.459" transform="translate(-15023.557 -1956.056)"/><g class="d" transform="translate(-14644.956 -1477.991) rotate(-87)"><path class="f" d="M 38.96414566040039 22.5 L 5.574991226196289 22.5 L 22.26956939697266 3.758531093597412 L 38.96414566040039 22.5 Z"/><path class="g" d="M 22.26956939697266 7.517061233520508 L 11.14998626708984 20 L 33.38915252685547 20 L 22.26956939697266 7.517061233520508 M 22.26956939697266 0 L 44.53913497924805 25 L 3.814697265625e-06 25 L 22.26956939697266 0 Z"/></g><path class="e" d="M0,0S20.225,81.562,113.805,83.872" transform="matrix(0.966, 0.259, -0.259, 0.966, -14736.588, -1355.959)"/></g></g></svg>