<svg xmlns="http://www.w3.org/2000/svg" xmlns:xlink="http://www.w3.org/1999/xlink" width="195.946" height="149.998" viewBox="0 0 195.946 149.998">
  <defs>
    <linearGradient id="linear-gradient" x1="0.206" y1="0.601" x2="0.835" y2="0.444" gradientUnits="objectBoundingBox">
      <stop offset="0.545" stop-color="#ebc3aa"/>
      <stop offset="0.808" stop-color="#edc5ac"/>
      <stop offset="0.982" stop-color="#f6cbb2"/>
      <stop offset="1" stop-color="#f8cdb4"/>
    </linearGradient>
  </defs>
  <g id="Group_100" data-name="Group 100" transform="translate(-2.947 -13.585)">
    <g id="route">
      <g id="Group_59" data-name="Group 59" transform="translate(0 27.677)">
        <path id="Path_31" data-name="Path 31" d="M53.9,563.379,35.346,550.127l40.939-22.306L28.444,500.168a9.873,9.873,0,0,1,.039-17.119L53.9,468.512c3.444-2.293,11-2.256,14.046-.477L158.37,520.8l7.844-4.815L119.8,488.824a9.874,9.874,0,0,1,.044-17.068l43.925-25.408,9.887,17.094-29.235,16.911L190.4,507.261a9.874,9.874,0,0,1,.179,16.936l-24.918,15.645c-4.54,2.432-12.356.868-15.5-.966L61.311,487.024l-8.116,4.641,47.673,27.556a9.874,9.874,0,0,1,.045,17.071Z" transform="translate(0 -446.348)" fill="#edbe30"/>
      </g>
      <path id="Path_32" data-name="Path 32" d="M1170.415,453.9a28.584,28.584,0,0,1-14.305-3.465c-2.859-1.65-3.993-4.126-3.993-5.893s.63-3.372,3.489-5.022c3.813-2.2,9.211-3.464,14.809-3.464a28.584,28.584,0,0,1,14.3,3.464,7.32,7.32,0,0,1,3.965,5.976c0,1.767-.92,3.467-3.778,5.117C1181.094,452.812,1176.013,453.9,1170.415,453.9Z" transform="translate(-1003.551 -408.375)"/>
      <g id="line" transform="translate(155.858 13.585)">
        <path id="Path_33" data-name="Path 33" d="M1288.707,488.256a3.726,3.726,0,0,1,3.37-.083,1.027,1.027,0,0,1,.048,1.946,3.726,3.726,0,0,1-3.37.083A1.027,1.027,0,0,1,1288.707,488.256Z" transform="translate(-1278.433 -466.087)" fill="#9f9f9f"/>
        <g id="Group_63" data-name="Group 63">
          <g id="Group_62" data-name="Group 62">
            <g id="Group_60" data-name="Group 60" transform="translate(11.395 0.627)">
              <path id="Path_34" data-name="Path 34" d="M1310.338,256.62a.484.484,0,0,1-.554-.476l-.14-21.807a.483.483,0,1,1,.966,0l.14,21.807A.483.483,0,0,1,1310.338,256.62Z" transform="translate(-1309.644 -233.852)" fill="#9f9f9f"/>
            </g>
            <g id="Group_61" data-name="Group 61">
              <path id="Path_35" data-name="Path 35" d="M1184.867,235.875l-12.395-2s11.726-7.144,12.349-7.572C1184.832,229.394,1184.857,232.78,1184.867,235.875Z" transform="translate(-1172.472 -226.299)" fill="#9f9f9f"/>
            </g>
          </g>
        </g>
      </g>
      <g id="Group_67" data-name="Group 67" transform="translate(21.621 42.687)">
        <path id="Path_36" data-name="Path 36" d="M205.611,690.868a3.286,3.286,0,0,1,2.972-.073.906.906,0,0,1,.042,1.716,3.286,3.286,0,0,1-2.972.073A.906.906,0,0,1,205.611,690.868Z" transform="translate(-200.85 -674.779)" fill="#9f9f9f"/>
        <g id="Group_64" data-name="Group 64" transform="translate(5.414 3.974)">
          <path id="Path_37" data-name="Path 37" d="M215.826,610.588a.637.637,0,0,1-.088.007.615.615,0,0,1-.617-.612l-.178-12.09a.615.615,0,0,1,1.229,0l.178,12.09A.615.615,0,0,1,215.826,610.588Z" transform="translate(-214.943 -597.275)" fill="#9f9f9f"/>
        </g>
        <g id="Group_65" data-name="Group 65" transform="translate(5.414 3.974)">
          <path id="Path_38" data-name="Path 38" d="M216.234,601.934l-.062-4.047a.615.615,0,0,0-1.229,0l.07,4.745A1.015,1.015,0,0,0,216.234,601.934Z" transform="translate(-214.943 -597.275)" fill="#9f9f9f"/>
        </g>
        <g id="Group_66" data-name="Group 66" style="isolation: isolate">
          <path id="Path_39" data-name="Path 39" d="M246.311,566.37l-1.206-.686,3.683.521,1.017.591Z" transform="translate(-235.897 -565.684)" fill="#9f9f9f"/>
          <path id="Path_40" data-name="Path 40" d="M172.929,613.947l-1.017-.591-.015-5.406,1.142.655Z" transform="translate(-171.897 -602.634)" fill="#9f9f9f"/>
          <path id="Path_41" data-name="Path 41" d="M173.074,571.676,171.9,571l9.208-5.316,1.142.644Z" transform="translate(-171.897 -565.684)" fill="#9f9f9f"/>
          <path id="Path_42" data-name="Path 42" d="M189.187,570.38l3.683.521-3.668,4.885-9.208,5.316-.015-5.406Z" transform="translate(-178.962 -569.789)" fill="#9f9f9f"/>
        </g>
      </g>
      <g id="Group_71" data-name="Group 71" transform="translate(109.012 33.625)">
        <path id="Path_43" data-name="Path 43" d="M900.411,618.816a3.286,3.286,0,0,1,2.972-.073.906.906,0,0,1,.042,1.716,3.286,3.286,0,0,1-2.972.073A.906.906,0,0,1,900.411,618.816Z" transform="translate(-895.651 -602.727)" fill="#9f9f9f"/>
        <g id="Group_68" data-name="Group 68" transform="translate(5.414 3.974)">
          <path id="Path_44" data-name="Path 44" d="M910.626,538.535a.592.592,0,0,1-.088.007.615.615,0,0,1-.617-.612l-.178-12.09a.615.615,0,0,1,1.229,0l.178,12.09A.615.615,0,0,1,910.626,538.535Z" transform="translate(-909.743 -525.223)" fill="#9f9f9f"/>
        </g>
        <g id="Group_69" data-name="Group 69" transform="translate(5.414 3.974)">
          <path id="Path_45" data-name="Path 45" d="M911.034,529.882l-.062-4.047a.615.615,0,0,0-1.229,0l.07,4.746A1.015,1.015,0,0,0,911.034,529.882Z" transform="translate(-909.743 -525.223)" fill="#9f9f9f"/>
        </g>
        <g id="Group_70" data-name="Group 70" style="isolation: isolate">
          <path id="Path_46" data-name="Path 46" d="M941.111,494.318l-1.206-.686,3.683.521,1.016.591Z" transform="translate(-930.697 -493.631)" fill="#9f9f9f"/>
          <path id="Path_47" data-name="Path 47" d="M867.729,541.894l-1.017-.591L866.7,535.9l1.142.655Z" transform="translate(-866.697 -530.582)" fill="#9f9f9f"/>
          <path id="Path_48" data-name="Path 48" d="M867.874,499.624l-1.177-.676,9.208-5.316,1.143.644Z" transform="translate(-866.697 -493.631)" fill="#9f9f9f"/>
          <path id="Path_49" data-name="Path 49" d="M883.987,498.328l3.683.521L884,503.734l-9.208,5.316-.015-5.406Z" transform="translate(-873.762 -497.737)" fill="#9f9f9f"/>
        </g>
      </g>
      <g id="Group_75" data-name="Group 75" transform="translate(184.985 66.48)">
        <path id="Path_50" data-name="Path 50" d="M1518.356,880.727a3.286,3.286,0,0,0-2.972-.073.906.906,0,0,0-.042,1.716,3.286,3.286,0,0,0,2.972.073A.906.906,0,0,0,1518.356,880.727Z" transform="translate(-1509.208 -864.55)" fill="#9f9f9f"/>
        <g id="Group_72" data-name="Group 72" transform="translate(7.086 3.974)">
          <path id="Path_51" data-name="Path 51" d="M1527.578,799.747a.623.623,0,0,0,.088.007.615.615,0,0,0,.617-.612l.178-12.09a.615.615,0,0,0-1.229,0l-.178,12.09A.615.615,0,0,0,1527.578,799.747Z" transform="translate(-1527.053 -786.434)" fill="#9f9f9f"/>
        </g>
        <g id="Group_73" data-name="Group 73" transform="translate(7.202 3.974)">
          <path id="Path_52" data-name="Path 52" d="M1527.977,791.093l.062-4.047a.615.615,0,0,1,1.229,0l-.07,4.746A1.015,1.015,0,0,1,1527.977,791.093Z" transform="translate(-1527.977 -786.434)" fill="#9f9f9f"/>
        </g>
        <g id="Group_74" data-name="Group 74" style="isolation: isolate">
          <path id="Path_53" data-name="Path 53" d="M1474.209,755.529l1.206-.686-3.683.521-1.016.591Z" transform="translate(-1470.716 -754.843)" fill="#9f9f9f"/>
          <path id="Path_54" data-name="Path 54" d="M1572.322,803.106l1.016-.591.016-5.406-1.142.655Z" transform="translate(-1559.446 -791.793)" fill="#9f9f9f"/>
          <path id="Path_55" data-name="Path 55" d="M1508.172,760.835l1.177-.676-9.208-5.316-1.142.644Z" transform="translate(-1495.441 -754.843)" fill="#9f9f9f"/>
          <path id="Path_56" data-name="Path 56" d="M1474.4,759.539l-3.683.521,3.668,4.885,9.208,5.316.015-5.406Z" transform="translate(-1470.716 -758.948)" fill="#9f9f9f"/>
        </g>
      </g>
      <g id="Group_82" data-name="Group 82" transform="translate(2.947 38.519)">
        <g id="Group_80" data-name="Group 80" transform="translate(0 74.665)">
          <path id="Path_63" data-name="Path 63" d="M212.292,1400.56l-2.95,1.725a.252.252,0,0,0,.254.434l2.949-1.725a.252.252,0,1,0-.254-.434Z" transform="translate(-185.849 -1366.016)" fill="#fff"/>
          <path id="Path_64" data-name="Path 64" d="M259.191,1373.124l-2.949,1.725a.252.252,0,0,0,.254.434l2.95-1.725a.252.252,0,0,0-.254-.434Z" transform="translate(-226.849 -1342.031)" fill="#fff"/>
          <path id="Path_65" data-name="Path 65" d="M306.09,1345.688l-2.949,1.725a.252.252,0,0,0,.254.434l2.949-1.725a.252.252,0,0,0-.254-.434Z" transform="translate(-267.85 -1318.046)" fill="#fff"/>
          <path id="Path_66" data-name="Path 66" d="M165.393,1427.995l-2.949,1.726a.252.252,0,0,0,.254.434l2.949-1.725a.252.252,0,0,0-.254-.434Z" transform="translate(-144.849 -1390)" fill="#fff"/>
          <path id="Path_67" data-name="Path 67" d="M26.274,1510.3l-2.722,1.585a.252.252,0,0,0,.254.434l2.722-1.585a.252.252,0,0,0-.254-.434Z" transform="translate(-23.427 -1461.957)" fill="#fff"/>
          <path id="Path_68" data-name="Path 68" d="M352.989,1318.252l-2.949,1.725a.252.252,0,1,0,.254.434l2.949-1.725a.252.252,0,1,0-.254-.434Z" transform="translate(-308.85 -1294.061)" fill="#fff"/>
          <path id="Path_69" data-name="Path 69" d="M71.594,1482.868l-2.949,1.725a.252.252,0,1,0,.254.434l2.95-1.725a.252.252,0,0,0-.254-.434Z" transform="translate(-62.848 -1437.972)" fill="#fff"/>
          <path id="Path_70" data-name="Path 70" d="M118.493,1455.432l-2.95,1.725a.252.252,0,0,0,.254.434l2.949-1.725a.252.252,0,0,0-.254-.434Z" transform="translate(-103.849 -1413.987)" fill="#fff"/>
          <path id="Path_71" data-name="Path 71" d="M634.384,1153.634l-2.949,1.725a.252.252,0,1,0,.254.434l2.949-1.725a.252.252,0,1,0-.254-.434Z" transform="translate(-554.851 -1150.149)" fill="#fff"/>
          <path id="Path_72" data-name="Path 72" d="M681.284,1126.2l-2.95,1.726a.252.252,0,0,0,.254.434l2.949-1.725a.252.252,0,0,0-.254-.434Z" transform="translate(-595.852 -1126.163)" fill="#fff"/>
          <path id="Path_73" data-name="Path 73" d="M587.485,1181.071l-2.95,1.725a.252.252,0,0,0,.254.435l2.949-1.725a.251.251,0,1,0-.254-.434Z" transform="translate(-513.851 -1174.134)" fill="#fff"/>
          <path id="Path_74" data-name="Path 74" d="M446.788,1263.379l-2.95,1.725a.252.252,0,0,0,.254.434l2.949-1.725a.252.252,0,1,0-.254-.434Z" transform="translate(-390.851 -1246.09)" fill="#fff"/>
          <path id="Path_75" data-name="Path 75" d="M399.889,1290.814l-2.949,1.726a.252.252,0,0,0,.254.434l2.949-1.726a.252.252,0,0,0-.254-.434Z" transform="translate(-349.851 -1270.075)" fill="#fff"/>
          <path id="Path_76" data-name="Path 76" d="M493.687,1235.943l-2.95,1.725a.252.252,0,0,0,.254.434l2.949-1.725a.252.252,0,1,0-.254-.434Z" transform="translate(-431.851 -1222.105)" fill="#fff"/>
          <path id="Path_77" data-name="Path 77" d="M540.586,1208.506l-2.95,1.725a.252.252,0,0,0,.254.434l2.949-1.726a.252.252,0,0,0-.254-.434Z" transform="translate(-472.851 -1198.119)" fill="#fff"/>
        </g>
        <g id="Group_81" data-name="Group 81" transform="translate(34.702)">
          <path id="Path_78" data-name="Path 78" d="M420.072,606.648a7.889,7.889,0,0,1-1.968-.25.251.251,0,0,1,.126-.487,7.421,7.421,0,0,0,3.236.1.252.252,0,1,1,.095.494A7.905,7.905,0,0,1,420.072,606.648Zm4.523-1.453a.252.252,0,0,1-.132-.466l2.876-1.766a.252.252,0,1,1,.263.429l-2.876,1.766A.251.251,0,0,1,424.595,605.194Zm-9.466-.227a.251.251,0,0,1-.126-.034l-2.915-1.7a.252.252,0,0,1,.254-.435l2.915,1.7a.252.252,0,0,1-.127.469Zm15.218-3.3a.252.252,0,0,1-.132-.466l2.876-1.766a.252.252,0,0,1,.263.429l-2.876,1.766A.252.252,0,0,1,430.347,601.663Zm-21.048-.1a.252.252,0,0,1-.127-.034l-2.915-1.7a.252.252,0,1,1,.253-.435l2.915,1.7a.251.251,0,0,1-.127.469Zm-56.092-.731a.249.249,0,0,1-.126-.034l-2.922-1.689a.252.252,0,1,1,.252-.435l2.922,1.689a.252.252,0,0,1-.126.469Zm50.262-2.671a.25.25,0,0,1-.127-.034l-2.915-1.7a.252.252,0,1,1,.254-.435l2.915,1.7a.251.251,0,0,1-.127.469Zm32.63-.032a.252.252,0,0,1-.132-.466l2.876-1.766a.251.251,0,1,1,.263.429l-2.876,1.766A.25.25,0,0,1,436.1,598.131Zm-88.736-.675a.25.25,0,0,1-.126-.034l-2.922-1.689a.252.252,0,0,1,.252-.436l2.922,1.689a.251.251,0,0,1-.126.469Zm50.276-2.695a.251.251,0,0,1-.127-.034l-2.915-1.7a.252.252,0,0,1,.254-.435l2.915,1.7a.252.252,0,0,1-.127.469Zm44.188-.2a.252.252,0,0,1-.161-.445,3.77,3.77,0,0,0,1.348-2.758.252.252,0,0,1,.5.019,4.275,4.275,0,0,1-1.53,3.127A.25.25,0,0,1,441.828,594.565Zm-100.308-.487a.249.249,0,0,1-.126-.034l-2.922-1.689a.252.252,0,0,1,.252-.436l2.922,1.689a.252.252,0,0,1-.126.469Zm50.29-2.719a.25.25,0,0,1-.126-.034l-2.915-1.7a.252.252,0,1,1,.253-.435l2.915,1.7a.252.252,0,0,1-.127.469Zm-56.134-.659a.251.251,0,0,1-.126-.034l-2.922-1.689a.252.252,0,1,1,.252-.436l2.922,1.689a.252.252,0,0,1-.126.469Zm106.382-2.123a.251.251,0,0,1-.175-.071,3.863,3.863,0,0,0-.74-.561l-2.057-1.2a.252.252,0,1,1,.254-.434l2.057,1.2a4.372,4.372,0,0,1,.836.634.252.252,0,0,1-.175.432Zm-56.078-.62a.25.25,0,0,1-.127-.034l-2.915-1.7a.252.252,0,1,1,.254-.435l2.915,1.7a.252.252,0,0,1-.127.469Zm-56.148-.635a.25.25,0,0,1-.126-.034l-2.922-1.689a.252.252,0,0,1,.252-.436l2.922,1.689a.252.252,0,0,1-.126.469ZM436.3,585.071a.25.25,0,0,1-.127-.034l-2.913-1.7a.252.252,0,1,1,.254-.434l2.913,1.7a.251.251,0,0,1-.127.469Zm-56.15-.516a.25.25,0,0,1-.127-.034l-2.915-1.7a.252.252,0,1,1,.253-.435l2.915,1.7a.252.252,0,0,1-.127.469Zm-56.162-.611a.249.249,0,0,1-.126-.034l-2.922-1.689a.252.252,0,1,1,.252-.436l2.922,1.689a.252.252,0,0,1-.126.469Zm106.486-2.283a.251.251,0,0,1-.127-.034l-2.913-1.7a.252.252,0,1,1,.254-.434l2.913,1.7a.252.252,0,0,1-.127.469Zm-56.154-.509a.252.252,0,0,1-.127-.034l-2.915-1.7a.252.252,0,1,1,.254-.435l2.915,1.7a.251.251,0,0,1-.127.469Zm-56.176-.586a.25.25,0,0,1-.126-.034l-2.922-1.689a.252.252,0,1,1,.252-.436l2.922,1.689a.252.252,0,0,1-.126.469Zm106.5-2.314a.25.25,0,0,1-.127-.034l-2.913-1.7a.252.252,0,0,1,.254-.434l2.913,1.7a.252.252,0,0,1-.127.469Zm-56.158-.5a.252.252,0,0,1-.127-.034l-2.915-1.7a.252.252,0,0,1,.254-.435l2.915,1.7a.251.251,0,0,1-.127.469Zm-56.19-.562a.25.25,0,0,1-.126-.034l-2.922-1.689a.252.252,0,0,1,.252-.436l2.922,1.689a.252.252,0,0,1-.126.469Zm106.523-2.346a.251.251,0,0,1-.127-.034l-2.913-1.7a.252.252,0,1,1,.254-.434l2.913,1.7a.251.251,0,0,1-.127.469Zm-56.162-.494a.25.25,0,0,1-.126-.034l-2.915-1.7a.252.252,0,0,1,.254-.435l2.915,1.7a.252.252,0,0,1-.127.469Zm-56.2-.538a.251.251,0,0,1-.126-.034l-2.922-1.689a.252.252,0,0,1,.252-.436l2.922,1.689a.251.251,0,0,1-.126.469ZM413,571.434a.249.249,0,0,1-.127-.034l-2.913-1.7a.252.252,0,1,1,.254-.434l2.913,1.7a.252.252,0,0,1-.127.469Zm-56.167-.487a.25.25,0,0,1-.127-.034l-2.915-1.7a.252.252,0,0,1,.253-.435l2.915,1.7a.252.252,0,0,1-.127.469Zm-56.1-.683a.251.251,0,0,1-.186-.082,4.708,4.708,0,0,1-1.228-3.191v-.067a.248.248,0,0,1,.255-.248.252.252,0,0,1,.248.255v.059a4.206,4.206,0,0,0,1.1,2.851.251.251,0,0,1-.185.421Zm106.437-2.24a.25.25,0,0,1-.127-.034l-2.913-1.7a.252.252,0,1,1,.254-.434l2.913,1.7a.252.252,0,0,1-.127.469ZM351,567.545a.251.251,0,0,1-.127-.034l-2.915-1.7a.252.252,0,1,1,.254-.435l2.915,1.7a.252.252,0,0,1-.127.469Zm50.345-2.93a.25.25,0,0,1-.127-.034l-2.913-1.7a.251.251,0,1,1,.254-.434l2.913,1.7a.252.252,0,0,1-.127.469Zm-56.175-.472a.25.25,0,0,1-.127-.034l-2.915-1.7a.252.252,0,0,1,.254-.435l2.915,1.7a.252.252,0,0,1-.127.469Zm-44.351-.011a.252.252,0,0,1-.181-.427,4.81,4.81,0,0,1,1.067-.826l1.816-1.038a.252.252,0,0,1,.25.437l-1.816,1.038a4.307,4.307,0,0,0-.956.739A.251.251,0,0,1,300.82,564.132Zm94.7-2.926a.25.25,0,0,1-.127-.035l-2.913-1.7a.252.252,0,1,1,.254-.434l2.913,1.7a.252.252,0,0,1-.127.469Zm-56.179-.465a.25.25,0,0,1-.127-.034l-2.915-1.7a.252.252,0,0,1,.254-.435l2.915,1.7a.252.252,0,0,1-.127.469Zm-32.764-.105a.252.252,0,0,1-.125-.47l2.93-1.675a.252.252,0,0,1,.25.437L306.7,560.6A.25.25,0,0,1,306.577,560.635Zm26.934-3.3a.25.25,0,0,1-.126-.034l-2.915-1.7a.252.252,0,0,1,.254-.435l2.915,1.7a.252.252,0,0,1-.127.469Zm-21.074-.054a.252.252,0,0,1-.125-.47l2.93-1.675a.252.252,0,0,1,.25.437l-2.93,1.675A.25.25,0,0,1,312.437,557.285Zm78.193-.4a.252.252,0,0,1-.245-.194,4.428,4.428,0,0,1-.119-1.018,4.346,4.346,0,0,1,.721-2.411.252.252,0,0,1,.419.278,3.844,3.844,0,0,0-.637,2.133,3.924,3.924,0,0,0,.105.9.251.251,0,0,1-.187.3A.248.248,0,0,1,390.63,556.886Zm-62.949-2.95a.251.251,0,0,1-.127-.034l-1.337-.78a6.383,6.383,0,0,0-1.62-.667.252.252,0,0,1,.126-.487,6.887,6.887,0,0,1,1.748.72l1.337.78a.252.252,0,0,1-.127.469Zm-9.385,0a.252.252,0,0,1-.125-.47l1.41-.806a6.9,6.9,0,0,1,1.677-.685.252.252,0,1,1,.127.487,6.394,6.394,0,0,0-1.555.635l-1.41.806A.251.251,0,0,1,318.3,553.934Zm75.555-2.3a.252.252,0,0,1-.126-.469l2.921-1.69a.252.252,0,1,1,.252.436l-2.921,1.69A.251.251,0,0,1,393.851,551.632Zm5.843-3.38a.252.252,0,0,1-.126-.469l2.921-1.69a.251.251,0,0,1,.252.435l-2.921,1.69A.251.251,0,0,1,399.694,548.252Zm5.843-3.38a.252.252,0,0,1-.126-.469l2.921-1.69a.252.252,0,0,1,.252.436l-2.921,1.69A.25.25,0,0,1,405.537,544.872Zm5.843-3.38a.252.252,0,0,1-.126-.469l2.921-1.69a.252.252,0,1,1,.252.436l-2.921,1.69A.25.25,0,0,1,411.38,541.493Z" transform="translate(-299.321 -532.54)" fill="#fff"/>
        </g>
      </g>
      <g id="Group_86" data-name="Group 86" transform="translate(165.092 107.346)">
        <ellipse id="Ellipse_2" data-name="Ellipse 2" cx="2.102" cy="1.214" rx="2.102" ry="1.214" transform="matrix(1, -0.025, 0.025, 1, 4.119, 15.89)" fill="#9f9f9f"/>
        <g id="Group_83" data-name="Group 83" transform="translate(5.414 3.973)">
          <path id="Path_79" data-name="Path 79" d="M1356.489,1124.657a.615.615,0,0,1-.7-.606l-.178-12.09a.615.615,0,1,1,1.229,0l.178,12.09A.615.615,0,0,1,1356.489,1124.657Z" transform="translate(-1355.606 -1111.344)" fill="#9f9f9f"/>
        </g>
        <g id="Group_84" data-name="Group 84" transform="translate(5.414 3.973)">
          <path id="Path_80" data-name="Path 80" d="M1356.9,1116l-.062-4.047a.615.615,0,1,0-1.229,0l.07,4.746A1.015,1.015,0,0,0,1356.9,1116Z" transform="translate(-1355.606 -1111.344)" fill="#9f9f9f"/>
        </g>
        <g id="Group_85" data-name="Group 85" style="isolation: isolate">
          <path id="Path_81" data-name="Path 81" d="M1386.973,1080.439l-1.206-.686,3.683.521,1.016.591Z" transform="translate(-1376.559 -1079.753)" fill="#9f9f9f"/>
          <path id="Path_82" data-name="Path 82" d="M1313.591,1128.016l-1.016-.591-.015-5.406,1.142.655Z" transform="translate(-1312.56 -1116.703)" fill="#9f9f9f"/>
          <path id="Path_83" data-name="Path 83" d="M1313.737,1085.745l-1.177-.676,9.208-5.316,1.142.644Z" transform="translate(-1312.56 -1079.753)" fill="#9f9f9f"/>
          <path id="Path_84" data-name="Path 84" d="M1329.849,1084.45l3.683.521-3.668,4.885-9.208,5.316-.015-5.406Z" transform="translate(-1319.625 -1083.859)" fill="#9f9f9f"/>
        </g>
      </g>
    </g>
    <g id="man" transform="translate(45.35 80.88)">
      <path id="Path_92" data-name="Path 92" d="M383.219,1222.214c2.024,3.041-5.3,6.382-11.268,9.643s-10.3,2.583-11.118,1.723c-.939-.985.377-3.815,6.345-7.076S382.43,1221.028,383.219,1222.214Z" transform="translate(-360.558 -1177.546)" fill="#bcbcbc" style="mix-blend-mode: multiply;isolation: isolate"/>
      <g id="Group_92" data-name="Group 92" transform="translate(0.626 7.448)">
        <path id="Path_93" data-name="Path 93" d="M371.657,928.947a1.426,1.426,0,0,0-1.544-.285,2.4,2.4,0,0,0-1.053.978c-.134.188-.691,1.1-1.236,2.008a24.094,24.094,0,0,0-2,5.058,5.447,5.447,0,0,0-.287,1.292s.021,1.309.074,2.091a42.584,42.584,0,0,0,.679,5.706,5.051,5.051,0,0,0,1.493.118,2.2,2.2,0,0,0,1.082-.383s-.059-1.514-.077-1.822c-.086-1.441-.172-3.232-.224-5.327.1-.2,1.454-3.757,2.17-5.061.388-.705.84-1.961,1.124-2.474A1.967,1.967,0,0,0,371.657,928.947Z" transform="translate(-365.535 -928.553)"/>
        <g id="Group_91" data-name="Group 91" transform="translate(1.034 16.731)">
          <path id="Path_94" data-name="Path 94" d="M375.734,1062.6c-.844.1-.888.3-.888.3a3.1,3.1,0,0,0,.008.435c.1.163,1.963-.081,1.906-.364a.4.4,0,0,0-.11-.307C376.536,1062.551,376.23,1062.538,375.734,1062.6Z" transform="translate(-374.705 -1062.438)" fill="#e4e4e4"/>
          <path id="Path_95" data-name="Path 95" d="M378.35,1067.362a5.605,5.605,0,0,1-.033-1.252,4.476,4.476,0,0,1,.307.409c.168.424.3.492.52.543s.043-.218-.069-.655a3.065,3.065,0,0,0-.264-.75,2.093,2.093,0,0,0-.336-.351c-.326-.364-.709-.491-.816-.907a1.393,1.393,0,0,1-.036-.176c-.012-.086-1.668.024-1.572.229a1.068,1.068,0,0,1,.024.871,4.267,4.267,0,0,0,.244,1.57,2.93,2.93,0,0,0,.586,1.29,3.176,3.176,0,0,0,.892.475C378.13,1068.7,378.38,1067.986,378.35,1067.362Z" transform="translate(-375.759 -1063.863)" fill="#facfb6"/>
          <path id="Path_96" data-name="Path 96" d="M374.754,1061.62c-.844.1-1,.293-1,.293.034.165.15.549.15.549a3.99,3.99,0,0,1,1.906-.364c-.009-.213-.024-.4-.029-.432C375.761,1061.535,375.251,1061.56,374.754,1061.62Z" transform="translate(-373.759 -1061.571)" fill="#f3f5ff"/>
        </g>
      </g>
      <g id="Group_93" data-name="Group 93" transform="translate(3.65 51.472)">
        <path id="Path_97" data-name="Path 97" d="M391.914,1290.734a6,6,0,0,1,2.338-.369c.354.009,1.719-.043,2.05.59.292.559-.571,1.044-.857,1.126a11.364,11.364,0,0,1-2.682.254,3.816,3.816,0,0,1-1.007.272c-.809-.028-1.523-.06-1.991-.716a.786.786,0,0,1,.541-1.279C390.665,1290.572,391.229,1290.921,391.914,1290.734Z" transform="translate(-389.577 -1288.877)" fill="#0e0e0e"/>
        <path id="Path_98" data-name="Path 98" d="M391.112,1280.483l.673-1.474c.089-.244.5-.285.755-.313a13.989,13.989,0,0,1,1.469-.136c.405-.011.581.736,1.769.766.354.009,1.5.119,1.917.7a.424.424,0,0,1,.08.364l.03.007a1.881,1.881,0,0,1-.014.189c-.061.287-.176.57-.93.808a10.155,10.155,0,0,1-2.682.254,13.848,13.848,0,0,1-1.611.069,1.547,1.547,0,0,1-1.3-.7c-.176-.248-.206-.418-.156-.538Z" transform="translate(-390.902 -1278.561)" fill="#44444f"/>
        <path id="Path_99" data-name="Path 99" d="M431.277,1285.413a.96.96,0,0,1-.505,1.214,2.737,2.737,0,0,1-.608.2,1.864,1.864,0,0,0-.093-1.4,2.354,2.354,0,0,0-.654-.721C429.876,1284.741,431.036,1284.731,431.277,1285.413Z" transform="translate(-424.406 -1283.935)" fill="#141417"/>
        <path id="Path_100" data-name="Path 100" d="M395.612,1279.681c.192.543-.1,1.19-.483,1.184-1.308-.022-.985.863-.988.863s-2.192.456-2.809-.619a.877.877,0,0,1-.143-.646,8.11,8.11,0,0,1,.706-1.518c.2-.321,2.214-.371,2.214-.371C394.257,1278.62,395.371,1279,395.612,1279.681Z" transform="translate(-390.969 -1278.573)" fill="#141417"/>
      </g>
      <g id="Group_94" data-name="Group 94" transform="translate(16.366 44.167)">
        <path id="Path_101" data-name="Path 101" d="M492.575,1225.565a6,6,0,0,1,2.08-1.13c.336-.11,1.9-.978,2.255-.356.374.662-.3,1.423-.557,1.574-.965.568-1.565.7-2.462,1.207a6.514,6.514,0,0,1-.839.523c-.712.323-1.427.528-2.039,0-.5-.427-.3-1.351-.3-1.351A5.537,5.537,0,0,0,492.575,1225.565Z" transform="translate(-490.674 -1223.433)" fill="#0e0e0e"/>
        <path id="Path_102" data-name="Path 102" d="M491.347,1223.739l.312-1.668a7.471,7.471,0,0,1,1.591-1.051c.378-.147.794.5,1.923.13a2.759,2.759,0,0,1,2.041.02.423.423,0,0,1,.2.316l.031,0s.043.135.05.183c.039.291.024.6-.607,1.072a10.175,10.175,0,0,1-2.443,1.136,13.855,13.855,0,0,1-1.495.6,1.547,1.547,0,0,1-1.455-.222A.485.485,0,0,1,491.347,1223.739Z" transform="translate(-491.243 -1220.895)" fill="#565663"/>
        <path id="Path_103" data-name="Path 103" d="M524.9,1220.786a.874.874,0,0,1-.091,1.314,4.524,4.524,0,0,1-.455.354,1.864,1.864,0,0,0-.555-1.287,2.351,2.351,0,0,0-.857-.461C523.388,1220.583,524.368,1220.248,524.9,1220.786Z" transform="translate(-518.886 -1220.489)" fill="#141417"/>
        <path id="Path_104" data-name="Path 104" d="M494.656,1221.929c.362.447.3,1.155-.059,1.277-1.24.417-.64,1.142-.642,1.144s-1.913,1.162-2.854.356a.623.623,0,0,1-.242-.477,8.758,8.758,0,0,1,.294-1.8c.077-.369,1.718-1.045,1.718-1.045C493.024,1221.381,494.2,1221.366,494.656,1221.929Z" transform="translate(-490.832 -1221.274)" fill="#141417"/>
      </g>
      <g id="Group_95" data-name="Group 95" transform="translate(4.035 24.469)">
        <path id="Path_105" data-name="Path 105" d="M422.047,1083.924c-.774-1.967-1.449-2.709-1.791-4.4-.232-1.151-.543-3.051-.69-4.141a18.386,18.386,0,0,0-.447-2.354c-.234-1.009-1.285-1.967-2.936-3.906a23.9,23.9,0,0,0-4.077-3.809c-.856-.625-3.219-1.6-3.932-1.153-.733.462-.749,1.987-.592,2.477a6.308,6.308,0,0,0,1.806,2.682c.954.965,1.53,1.463,2.745,2.664,1.5,1.486,2.694,2.6,3.415,3.409.028.448.054.98.086,1.181a34.3,34.3,0,0,0,1.769,5.789c.287.781.594,3.117.685,3.508.047.2.674.8,2.1.07C421.093,1085.468,422.138,1084.156,422.047,1083.924Z" transform="translate(-405.632 -1064.021)"/>
        <path id="Path_106" data-name="Path 106" d="M397.84,1063.874s5.005,1.424,5.6,2a27.218,27.218,0,0,1-.6,4.51,65.708,65.708,0,0,1-2.068,6.832c-.135.389-.27.725-.382.986a77.562,77.562,0,0,0-2.745,9.416c-.291,1.546-.168,2.385-.443,4.862,0,0-.338.8-2.57.778-2.08-.021-1.994-1.34-1.994-1.34a19.724,19.724,0,0,0,1.344-4.818,40.146,40.146,0,0,1,.712-5.173c.185-.687,1.3-3.43,1.663-4.322.328-2.119.946-5.7,1.038-6.61a17.671,17.671,0,0,0-.155-3.845s-.141-.52-.172-.73A5.1,5.1,0,0,1,397.84,1063.874Z" transform="translate(-392.64 -1063.874)" fill="#333"/>
      </g>
      <g id="Group_98" data-name="Group 98" transform="translate(4.16 7.52)">
        <path id="Path_107" data-name="Path 107" d="M427.181,1072.913a59.717,59.717,0,0,1,6.436.4,6.251,6.251,0,0,1-.115,2.245,8.932,8.932,0,0,1-2.349.455,19.686,19.686,0,0,1-3.61.013,7.155,7.155,0,0,1-.236-.992A18.941,18.941,0,0,1,427.181,1072.913Z" transform="translate(-422.961 -1054.828)" fill="#292929"/>
        <path id="Path_108" data-name="Path 108" d="M394.936,941.959a41.084,41.084,0,0,0-.722-5.448c-.282-1.945-.786-4.695-.5-5.91a2.033,2.033,0,0,1,.806-1.194,1.449,1.449,0,0,1,.909-.279,5.966,5.966,0,0,1,1.481.42c.8.307,2.2.871,2.991,1.265.878.438,3.229,1.728,4.09,2.22.341.195.443.228.477.482.005,0,0,.01,0,.025,0,.034.007.07.009.112a.05.05,0,0,1-.022.039c-.141,1.653-.311,3.9-.4,5.656-.028.513-.075,3.661.041,5.115.085,1.053.614,4.87.614,4.87a27.755,27.755,0,0,1-3.218.531,15.788,15.788,0,0,1-4.584-.144,6.416,6.416,0,0,1-2.1-.948s.017-1.435.111-3.52C394.977,943.964,394.937,942.534,394.936,941.959Z" transform="translate(-393.631 -929.127)" fill="#212121"/>
        <path id="Path_109" data-name="Path 109" d="M461.525,1044.159c.02.354.044.717.073,1.073.013.162.031.35.051.553-.94.141-1.984.151-2.071-.119a4.849,4.849,0,0,1-.181-1.209Z" transform="translate(-451.12 -1029.69)" fill="#262626"/>
        <g id="Group_97" data-name="Group 97" transform="translate(8.752 3.941)">
          <path id="Path_110" data-name="Path 110" d="M465.418,969.64c-.567-1.311-1.151-3.21-1.576-4.332a10.125,10.125,0,0,1-.589-2.214,2.975,2.975,0,0,1,.293-1.882c.325-.5.564-.721,1.023-.754a1.449,1.449,0,0,1,1.358,1.011c.359.8.538,1.422.938,2.483.67,1.779,1.087,3.122,1.476,4.206a1.184,1.184,0,0,1,.056.222c.067.037.132.072.191.1,1.385.718,4.752,2.5,5.625,2.964.132.07.2.092.238.141a.249.249,0,0,1,.027.181c-.047.278-.183.471-.336.973a3.612,3.612,0,0,1-.43.869c-.033.062-.091.213-.142.241a.386.386,0,0,1-.253-.04c-1.09-.5-5.71-2.433-6.855-3.046C465.42,970.211,465.418,969.64,465.418,969.64Z" transform="translate(-463.216 -960.457)"/>
          <g id="Group_96" data-name="Group 96" transform="translate(10.366 11.218)">
            <path id="Path_111" data-name="Path 111" d="M546.445,1051.21c-.316.789-.186.908-.186.908a2.856,2.856,0,0,1,.433.209c.25-.078.839-1.728.6-1.847a.82.82,0,0,0-.328-.087C546.834,1050.35,546.631,1050.746,546.445,1051.21Z" transform="translate(-546.157 -1050.295)" fill="#e4e4e4"/>
            <path id="Path_112" data-name="Path 112" d="M549.65,1052.358c-.2-.036-.686-.335-.675-.561a3.3,3.3,0,0,1,.441.011c.444.106.574.037.743-.114s-.154-.16-.576-.32a3.861,3.861,0,0,0-.7-.265,1.219,1.219,0,0,0-.495.01c-.485.058-.809.3-1.212.147a1.411,1.411,0,0,1-.165-.072c-.077-.039-.938,1.38-.715,1.418.5.087.547.323.727.48a4.262,4.262,0,0,0,1.425.7,2.929,2.929,0,0,0,1.392.261,2.19,2.19,0,0,0,.873-1.142C550.812,1052.685,550.312,1052.475,549.65,1052.358Z" transform="translate(-546.182 -1050.908)" fill="#facfb6"/>
            <path id="Path_113" data-name="Path 113" d="M545.833,1050.528c-.316.789-.169,1.05-.169,1.05a4.5,4.5,0,0,0,.5.1,3.993,3.993,0,0,1,.6-1.847c-.191-.094-.363-.172-.393-.182C546.242,1049.6,546.019,1050.064,545.833,1050.528Z" transform="translate(-545.63 -1049.643)" fill="#f3f5ff"/>
          </g>
        </g>
      </g>
      <g id="Group_99" data-name="Group 99" transform="translate(6.024)">
        <path id="Path_114" data-name="Path 114" d="M429.094,908.18v-4.505l2.753,2.033-.086,3.007c-.017.173-.438.412-.679.521a1.833,1.833,0,0,1-1.651-.159A1.4,1.4,0,0,1,429.094,908.18Z" transform="translate(-426.496 -899.355)" fill="url(#linear-gradient)"/>
        <path id="Path_115" data-name="Path 115" d="M417.884,881.011c.067-.263.384-.33.384-.6,0-.219-.6-.993-.66-1.152-.049-.128.277-.573.213-.7-.645-1.239-.86-2.2-2.215-2.2-1.875,0-4.505,1.128-4.509,3a4.281,4.281,0,0,0,2.084,3.344c.633.286,1.453-1.747,1.67-1.477a.863.863,0,0,0,.116.53c.13.179.348.187.43.344a6.5,6.5,0,0,1,.179.734c.071.191.2.414.387.407.57-.009,1.611.183,1.588-.516a3.493,3.493,0,0,1,.3-1.145C417.961,881.361,417.823,881.255,417.884,881.011Z" transform="translate(-410.765 -875.483)" fill="#f8cdb4"/>
        <path id="Path_116" data-name="Path 116" d="M414.5,869.411a8.136,8.136,0,0,0-3.182.327,3.419,3.419,0,0,0-2.471,1.626c-.413.449-.394,1.071-.4,1.909,0,1.354,1.056,2.556,1.97,3.47.339.339,1.493.826,2.06-1.1.136-.462-.1-1.679.629-1.885.413-.116.435.879.435.879l.606-.115a6.92,6.92,0,0,0-.142-1.009c-.151-.54.534-.964.049-1.332l-.062-.044c.078-.052.155-.106.228-.163s.352-.31.352-.31l-.285.076a4.959,4.959,0,0,0,.5-.308A1.282,1.282,0,0,0,414.5,869.411Z" transform="translate(-408.449 -869.337)" fill="#31323b"/>
      </g>
      <path id="Path_117" data-name="Path 117" d="M427.405,934.527a2.177,2.177,0,0,0,1.006-.207l-.137-.789a4.713,4.713,0,0,1-1.552-.1c-1.086-.3-1.132-.731-1.132-.731l-.5.745c-.006.157.593.6.925.789A3.3,3.3,0,0,0,427.405,934.527Z" transform="translate(-416.97 -924.734)" fill="#f3f5ff"/>
      <path id="Path_118" data-name="Path 118" d="M425.422,937.168a6.64,6.64,0,0,0,1.463-.153.482.482,0,0,1,.251.057,1.822,1.822,0,0,0-.19-.239,6.924,6.924,0,0,1-.574-.625,4.924,4.924,0,0,1-1.64-.038c-1.144-.294-1.353-.923-1.353-.923l-.45.236a.315.315,0,0,0-.107.273,1.325,1.325,0,0,0,.711.988A3.261,3.261,0,0,0,425.422,937.168Z" transform="translate(-414.987 -926.958)" fill="#3b3b3b"/>
    </g>
    <path id="Path_119" data-name="Path 119" d="M725.9,1091.382a.252.252,0,0,1-.161-.445,3.77,3.77,0,0,0,1.348-2.758.252.252,0,1,1,.5.018,4.274,4.274,0,0,1-1.53,3.127A.25.25,0,0,1,725.9,1091.382Z" transform="translate(-634.378 -979.561)" fill="#fff"/>
  </g>
</svg>
