<svg xmlns="http://www.w3.org/2000/svg" width="261" height="69.999" viewBox="0 0 261 69.999">
  <g id="Group_840" data-name="Group 840" transform="translate(-695 -46)">
    <path id="Path_2090" data-name="Path 2090" d="M3810.552,1513.745a.29.29,0,0,0-.176-.055.284.284,0,0,0-.284.282.3.3,0,0,0,.066.183,27.642,27.642,0,0,1-19.882,45.4,21.633,21.633,0,0,0,2.055-35.477,13.376,13.376,0,0,1-3.206-17.325.314.314,0,0,0,.04-.143.284.284,0,0,0-.286-.286.29.29,0,0,0-.137.033,21.634,21.634,0,0,0-3.062,36.019,13.371,13.371,0,0,1,3.321,17.21,27.644,27.644,0,0,1-21.156-45.436.278.278,0,0,0,.063-.181.283.283,0,0,0-.282-.282.259.259,0,0,0-.177.059,35,35,0,1,0,43.1,0" transform="translate(-3059 -1460.326)" fill="#fff"/>
    <text id="UPC" transform="translate(787 72)" fill="#e2e2e2" font-size="26" font-family="ZizouSlab-Bold, Zizou Slab" font-weight="700"><tspan x="0" y="0">UPC</tspan></text>
    <text id="Universidad_Peruana_de_Ciencias_Aplicadas" data-name="Universidad Peruana 
de Ciencias Aplicadas" transform="translate(789 91)" fill="#e2e2e2" font-size="18" font-family="ZizouSlab-Regular, Zizou Slab"><tspan x="0" y="0">Universidad Peruana </tspan><tspan x="0" y="20">de Ciencias Aplicadas</tspan></text>
  </g>
</svg>
