<svg xmlns="http://www.w3.org/2000/svg" xmlns:xlink="http://www.w3.org/1999/xlink" width="147.134" height="99.626" viewBox="0 0 147.134 99.626"><defs><style>.a,.e{fill:#ffc107;}.a,.b,.n{opacity:0.1;}.a,.b,.d,.f,.g,.o,.p,.q{isolation:isolate;}.c{fill:#ffd037;}.d,.p{opacity:0.2;}.f{opacity:0.03;}.g,.p{fill:#fff;}.g,.q{opacity:0.15;}.h{fill:url(#a);}.i{fill:#53517c;}.j{fill:#5aa6d5;}.k{fill:#c37871;}.l{fill:#e6eaed;}.m{fill:#4b3e3c;}.o{opacity:0.25;}.r{fill:#3acc6c;}.s{fill:#ff748e;}.t{fill:#5e5a6b;}.u{fill:#303ff8;}</style><linearGradient id="a" x1="0.823" y1="-0.251" x2="0.823" y2="0.749" gradientUnits="objectBoundingBox"><stop offset="0" stop-color="gray" stop-opacity="0.251"/><stop offset="0.54" stop-color="gray" stop-opacity="0.122"/><stop offset="1" stop-color="gray" stop-opacity="0.102"/></linearGradient></defs><g transform="translate(-1.638 -24.638)"><ellipse class="a" cx="22.207" cy="3.932" rx="22.207" ry="3.932" transform="translate(36.542 109.813)"/><ellipse class="a" cx="11.287" cy="2.486" rx="11.287" ry="2.486" transform="translate(107.097 110.48)"/><path class="b" d="M960.258,759.99a1.491,1.491,0,0,1,.188.376c1.6,1.886,2.459,3.645.917,3.688-1.436.042-3.161,2.612-3.573,3.26a1.221,1.221,0,0,0,.049.149s2.02-3.36,3.664-3.408S962.065,762.007,960.258,759.99Z" transform="translate(-814.771 -646.498)"/><path class="c" d="M984.522,768.683c0,.423-.048.763-.106.763s-.106-.341-.106-.763.06-.222.118-.222S984.522,768.262,984.522,768.683Z" transform="translate(-837.33 -653.663)"/><path class="c" d="M985.531,771.947c-.37.2-.694.324-.721.273s.249-.257.62-.458.224-.055.252,0S985.9,771.746,985.531,771.947Z" transform="translate(-837.754 -656.424)"/><path class="b" d="M930.2,759.99a1.474,1.474,0,0,0-.187.376c-1.605,1.886-2.461,3.645-.918,3.688,1.438.042,3.161,2.612,3.573,3.26-.013.051-.03.1-.048.149,0,0-2.022-3.36-3.666-3.408S928.386,762.007,930.2,759.99Z" transform="translate(-789.548 -646.498)"/><path class="c" d="M930.5,768.683c0,.423.048.763.106.763s.106-.341.106-.763-.06-.222-.118-.222S930.5,768.262,930.5,768.683Z" transform="translate(-791.556 -653.663)"/><path class="c" d="M925.31,771.947c.37.2.693.324.721.273s-.251-.257-.621-.458-.224-.055-.251,0S924.939,771.746,925.31,771.947Z" transform="translate(-786.949 -656.424)"/><path class="d" d="M940.953,812.112c-2.892.022-6.72-.448-7.492-.92-.587-.358-.821-1.643-.9-2.232h-.085s.161,2.067.932,2.538,4.6.944,7.492.92c.835,0,1.123-.3,1.108-.747C941.892,811.94,941.58,812.106,940.953,812.112Z" transform="translate(-793.24 -688.156)"/><path class="d" d="M20.389,766.543c-3.215.025-7.466-.5-8.325-1.023-.653-.4-.912-1.822-1-2.48h-.1s.181,2.3,1.045,2.818,5.11,1.045,8.325,1.023c.927,0,1.248-.339,1.23-.827C21.433,766.356,21.079,766.543,20.389,766.543Z" transform="translate(-9.332 -649.093)"/><path class="e" d="M407.24,467.983l-.92-.273.043.669,2.059.787-.373-1.108Z" transform="translate(-345.647 -397.862)"/><path class="f" d="M407.24,467.983l-.92-.273.043.669,2.059.787-.373-1.108Z" transform="translate(-345.647 -397.862)"/><path class="e" d="M436.768,497.888a42.331,42.331,0,0,0,12.213-29.808v-.36H406.6Z" transform="translate(-345.886 -397.871)"/><path class="f" d="M436.768,497.888a42.331,42.331,0,0,0,12.213-29.808v-.36H406.6Z" transform="translate(-345.886 -397.871)"/><path class="e" d="M436.768,502.358a42.331,42.331,0,0,0,12.213-29.808v-.36H406.6Z" transform="translate(-345.886 -401.673)"/><path class="g" d="M436.768,502.358a42.331,42.331,0,0,0,12.213-29.808v-.36H406.6Z" transform="translate(-345.886 -401.673)"/><path class="h" d="M605.169,224.906l-.654-5.9a73.659,73.659,0,0,1-1.353-7.971c-.169-2.656-1.448-2.851-1.459-2.851h0a8.779,8.779,0,0,1-1.719-1.23,5.327,5.327,0,0,0-1.383-.959l-.194-.1s-.493-2.053-1.08-1.759l-.048-.139a5.136,5.136,0,0,1-.276-1.369v-.172a5.012,5.012,0,0,0,1.344-2.289,4.943,4.943,0,0,0,.149-.935v-.178c.288-.2.336-.629.412-.986.14-.654.508-1.239.682-1.884.015-.055.027-.112.037-.17v-.037a2.2,2.2,0,0,0,.034-.358v-.025a1.391,1.391,0,0,0-.552-1.224,1.194,1.194,0,0,1-.257-.179.769.769,0,0,1-.131-.237l-.3-.711a.739.739,0,0,0-.149-.252,1.081,1.081,0,0,0-.4-.19,2,2,0,0,1-.966-1,4.546,4.546,0,0,0-.763-1.195A3.577,3.577,0,0,0,594,189.87a2.312,2.312,0,0,0-.054.73,5.705,5.705,0,0,0-3.657.015.847.847,0,0,0-.448.433h0a.627.627,0,0,0-.018.07h0a.463.463,0,0,0,0,.091.823.823,0,0,1,.019.2.3.3,0,0,1-.187.2c-.367.163-.811-.048-1.195.082a1.2,1.2,0,0,0-.654.841,2.773,2.773,0,0,1-.417,1.012c-.119.149-.276.249-.4.388a1.2,1.2,0,0,0-.282.95.165.165,0,0,0,0,.027.539.539,0,0,0,.028.134,1.225,1.225,0,0,0,.057.149c.021.043.043.085.067.127h0a2.9,2.9,0,0,1,.479.847v.012c.073.411-.188.8-.254,1.211h0c0,.033-.009.064-.01.1v.111c.022.6.57.993.9,1.432a2.69,2.69,0,0,0,.421.582c.009.064.019.127.033.188a4.878,4.878,0,0,0,.487,1.389,5.077,5.077,0,0,0,2.609,2.334c0,.058.012.118.018.178,0,.11.015.224.015.334v.161l-.049-.379a1.47,1.47,0,0,0-.561-.007,43.054,43.054,0,0,0-29.533-11.729V212.7c-1.233-.37-2.24-.412-2.165.46.069.9,1.045,1.8,2.165,2.555v19.575h21.538a3.121,3.121,0,0,0,.149,1.056,20.628,20.628,0,0,1,.211,3.643s.113.617.142.727.366,2.966.366,3.1a10.478,10.478,0,0,1,.282,1.511,7.13,7.13,0,0,0,.508,1.677l.084,2.35s.874,1.316.93,1.4a4,4,0,0,0,.986,2.518,1.115,1.115,0,0,1,.311.53c.072.284,2.476,4.321,3.219,5.567l-.09.423-.6,2.794-.028,1.175a3.655,3.655,0,0,0-.254,1.426,1.53,1.53,0,0,1,.057.672s-.394.614-.14,1.006.112.615-.254,1.622a.7.7,0,0,0,.184.876,1.233,1.233,0,0,1-.018.149c-.052.448-.11.96-.11,1.1s-.052.747-.055,1.284c0,.426.027.808.14.871.254.139,1.663.3,1.69.782s.564,1.174,1.69,1.174,3.072-.391,3.549-.336c.079.01.125-.042.149-.134a.426.426,0,0,0,.01-.048,1.067,1.067,0,0,0,.657.351c1.69.309,3.747-.448,4.142-1.2a1.38,1.38,0,0,0,.114-.3,3.633,3.633,0,0,0-.114-1.686,2.877,2.877,0,0,1-.036-1.156.985.985,0,0,1,.231-.464,5.075,5.075,0,0,0,.708-1.69c.136-.488.223-.885.223-.885s-.178-.272-.448-.645h0a7.167,7.167,0,0,0-2.029-2.143.655.655,0,0,1-.06-.176,5.666,5.666,0,0,0-.62-1.195,16.371,16.371,0,0,1-.817-1.426c0-.111-1.126-1.819-1.126-1.819s-.433-.939-.718-1.448c.033-.09.066-.2.1-.337a22.946,22.946,0,0,0,.533-4.227,1.846,1.846,0,0,1,.281-1.566,3.352,3.352,0,0,0,.4-1.677,18.32,18.32,0,0,1,.281-3.8,52.644,52.644,0,0,0,1.156-5.9,4.248,4.248,0,0,1,.224-.817l.052-2.029v-.124a9.563,9.563,0,0,1,.448-2.155.94.94,0,0,0,.078-.384h4.648c0-.281-.01-.56-.018-.839h.018a42.7,42.7,0,0,0-.448-5.849c.436-.529.963-.9.98-1.009a6.227,6.227,0,0,1,.309-1.008A4.463,4.463,0,0,0,605.169,224.906Zm-9.382,43.771s.119-.072.314-.172c.012.048.024.1.036.149a6.99,6.99,0,0,1,.242,1.643c-.058.587-.149,1.511-.149,1.511a4.9,4.9,0,0,0-.357,1.045c-.09-.369-.178-.66-.178-.66s-1.917-1.284-1.917-1.929a5.062,5.062,0,0,0-.131-.96h0c-.016-.081-.034-.158-.052-.234a1.678,1.678,0,0,1,.212.33s.572-1.387.709-1.941a.448.448,0,0,0,.024-.212,1.816,1.816,0,0,1-.034-.573c.134.149.237.3.2.406C594.63,267.334,595.787,268.676,595.787,268.676Z" transform="translate(-475.736 -161.51)"/><path class="i" d="M765.266,720.441c-.472-.055-2.389.333-3.5.333s-1.643-.693-1.668-1.168-1.417-.638-1.668-.777c-.11-.063-.139-.448-.137-.866,0-.533.054-1.136.054-1.277s.057-.645.109-1.089c.045-.384.087-.717.087-.717,1.307-1.584,4.283-.418,4.283-.418s.127.44.23.933h0a5.1,5.1,0,0,1,.13.954c0,.641,1.892,1.919,1.892,1.919a12.592,12.592,0,0,1,.314,1.319C765.463,720.059,765.477,720.467,765.266,720.441Z" transform="translate(-645.06 -607.418)"/><path class="b" d="M765.266,742.736c-.472-.054-2.389.334-3.5.334s-1.643-.694-1.668-1.168-1.419-.639-1.669-.778c-.11-.061-.139-.448-.137-.865a4.365,4.365,0,0,1,1.529.7c.417.448.527.944.806,1a2.3,2.3,0,0,0,1.889.11,11.779,11.779,0,0,1,2.873-.182C765.463,742.355,765.477,742.761,765.266,742.736Z" transform="translate(-645.06 -629.714)"/><path class="i" d="M809.646,695.383c-.472.5-.193,1.611-.193,1.611a3.164,3.164,0,0,1,0,1.976c-.388.751-2.419,1.493-4.087,1.195a.981.981,0,0,1-.759-.52c-.408-.8.285-2.205.285-2.205s.084-.917.14-1.5a7.135,7.135,0,0,0-.239-1.635c-.082-.352-.149-.617-.149-.617s2.539-3.642,3.309-3.669a.349.349,0,0,1,.109.012c.558.137,1.51,1.371,2.064,2.152.264.373.44.644.44.644A8.673,8.673,0,0,1,809.646,695.383Z" transform="translate(-684.353 -586.974)"/><path class="b" d="M810.378,707.712c-.472.5-.193,1.611-.193,1.611a3.16,3.16,0,0,1,0,1.974c-.388.75-2.419,1.5-4.087,1.195a.983.983,0,0,1-.759-.518c.481-.1,1.238-.231,2.427-.37,2.862-.334,2.111-2.223,2.111-2.223a3.3,3.3,0,0,1,.084-2,14.791,14.791,0,0,0,.9-2.867c.266.372.441.642.441.642A8.665,8.665,0,0,1,810.378,707.712Z" transform="translate(-685.085 -599.302)"/><path class="b" d="M763.979,715.4c-.4-.545-1.578-1.595-3.957.457a1.344,1.344,0,0,1-.642-.255c.045-.384.087-.717.087-.717,1.307-1.584,4.283-.418,4.283-.418S763.876,714.9,763.979,715.4Z" transform="translate(-645.988 -607.418)"/><path class="j" d="M768.122,495.508v.122l-.057,2.02a4.088,4.088,0,0,0-.222.806,51.747,51.747,0,0,1-1.141,5.865,18.2,18.2,0,0,0-.279,3.782,3.44,3.44,0,0,1-.391,1.668,1.878,1.878,0,0,0-.272,1.563,22.543,22.543,0,0,1-.526,4.2,1.461,1.461,0,0,1-.2.524.412.412,0,0,0-.067.128c-.4,1.032-1.433,7.4-1.433,7.4s-.01.122-.021.29a3.217,3.217,0,0,0,.021.878.449.449,0,0,1-.024.211c-.134.551-.7,1.931-.7,1.931s-1.084-2.419-4.115.194c0,0-1.168-.112-.8-1.112s.5-1.223.249-1.611.139-1,.139-1a1.522,1.522,0,0,0-.055-.667,3.655,3.655,0,0,1,.251-1.417l.028-1.168.585-2.777.176-.836.182-.865.971-16.851.037-.627.272-4.732,6.56-1.084.224,1.722.355.845Z" transform="translate(-644.662 -418.823)"/><path class="b" d="M773.242,495.209l-4.018,2.646.149,2.316s.417,3.726.417,4.114-.2,3.558-.2,3.558,1,1.493.9,1.864.86,1.389.86,1.389L773,514.261a6.091,6.091,0,0,0,.448,1.227,1.46,1.46,0,0,1-.2.524c-.333.333-1.5,7.533-1.5,7.533s-.01.122-.021.29c-.085-.076-.149-.122-.149-.122a14.2,14.2,0,0,1-.806-1.472,9.859,9.859,0,0,0-.862-1.251l-1.965-3.752-.46-.778.182-.865,1.28-22.21,6.56-1.084.224,1.722-5.973,1.522Z" transform="translate(-652.886 -418.78)"/><path class="b" d="M782.758,495.466l-7.338,2.65.272-4.732,6.56-1.084.224,1.722.355.845C782.786,495.209,782.758,495.466,782.758,495.466Z" transform="translate(-659.632 -418.78)"/><path class="b" d="M770.73,561.463a.449.449,0,0,1-.024.211.727.727,0,0,1-.149-.376c.084-.251-.667-.835-.667-.835a14.213,14.213,0,0,1-.8-1.472,9.858,9.858,0,0,0-.863-1.251l-1.941-3.694.176-.836.182-.865.975-16.844.058,1.423s.421,3.718.421,4.1-.194,3.558-.194,3.558,1,1.493.9,1.864.862,1.389.862,1.389l1.668,3.17a4.78,4.78,0,0,0,.473,1.251,2.925,2.925,0,0,1,.376.629c-.4,1.032-1.433,7.4-1.433,7.4s-.01.122-.021.29A2.941,2.941,0,0,0,770.73,561.463Z" transform="translate(-651.857 -455.529)"/><path class="b" d="M809.786,691.378s-1.251,2.252-2.2,2.309a5.234,5.234,0,0,0-1.85.617c-.082-.352-.149-.617-.149-.617s2.539-3.642,3.309-3.669a.35.35,0,0,1,.109.012v.013A6.7,6.7,0,0,0,809.786,691.378Z" transform="translate(-685.297 -586.974)"/><path class="j" d="M736.409,507.645s-1.251,2.252-2.2,2.309a6.18,6.18,0,0,0-2.2.806s-1.141-1.335-1.059-1.584-.666-.835-.666-.835a14.205,14.205,0,0,1-.806-1.472,9.86,9.86,0,0,0-.863-1.251l-1.973-3.752s-3.307-5.562-3.391-5.9a1.1,1.1,0,0,0-.308-.527,3.988,3.988,0,0,1-.972-2.5l-.917-1.39-.084-2.335a7.114,7.114,0,0,1-.5-1.668,10.458,10.458,0,0,0-.279-1.5c0-.14-.333-2.973-.36-3.085s-.14-.723-.14-.723a21.186,21.186,0,0,0-.193-3.615,4.978,4.978,0,0,1-.17-1.62c-.009-.572,0-1.075,0-1.075l16.373-1.7s.1.933.16,1.868a5.779,5.779,0,0,1-.048,1.858,9.445,9.445,0,0,0-.448,2.141l-7.394,2.668.082,2.029s.418,3.726.418,4.114-.2,3.558-.2,3.558,1,1.493.9,1.864.86,1.389.86,1.389l1.668,3.17a5.126,5.126,0,0,0,.473,1.251,13.662,13.662,0,0,1,.92,1.755s1.111,1.7,1.111,1.808a16.235,16.235,0,0,0,.806,1.419,5.75,5.75,0,0,1,.611,1.195A6.666,6.666,0,0,0,736.409,507.645Z" transform="translate(-611.921 -403.408)"/><path class="b" d="M766.67,604.18s1.362,1.557,2.056,1.586S766.67,604.18,766.67,604.18Z" transform="translate(-652.189 -513.954)"/><path class="b" d="M801.48,698.629s4.114-2.113,3.584-1.139a4.2,4.2,0,0,1-2.029,1.493Z" transform="translate(-681.801 -593.112)"/><path class="b" d="M765.55,703.42s2.529.166,2.862.584C768.412,704,765.717,703.447,765.55,703.42Z" transform="translate(-651.236 -598.375)"/><path class="b" d="M765.73,709.19a13.417,13.417,0,0,1,3.058.417A12.565,12.565,0,0,1,765.73,709.19Z" transform="translate(-651.389 -603.284)"/><path class="k" d="M570.306,350.555l-.732-.334-1.159-.529s-5.5-2.2-5.674-4.392,6.421,1.445,6.421,1.445a6.34,6.34,0,0,0,.611.821,1.263,1.263,0,0,0,.641.457C570.921,348.079,570.306,350.555,570.306,350.555Z" transform="translate(-478.709 -293.132)"/><path class="k" d="M776.932,275.294l-1.807,2.091-4.392-1.444-1.084-.863.693-.917a2.1,2.1,0,0,0,.3-1.284,2.5,2.5,0,0,0-.015-.334,8.535,8.535,0,0,0-.311-1.634s6.254-1.586,5.809-.279a2.327,2.327,0,0,0-.1.841,5.1,5.1,0,0,0,.273,1.362,7.906,7.906,0,0,0,.47,1.133Z" transform="translate(-654.724 -229.771)"/><path class="b" d="M779.929,270.57a2.326,2.326,0,0,0-.1.841,5,5,0,0,1-5.394,1.072,8.535,8.535,0,0,0-.311-1.634S780.374,269.268,779.929,270.57Z" transform="translate(-658.526 -229.722)"/><path class="k" d="M765.309,225.656a3.158,3.158,0,0,1-.013.357,5,5,0,0,1-9.425,1.964,4.907,4.907,0,0,1-.479-1.38,4.778,4.778,0,0,1-.091-.941,5,5,0,0,1,10-.172C765.307,225.541,765.309,225.6,765.309,225.656Z" transform="translate(-642.517 -187.695)"/><path class="b" d="M776.932,290.791l-1.807,2.091-4.392-1.444-1.084-.863.693-.917a2.1,2.1,0,0,0,.3-1.284l.2,1.534.048.048.287.287h.361l.7.945s1-.8,1.084-.612,1.445-.333,1.445-.333h.052c1.233-.052,1.448-1.889,1.448-1.889a.288.288,0,0,1,.03-.022,7.906,7.906,0,0,0,.47,1.133Z" transform="translate(-654.724 -245.267)"/><path class="b" d="M735.9,476.1c-.031.121-.066.239-.1.357-1.084,3.446-8.9,3.53-8.9,3.53l-.222-2.14-.747,1.445A46.44,46.44,0,0,1,719.367,477c-.009-.572,0-1.075,0-1.075l16.373-1.7S735.841,475.166,735.9,476.1Z" transform="translate(-611.946 -403.408)"/><path class="b" d="M609.252,367.478l-.732-.334a18.539,18.539,0,0,0,.2-2.653,1.263,1.263,0,0,0,.641.457C609.867,365,609.252,367.478,609.252,367.478Z" transform="translate(-517.654 -310.055)"/><path class="i" d="M642.214,308.889s1.224,4.393.14,7.841-8.9,3.524-8.9,3.524l-.222-2.14-.747,1.447s-5.837-1.614-6.976-2.559a2.122,2.122,0,0,1-.557-2.362,9.139,9.139,0,0,1,.723-2.225,3.159,3.159,0,0,0,.278-1.941,7.524,7.524,0,0,1,.557-2.309c.167-.278-.028-7.7-.028-7.7a13.16,13.16,0,0,0-2.613,1.445,20.989,20.989,0,0,1-3.058,1.941s-2.752.335-3.252.335-3.254-.335-3.254-.335a2.689,2.689,0,0,1-.972-.194,2.863,2.863,0,0,0-.724-.306,2.188,2.188,0,0,1-1-.472,14.91,14.91,0,0,0-2.091-1.335c.361-.222.39-3.136.39-3.136l3.53.862s.224-.472.557-.278a13.248,13.248,0,0,0,2.364.357,7.36,7.36,0,0,1,1.78-.2c.084.137.333.112.333.112s.334-.028.334-.137.3.025.3.025l.557.084s-.084-.721.167-.776a.367.367,0,0,0,.276-.306s.747-1,1.112-1,.612-1,.612-1l1.335-1.362s-.167-.7,0-.724.193-.333.193-.333.057-.611.363-.747.472-.944.472-.944a9.754,9.754,0,0,0,1.529-2.141.907.907,0,0,1,.7-.667,3.434,3.434,0,0,1,1.027-.448c.473-.084,1.725-.224,1.725-.224a10.146,10.146,0,0,0,2.5-.448,1.085,1.085,0,0,1,.86-.224.285.285,0,0,0,.149-.055,9.092,9.092,0,0,0,.763-.778,1.14,1.14,0,0,1,.917-.167l.251,1.919.046.046.287.287h.361l.7.947s1-.806,1.084-.612,1.445-.334,1.445-.334h.052c1.233-.052,1.448-1.887,1.448-1.887.612-.53,1.141,1.7,1.141,1.7l.193.1a5.162,5.162,0,0,1,1.363.953,8.97,8.97,0,0,0,1.7,1.221Z" transform="translate(-518.505 -244.017)"/><path class="k" d="M796.713,468.615l-.821.662-.93.747s-1.725,4.032-4.087,2.892,3.166-5.356,3.166-5.356l.764-.37.847-.409Z" transform="translate(-672.28 -397.071)"/><path class="b" d="M765.552,291.146a10.61,10.61,0,0,0-1.941,1.205l-.04-2.223a9.141,9.141,0,0,0,.763-.779,1.17,1.17,0,0,1,.917-.166l.251,1.917Z" transform="translate(-649.552 -245.967)"/><path class="l" d="M766.7,288.949a10.607,10.607,0,0,0-1.941,1.205l-.036-2.217a9.1,9.1,0,0,0,.763-.778,1.14,1.14,0,0,1,.917-.167l.251,1.919Z" transform="translate(-650.53 -244.102)"/><path class="b" d="M807.032,294.237c-.427,1.144-.959,2.41-1.054,1.925-.115-.575-1.117-1.387-1.728-1.837,1.233-.051,1.448-1.887,1.448-1.887.612-.529,1.141,1.7,1.141,1.7Z" transform="translate(-684.157 -248.692)"/><path class="l" d="M807.032,290.885c-.427,1.144-.959,2.41-1.054,1.925-.115-.575-1.117-1.387-1.728-1.837,1.233-.052,1.448-1.887,1.448-1.887.612-.53,1.141,1.7,1.141,1.7Z" transform="translate(-684.157 -245.84)"/><path class="b" d="M784.91,594.785s3.169-.448,3.03.222S784.91,594.785,784.91,594.785Z" transform="translate(-667.705 -505.837)"/><path class="b" d="M750.65,519.9a3.846,3.846,0,0,1,2.364-.388Z" transform="translate(-638.561 -441.87)"/><path class="b" d="M737.06,509.621a7.468,7.468,0,0,1,2.752.028Z" transform="translate(-627.001 -433.406)"/><path class="b" d="M786.325,541.07s-1.752,1.862-1.643,2.362Z" transform="translate(-667.507 -460.268)"/><path class="b" d="M681.114,373.7s-.278,1,1.419,1.417Z" transform="translate(-579.394 -317.89)"/><path class="b" d="M677.86,385.24s2.091,1.862,1.112,1.919S677.86,385.24,677.86,385.24Z" transform="translate(-576.64 -327.707)"/><path class="b" d="M708.95,335.16s2.558,1.778,2.389,2.2S708.95,335.16,708.95,335.16Z" transform="translate(-603.088 -285.105)"/><path class="b" d="M822.474,468.6l-.821.661a5.007,5.007,0,0,0-1.083-2.091l.847-.409Z" transform="translate(-698.041 -397.054)"/><path class="i" d="M821.056,316.864l1.112-.694s1.278.194,1.445,2.837a73.785,73.785,0,0,0,1.335,7.923l.639,5.864a4.32,4.32,0,0,1,.028,1.668,6.1,6.1,0,0,0-.3,1c-.028.2-1.557,1.141-1.529,2.364s-1.941,2.362-1.941,2.362a8.2,8.2,0,0,0-1.7,1.28s-.473-2.225-1.5-2.78,2.168-4.975,2.168-4.975Z" transform="translate(-696.234 -268.95)"/><path class="b" d="M805.525,434.15s-3.336,1.39-3.058,1.835S805.525,434.15,805.525,434.15Z" transform="translate(-682.626 -369.313)"/><path class="b" d="M815.754,446.06s-1.387.614-1.272.809S815.754,446.06,815.754,446.06Z" transform="translate(-692.855 -379.445)"/><path class="b" d="M810.544,453.88s-1.387.614-1.272.809S810.544,453.88,810.544,453.88Z" transform="translate(-688.423 -386.097)"/><path class="e" d="M577.1,214.58v42.109h42.382A42.471,42.471,0,0,0,577.1,214.58Z" transform="translate(-490.926 -182.53)"/><path class="b" d="M577.1,214.58v42.109h42.382A42.471,42.471,0,0,0,577.1,214.58Z" transform="translate(-490.926 -182.53)"/><path class="e" d="M577.1,209v42.109h42.382A42.469,42.469,0,0,0,577.1,209Z" transform="translate(-490.926 -177.783)"/><path class="k" d="M795.465,492.493a1.1,1.1,0,0,1,.2-.645,1.052,1.052,0,0,1,.475-.266c.158-.052.318-.1.478-.149a1.216,1.216,0,0,1,.385-.063,1.35,1.35,0,0,1,.709.332.3.3,0,0,1,.1.106c.048.111-.055.225-.149.3a7.108,7.108,0,0,1-1.062.781,2.133,2.133,0,0,1-.93.321C795.286,493.219,795.44,492.771,795.465,492.493Z" transform="translate(-676.64 -417.989)"/><path class="b" d="M765.309,225.639a3.158,3.158,0,0,1-.013.357.676.676,0,0,1-.066.039,1.932,1.932,0,0,0-.246.109c-.243.166-.188.527-.166.82a2.209,2.209,0,0,1-.254,1.223.437.437,0,0,1-.387-.364,2.919,2.919,0,0,1-.024-.572,4.963,4.963,0,0,0-.478-1.447,25.169,25.169,0,0,1-.479-2.892,1.2,1.2,0,0,0-.408-.747,1.092,1.092,0,0,0-1.1.055,6.233,6.233,0,0,1-1.014.549,3.025,3.025,0,0,1-1.74-.212,1.794,1.794,0,0,0-2.71,1.483,1.5,1.5,0,0,0-.079.514,4.617,4.617,0,0,1,.064.463c0,.334-.285.6-.4.914-.069.2-.052.678-.336.675a.181.181,0,0,1-.091-.028,4.778,4.778,0,0,1-.091-.941,4.951,4.951,0,0,1,.069-.82,5,5,0,0,1,9.934.648C765.307,225.524,765.309,225.583,765.309,225.639Z" transform="translate(-642.517 -187.678)"/><path class="m" d="M744.8,202c-.018-.482.348-.933.264-1.408-.066-.372-.388-.642-.545-.986a1.2,1.2,0,0,1,.19-1.259c.122-.137.276-.245.394-.385a2.859,2.859,0,0,0,.411-1.008,1.2,1.2,0,0,1,.647-.835c.375-.128.814.081,1.175-.082a.3.3,0,0,0,.184-.2.7.7,0,0,0-.019-.2c-.025-.266.227-.473.469-.59a5.586,5.586,0,0,1,3.608-.015,2.37,2.37,0,0,1,.052-.726,3.517,3.517,0,0,1,2.116.72,4.45,4.45,0,0,1,.747,1.184,2.016,2.016,0,0,0,.954,1,1.058,1.058,0,0,1,.394.188.747.747,0,0,1,.149.251l.287.706a.789.789,0,0,0,.131.237,1.215,1.215,0,0,0,.252.178,1.635,1.635,0,0,1,.464,1.8c-.173.642-.535,1.223-.672,1.874-.081.384-.127.853-.478,1.027a2.032,2.032,0,0,0-.246.111c-.243.164-.19.526-.166.818a2.215,2.215,0,0,1-.252,1.223.436.436,0,0,1-.387-.364,2.915,2.915,0,0,1-.025-.572,4.965,4.965,0,0,0-.478-1.447,24.866,24.866,0,0,1-.478-2.892,1.207,1.207,0,0,0-.411-.747,1.082,1.082,0,0,0-1.1.055,5.988,5.988,0,0,1-1.012.548,3.02,3.02,0,0,1-1.741-.214,1.793,1.793,0,0,0-2.707,1.484,1.517,1.517,0,0,0-.082.514,4.66,4.66,0,0,1,.066.463c0,.336-.285.6-.4.915-.069.2-.052.676-.336.675-.215,0-.433-.487-.539-.629C745.363,202.987,744.822,202.588,744.8,202Z" transform="translate(-633.261 -165.287)"/><g class="n" transform="translate(111.158 29.382)"><path d="M745.063,226.772c-.066-.372-.388-.641-.545-.984a1.12,1.12,0,0,1-.088-.308,1.163,1.163,0,0,0,.088.641c.149.34.47.608.542.972A.964.964,0,0,0,745.063,226.772Z" transform="translate(-744.418 -221.184)"/><path d="M765.078,202.174a.12.12,0,0,0,0-.024.38.38,0,0,0-.018.07A.172.172,0,0,0,765.078,202.174Z" transform="translate(-761.978 -201.338)"/><path d="M792.347,196.744a.269.269,0,0,1,0-.034v.033Z" transform="translate(-785.189 -196.71)"/><path d="M820.48,231.538c-.172.642-.535,1.224-.672,1.874-.081.385-.127.853-.478,1.029a2.27,2.27,0,0,0-.246.109c-.2.137-.2.409-.178.666a.436.436,0,0,1,.178-.331,2.029,2.029,0,0,1,.246-.11c.351-.175.4-.644.478-1.027.137-.651.5-1.232.672-1.874a2.27,2.27,0,0,0,.075-.772A2.353,2.353,0,0,1,820.48,231.538Z" transform="translate(-807.776 -225.965)"/><path d="M769.4,232.852a.436.436,0,0,1-.387-.364,2.93,2.93,0,0,1-.025-.573,4.954,4.954,0,0,0-.478-1.445,24.839,24.839,0,0,1-.478-2.892,1.207,1.207,0,0,0-.411-.747,1.088,1.088,0,0,0-1.1.055,5.994,5.994,0,0,1-1.012.548,3.019,3.019,0,0,1-1.741-.212,1.793,1.793,0,0,0-2.707,1.483,1.526,1.526,0,0,0-.082.515.622.622,0,0,0,.015.1,2.248,2.248,0,0,1,.067-.285,1.793,1.793,0,0,1,2.707-1.484,3.031,3.031,0,0,0,1.741.214,6.1,6.1,0,0,0,1.012-.548,1.085,1.085,0,0,1,1.1-.055,1.183,1.183,0,0,1,.411.747,25.38,25.38,0,0,0,.478,2.892,5.4,5.4,0,0,1,.478,1.447,2.914,2.914,0,0,0,.025.572.436.436,0,0,0,.387.364,2.221,2.221,0,0,0,.254-1.212A2.239,2.239,0,0,1,769.4,232.852Z" transform="translate(-758.506 -222.225)"/><path d="M748.729,245.67c-.069.2-.052.676-.336.675-.215,0-.433-.485-.539-.627-.3-.4-.785-.776-.873-1.3a1.059,1.059,0,0,0-.013.206c.022.59.563.989.887,1.425.106.149.324.627.539.629.284,0,.267-.479.336-.675.11-.317.388-.579.4-.915a.916.916,0,0,0-.021-.191A8.3,8.3,0,0,1,748.729,245.67Z" transform="translate(-746.586 -237.296)"/></g><rect class="e" width="0.502" height="0.511" transform="translate(14.895 66.696)"/><rect class="o" width="0.502" height="0.511" transform="translate(14.895 66.696)"/><rect class="e" width="0.49" height="0.569" transform="translate(57.407 24.638)"/><rect class="o" width="0.49" height="0.569" transform="translate(57.407 24.638)"/><path class="p" d="M145.308,210.139h0V168.03h-.088a42.472,42.472,0,0,0-42.47,42.122Z" transform="translate(-87.407 -142.931)"/><path class="e" d="M145.308,210.139h0V168.03h-.088a42.472,42.472,0,0,0-42.47,42.122Z" transform="translate(-87.407 -142.931)"/><path class="o" d="M145.308,210.139h0V168.03h-.088a42.472,42.472,0,0,0-42.47,42.122Z" transform="translate(-87.407 -142.931)"/><path class="e" d="M142.308,207.139h0V165.03h-.088a42.472,42.472,0,0,0-42.47,42.122Z" transform="translate(-84.855 -140.379)"/><path class="q" d="M142.308,207.139h0V165.03h-.088a42.472,42.472,0,0,0-42.47,42.122Z" transform="translate(-84.855 -140.379)"/><path class="e" d="M593.274,677.37l.626.393v.747l-.85-.131Z" transform="translate(-504.494 -576.215)"/><path class="b" d="M593.274,677.37l.626.393v.747l-.85-.131Z" transform="translate(-504.494 -576.215)"/><path class="e" d="M193.584,678.894l-.234.07v.747l.794-.173-.2-.727Z" transform="translate(-164.479 -577.44)"/><path class="b" d="M193.584,678.894l-.234.07v.747l.794-.173-.2-.727Z" transform="translate(-164.479 -577.44)"/><path class="e" d="M224.161,485.96l-30.811,29.7a42.465,42.465,0,0,0,60.052.5q.242-.238.481-.481Z" transform="translate(-164.479 -413.387)"/><path class="e" d="M224.161,480.96l-30.811,29.7a42.464,42.464,0,0,0,60.052.5q.242-.238.481-.48Z" transform="translate(-164.479 -409.133)"/><path class="b" d="M224.161,480.96l-30.811,29.7a42.464,42.464,0,0,0,60.052.5q.242-.238.481-.48Z" transform="translate(-164.479 -409.133)"/><path class="e" d="M224.161,485.96l-30.811,29.7a42.465,42.465,0,0,0,60.052.5q.242-.238.481-.481Z" transform="translate(-164.479 -413.387)"/><path class="r" d="M382.99,471.062l1.026-.7.149.3-1.171.856Z" transform="translate(-325.801 -400.116)"/><path class="b" d="M382.99,471.062l1.026-.7.149.3-1.171.856Z" transform="translate(-325.801 -400.116)"/><path class="s" d="M374.605,465.759l1.083-.4.149.3-1.847.623Z" transform="translate(-318.145 -395.863)"/><path class="b" d="M374.605,465.759l1.083-.4.149.3-1.847.623Z" transform="translate(-318.145 -395.863)"/><path class="t" d="M372.768,458.923l1.144-.063v.3l-1.922.2.172-.387Z" transform="translate(-316.444 -390.333)"/><path class="b" d="M372.768,458.923l1.144-.063v.3l-1.922.2.172-.387Z" transform="translate(-316.444 -390.333)"/><path class="t" d="M143.387,458.86l-41.415,9.431A42.612,42.612,0,0,1,101,459.22v-.36Z" transform="translate(-85.918 -390.333)"/><path class="b" d="M143.387,458.86l-41.415,9.431A42.612,42.612,0,0,1,101,459.22v-.36Z" transform="translate(-85.918 -390.333)"/><path class="u" d="M143.387,460.86l-41.415,9.431A42.612,42.612,0,0,1,101,461.22v-.36Z" transform="translate(-85.918 -392.035)"/><path class="s" d="M108.01,474.788a42.07,42.07,0,0,0,4.318,11.463l37.1-20.892Z" transform="translate(-91.882 -395.863)"/><path class="b" d="M108.01,474.788a42.07,42.07,0,0,0,4.318,11.463l37.1-20.892Z" transform="translate(-91.882 -395.863)"/><path class="s" d="M109.01,476.788a42.071,42.071,0,0,0,4.318,11.463l37.1-20.892Z" transform="translate(-92.732 -397.564)"/><path class="r" d="M178.342,470.38,141.31,491.239l.018.033a42.464,42.464,0,0,0,6.929,9.271L178.42,470.38Z" transform="translate(-120.209 -400.133)"/><path class="b" d="M178.342,470.38,141.31,491.239l.018.033a42.464,42.464,0,0,0,6.929,9.271L178.42,470.38Z" transform="translate(-120.209 -400.133)"/><path class="j" d="M179.342,472.38,142.31,493.239l.018.033a42.465,42.465,0,0,0,6.929,9.271L179.42,472.38Z" transform="translate(-121.06 -401.835)"/></g></svg>